<svg xmlns="http://www.w3.org/2000/svg" width="1030" height="400" viewBox="0 0 1030 400">
  <g id="Grupo_1069129" data-name="Grupo 1069129" transform="translate(-285 -483)">
    <rect id="Rectángulo_376734" data-name="Rectángulo 376734" width="1030" height="400" rx="10" transform="translate(285 483)" fill="#fee0e7"/>
    <g id="Grupo_1069117" data-name="Grupo 1069117" transform="translate(1031.915 353.723)">
      <text id="VOIP" transform="translate(-353.434 283.277)" fill="#1e5af9" font-size="127" font-family="Roboto-Black, Roboto" font-weight="800"><tspan x="0" y="0">VOIP</tspan></text>
      <line id="Línea_1622" data-name="Línea 1622" x2="728.28" transform="translate(-586.079 320.003)" fill="none" stroke="#12263f" stroke-miterlimit="10" stroke-width="4"/>
      <line id="Línea_1623" data-name="Línea 1623" y2="43.179" transform="translate(-586.079 298.234)" fill="none" stroke="#12263f" stroke-miterlimit="10" stroke-width="2"/>
      <circle id="Elipse_4072" data-name="Elipse 4072" cx="6.297" cy="6.297" r="6.297" transform="translate(-592.376 313.707)" fill="#1e5af9" stroke="#12263f" stroke-miterlimit="10" stroke-width="3"/>
      <line id="Línea_1624" data-name="Línea 1624" y2="43.179" transform="translate(-480.651 298.234)" fill="none" stroke="#12263f" stroke-miterlimit="10" stroke-width="2"/>
      <circle id="Elipse_4073" data-name="Elipse 4073" cx="6.297" cy="6.297" r="6.297" transform="translate(-486.948 313.707)" fill="#1e5af9" stroke="#12263f" stroke-miterlimit="10" stroke-width="3"/>
      <line id="Línea_1625" data-name="Línea 1625" y2="43.179" transform="translate(-376.482 298.234)" fill="none" stroke="#12263f" stroke-miterlimit="10" stroke-width="2"/>
      <circle id="Elipse_4074" data-name="Elipse 4074" cx="6.297" cy="6.297" r="6.297" transform="translate(-382.779 313.707)" fill="#1e5af9" stroke="#12263f" stroke-miterlimit="10" stroke-width="3"/>
      <line id="Línea_1626" data-name="Línea 1626" y2="43.179" transform="translate(-273.657 298.234)" fill="none" stroke="#12263f" stroke-miterlimit="10" stroke-width="2"/>
      <circle id="Elipse_4075" data-name="Elipse 4075" cx="6.297" cy="6.297" r="6.297" transform="translate(-279.954 313.707)" fill="#1e5af9" stroke="#12263f" stroke-miterlimit="10" stroke-width="3"/>
      <line id="Línea_1627" data-name="Línea 1627" y2="43.179" transform="translate(-169.225 298.234)" fill="none" stroke="#12263f" stroke-miterlimit="10" stroke-width="2"/>
      <circle id="Elipse_4076" data-name="Elipse 4076" cx="6.297" cy="6.297" r="6.297" transform="translate(-175.522 313.707)" fill="#1e5af9" stroke="#12263f" stroke-miterlimit="10" stroke-width="3"/>
      <line id="Línea_1628" data-name="Línea 1628" y2="43.179" transform="translate(-66.546 298.234)" fill="none" stroke="#12263f" stroke-miterlimit="10" stroke-width="2"/>
      <circle id="Elipse_4077" data-name="Elipse 4077" cx="6.297" cy="6.297" r="6.297" transform="translate(-72.843 313.707)" fill="#1e5af9" stroke="#12263f" stroke-miterlimit="10" stroke-width="3"/>
      <line id="Línea_1629" data-name="Línea 1629" y2="43.179" transform="translate(38.625 298.234)" fill="none" stroke="#12263f" stroke-miterlimit="10" stroke-width="2"/>
      <circle id="Elipse_4078" data-name="Elipse 4078" cx="6.297" cy="6.297" r="6.297" transform="translate(32.329 313.707)" fill="#1e5af9" stroke="#12263f" stroke-miterlimit="10" stroke-width="3"/>
      <line id="Línea_1630" data-name="Línea 1630" y2="43.179" transform="translate(139.502 298.234)" fill="none" stroke="#12263f" stroke-miterlimit="10" stroke-width="2"/>
      <circle id="Elipse_4079" data-name="Elipse 4079" cx="6.297" cy="6.297" r="6.297" transform="translate(133.205 313.707)" fill="#1e5af9" stroke="#12263f" stroke-miterlimit="10" stroke-width="3"/>
      <g id="Grupo_56631" data-name="Grupo 56631" transform="translate(-625.105 357.294)">
        <path id="Trazado_122972" data-name="Trazado 122972" d="M-550.826,257.207v27.859a1.282,1.282,0,0,1-1.477,1.473q-5.384.005-10.764,0H-587.2q-7.035,0-14.077-.007a.543.543,0,0,0-.578.373,10.271,10.271,0,0,1-17.413,1.863,15.153,15.153,0,0,1-1.176-1.931.49.49,0,0,0-.516-.3c-1.8.01-3.6.007-5.4,0a1.285,1.285,0,0,1-1.439-1.449V229.375a1.308,1.308,0,0,1,1.47-1.466c1.778,0,3.552-.007,5.329.007a.473.473,0,0,0,.5-.325,10.107,10.107,0,0,1,8.368-6,10.257,10.257,0,0,1,10.009,5.274,1.966,1.966,0,0,1,.222.427c.133.588.523.632,1.046.629,4.232-.021,8.464-.01,12.7-.01h35.814c1.056,0,1.518.461,1.518,1.518q-.005,8.306-.01,16.613-.005,5.584,0,11.168ZM-553.394,284V230.469h-47.5V284Zm-65.485-26.844h-.017c0,1.043,0,2.085,0,3.128q.005,6.05.014,12.1c0,3.227.024,6.457-.007,9.684A7.77,7.77,0,0,0-617.7,286.6a7.475,7.475,0,0,0,7.315,3.582,7.709,7.709,0,0,0,7-7.742q0-3.871,0-7.746,0-3.723,0-7.445v-24.8q0-5.138,0-10.279a9.728,9.728,0,0,0-.089-1.484,7.68,7.68,0,0,0-8.132-6.58,7.487,7.487,0,0,0-6.6,4.56,8.526,8.526,0,0,0-.68,3.8Q-618.863,244.809-618.878,257.156Zm-2.5,26.83V230.445h-3.357c-.53,0-.53,0-.53.516v53.025Z" transform="translate(627.8 -221.524)" fill="#12263f"/>
        <path id="Trazado_122973" data-name="Trazado 122973" d="M-601.371,240.572h-12.586a1.287,1.287,0,0,1-1.436-1.419q-.01-6.255,0-12.511a1.257,1.257,0,0,1,1.371-1.371q8.732-.005,17.468,0,3.872.005,7.743,0a1.317,1.317,0,0,1,1.487,1.487q0,6.163,0,12.326a1.314,1.314,0,0,1-1.491,1.484q-5.563-.005-11.133-.017h-1.412Zm-11.479-2.54h8.546q7,0,14,.007c.342,0,.434-.085.434-.434q-.02-4.712,0-9.421c0-.284-.065-.386-.373-.383-3.029.01-6.057.007-9.086.007q-6.481,0-12.962,0h-.564Z" transform="translate(657.791 -212.465)" fill="#12263f"/>
        <path id="Trazado_122974" data-name="Trazado 122974" d="M-609.457,234.42a10.724,10.724,0,0,1,.092-1.371,2.96,2.96,0,0,1,2.834-2.533,13.227,13.227,0,0,1,2.082,0,2.969,2.969,0,0,1,2.861,2.769,11.053,11.053,0,0,1-.007,2.3,2.943,2.943,0,0,1-2.773,2.735,12.116,12.116,0,0,1-2.413-.031,3,3,0,0,1-2.649-2.974c-.007-.3,0-.595,0-.9Zm3.924,1.4v-.007c.284,0,.571.01.854,0a.554.554,0,0,0,.585-.588c.017-.52.024-1.043.01-1.562a.563.563,0,0,0-.633-.612c-.523-.007-1.042-.007-1.566,0-.417.007-.6.2-.612.622-.01.5,0,.995,0,1.49a.6.6,0,0,0,.656.66C-606,235.822-605.769,235.818-605.533,235.818Z" transform="translate(672.159 -199.883)" fill="#12263f"/>
        <path id="Trazado_122975" data-name="Trazado 122975" d="M-615.457,234.413a11.735,11.735,0,0,1,.119-1.514,2.948,2.948,0,0,1,2.7-2.379,15.2,15.2,0,0,1,2.232-.007,3.028,3.028,0,0,1,2.841,3.066c.007.533,0,1.067,0,1.6a2.957,2.957,0,0,1-2.7,3.107,10.689,10.689,0,0,1-2.953-.1,2.891,2.891,0,0,1-2.2-2.724c-.013-.349,0-.694,0-1.043Zm4.023-1.367v0c-.3,0-.594-.01-.892,0a.513.513,0,0,0-.561.557c-.01.547-.007,1.094,0,1.641a.513.513,0,0,0,.533.554c.581.021,1.166.017,1.747,0a.482.482,0,0,0,.5-.506c.01-.585.014-1.169-.007-1.75a.464.464,0,0,0-.5-.492C-610.887,233.039-611.16,233.046-611.434,233.046Z" transform="translate(657.649 -199.879)" fill="#12263f"/>
        <path id="Trazado_122976" data-name="Trazado 122976" d="M-604.607,234.4a10.229,10.229,0,0,1-.011,1.3,2.977,2.977,0,0,1-2.772,2.612,12.773,12.773,0,0,1-2.451-.031,2.96,2.96,0,0,1-2.584-2.827q-.041-1.082,0-2.16A3.011,3.011,0,0,1-609.5,230.5a14.756,14.756,0,0,1,2.232.031,3,3,0,0,1,2.684,2.9c.007.321,0,.643,0,.967Zm-3.9-1.354v-.007h-.707a.553.553,0,0,0-.075,0c-.413.014-.6.181-.6.585q-.015.8,0,1.6a.518.518,0,0,0,.554.571c.567.021,1.142.017,1.713,0a.486.486,0,0,0,.509-.492c.014-.581.014-1.166,0-1.75a.481.481,0,0,0-.527-.5C-607.94,233.041-608.224,233.047-608.511,233.047Z" transform="translate(664.933 -199.877)" fill="#12263f"/>
        <path id="Trazado_122977" data-name="Trazado 122977" d="M-605.536,244.345a9.244,9.244,0,0,1-1.726-.191,2.8,2.8,0,0,1-2.119-2.471,11.672,11.672,0,0,1,.007-2.632,2.9,2.9,0,0,1,2.656-2.553,12.763,12.763,0,0,1,2.451,0,2.959,2.959,0,0,1,2.676,2.793,11.988,11.988,0,0,1-.031,2.376,2.97,2.97,0,0,1-2.977,2.629c-.311,0-.622,0-.933,0Zm0-2.581c.284,0,.567.007.854,0a.545.545,0,0,0,.578-.584c.01-.533.014-1.067,0-1.6A.547.547,0,0,0-604.7,239c-.544-.014-1.091-.01-1.634,0a.532.532,0,0,0-.571.554c-.017.547-.017,1.09,0,1.637a.535.535,0,0,0,.588.571C-606.056,241.771-605.793,241.764-605.533,241.764Z" transform="translate(672.169 -185.459)" fill="#12263f"/>
        <path id="Trazado_122978" data-name="Trazado 122978" d="M-611.494,241.34a12.779,12.779,0,0,1-1.661-.15,2.99,2.99,0,0,1-2.283-2.827c-.017-.619-.01-1.241,0-1.86a3.047,3.047,0,0,1,3.066-3.039,16.639,16.639,0,0,1,2.3.072,2.926,2.926,0,0,1,2.458,2.663,17.8,17.8,0,0,1,0,2.379,3,3,0,0,1-2.8,2.7c-.359.017-.721,0-1.08,0Zm0-2.581v0h.369c.137,0,.274,0,.41,0,.407-.021.581-.188.588-.6.007-.509.007-1.015,0-1.525,0-.444-.184-.636-.625-.643q-.779-.015-1.559,0a.541.541,0,0,0-.595.567c-.01.547-.01,1.09,0,1.634a.515.515,0,0,0,.557.561C-612.065,238.773-611.781,238.759-611.494,238.759Z" transform="translate(657.668 -192.664)" fill="#12263f"/>
        <path id="Trazado_122979" data-name="Trazado 122979" d="M-608.664,244.285a3.763,3.763,0,0,1-2.314-.441,2.961,2.961,0,0,1-1.446-2.424c-.031-.653-.024-1.313-.007-1.969A2.971,2.971,0,0,1-609.8,236.5a12.024,12.024,0,0,1,2.67.021,2.952,2.952,0,0,1,2.543,2.865q.025,1,0,2.01a3.02,3.02,0,0,1-2.9,2.882C-607.84,244.291-608.185,244.285-608.664,244.285Zm1.545-3.924c0-.26.007-.52,0-.779a.543.543,0,0,0-.571-.588c-.543-.01-1.09-.014-1.634,0a.519.519,0,0,0-.574.544c-.01.557-.007,1.114,0,1.672a.5.5,0,0,0,.53.544c.571.014,1.138.01,1.709,0a.5.5,0,0,0,.537-.537C-607.108,240.931-607.119,240.644-607.119,240.36Z" transform="translate(664.933 -185.453)" fill="#12263f"/>
        <path id="Trazado_122980" data-name="Trazado 122980" d="M-605.515,241.289a4.406,4.406,0,0,1-2.218-.308,2.873,2.873,0,0,1-1.658-2.318,12.675,12.675,0,0,1,.021-2.67,2.983,2.983,0,0,1,2.923-2.53c.571-.01,1.142,0,1.712,0a3.029,3.029,0,0,1,3.145,2.841,12.3,12.3,0,0,1-.038,2.379,2.968,2.968,0,0,1-2.844,2.608C-604.818,241.3-605.166,241.289-605.515,241.289Zm-.024-2.53v0c.273,0,.547,0,.817,0,.4-.01.605-.188.615-.585.017-.533.014-1.066,0-1.6a.553.553,0,0,0-.591-.578c-.547-.01-1.091-.01-1.638,0a.552.552,0,0,0-.574.591q-.015.8,0,1.6a.525.525,0,0,0,.55.567C-606.082,238.769-605.812,238.759-605.539,238.759Z" transform="translate(672.172 -192.664)" fill="#12263f"/>
        <path id="Trazado_122981" data-name="Trazado 122981" d="M-611.556,244.4a10.348,10.348,0,0,1-2.054-.383,2.777,2.777,0,0,1-1.815-2.625,12.844,12.844,0,0,1,.075-2.485,2.871,2.871,0,0,1,2.588-2.4,11.517,11.517,0,0,1,2.635.031,2.959,2.959,0,0,1,2.543,2.906q.036.949,0,1.9a3.03,3.03,0,0,1-3.063,2.96h-.892Zm1.429-3.993h0c0-.284,0-.567,0-.851a.508.508,0,0,0-.53-.55c-.567-.021-1.138-.017-1.706,0a.512.512,0,0,0-.54.544c-.014.557-.017,1.114,0,1.668a.5.5,0,0,0,.537.544c.567.014,1.138.01,1.706,0a.5.5,0,0,0,.533-.54C-610.12,240.949-610.127,240.676-610.127,240.4Z" transform="translate(657.665 -185.458)" fill="#12263f"/>
        <path id="Trazado_122982" data-name="Trazado 122982" d="M-608.544,241.293a3.977,3.977,0,0,1-2.311-.393,2.968,2.968,0,0,1-1.576-2.533c-.017-.646-.017-1.292,0-1.935a3.037,3.037,0,0,1,3.025-2.967,17.256,17.256,0,0,1,2.266.062,2.975,2.975,0,0,1,2.547,2.906c.013.619.013,1.241,0,1.86a3.029,3.029,0,0,1-2.95,3C-607.874,241.307-608.209,241.3-608.544,241.293Zm1.425-3.883c0-.27.007-.544,0-.817a.542.542,0,0,0-.6-.595c-.52-.007-1.043-.01-1.562,0a.547.547,0,0,0-.615.622,8.744,8.744,0,0,1-.014,1.34c-.092.567.232.838.8.838.482,0,.967-.017,1.449-.041a.514.514,0,0,0,.55-.564C-607.112,237.933-607.119,237.673-607.119,237.41Z" transform="translate(664.936 -192.666)" fill="#12263f"/>
      </g>
      <g id="lWWqn9.tif" transform="translate(-511.436 356.698)">
        <g id="Grupo_56632" data-name="Grupo 56632">
          <path id="Trazado_122983" data-name="Trazado 122983" d="M-564.586,290.2a17.076,17.076,0,0,1-2.861-1.08,6.79,6.79,0,0,1-3.517-6.573,6.83,6.83,0,0,1,4.454-6.269,6.962,6.962,0,0,1,7.585,1.292c.184.157.362.325.574.513l11.277-6.508a7.533,7.533,0,0,1-.154-4.126.5.5,0,0,0-.192-.431c-1.063-.612-2.14-1.2-3.206-1.791a16.288,16.288,0,0,1-26.307-.1c-1.063.6-2.143,1.186-3.2,1.815a.654.654,0,0,0-.147.561,6.931,6.931,0,0,1-.048,3.586c-.126.424.055.6.383.786q3.59,2.051,7.165,4.122c.25.144.5.3.81.485l-1.5,2.584-8.508-4.9a7.508,7.508,0,0,1-3.75,2.154,7.261,7.261,0,0,1-8.563-5.148,7.2,7.2,0,0,1,4.755-8.768c.643-.2.752-.485.748-1.073q-.036-5.481,0-10.963a.719.719,0,0,0-.6-.841,7.234,7.234,0,0,1-5.155-7.144,7.209,7.209,0,0,1,5.736-6.83A6.992,6.992,0,0,1-582.744,237c.174.14.342.287.557.465l5.289-3.049c1.921-1.107,3.835-2.229,5.77-3.316a.64.64,0,0,0,.356-.851,7.213,7.213,0,0,1,5.654-8.785,7.209,7.209,0,0,1,8.546,6.331,9.851,9.851,0,0,1-.171,2.465c-.055.386-.038.608.328.817q5.363,3.076,10.706,6.184a.549.549,0,0,0,.752-.082,6.9,6.9,0,0,1,7.78-1.1A6.8,6.8,0,0,1-533,242.793a6.8,6.8,0,0,1-4.382,6.45,6.944,6.944,0,0,1-7.6-1.21c-.222-.185-.427-.39-.67-.615l-3.309,1.877a16.852,16.852,0,0,1,1.326,6.693,16.606,16.606,0,0,1-1.511,6.608l3.459,1.921a7.612,7.612,0,0,1,3.972-2.345V252.091h3v3.982c0,1.839.01,3.678-.013,5.517a.648.648,0,0,0,.554.745,7.2,7.2,0,0,1,5.175,7.51,7.205,7.205,0,0,1-6.057,6.539,6.979,6.979,0,0,1-5.883-1.661c-.205-.171-.4-.356-.622-.557q-3.589,2.077-7.161,4.136c-1.221.708-2.437,1.422-3.671,2.109a.613.613,0,0,0-.359.8,7.184,7.184,0,0,1-5.791,8.857,1.5,1.5,0,0,0-.294.133Zm-12.751-43.184c3.282-4.676,7.691-7.291,13.386-7.363s10.159,2.444,13.54,7c1.008-.564,1.993-1.094,2.943-1.678a.746.746,0,0,0,.222-.649,6.991,6.991,0,0,1,.137-3.842.534.534,0,0,0-.294-.749c-1.138-.629-2.256-1.289-3.381-1.938q-3.774-2.184-7.544-4.358a7.424,7.424,0,0,1-10.86,0q-5.507,3.179-11.027,6.385a.6.6,0,0,0-.205.526,7.469,7.469,0,0,1-.014,4.56.552.552,0,0,0,.171.485C-579.3,245.951-578.317,246.478-577.336,247.014Zm-1.381,2.68c-1.1-.605-2.171-1.21-3.258-1.774-.133-.065-.393.048-.564.137-.943.492-1.883.991-2.806,1.518-.192.109-.441.352-.441.533q-.036,5.809,0,11.622a.674.674,0,0,0,.355.513,8.073,8.073,0,0,1,3.323,1.962.518.518,0,0,0,.451.113c1.094-.591,2.171-1.213,3.241-1.819A16.2,16.2,0,0,1-578.717,249.694Zm19.228,6.156c-.075-1.19-.137-2.441-.246-3.688-.014-.164-.274-.438-.421-.438q-3.589-.041-7.175,0a.677.677,0,0,0-.461.482c-.034,2.345-.024,4.693-.027,7.042,0,.386.167.564.571.564q3.487-.015,6.973,0c.383,0,.554-.137.574-.547C-559.657,258.148-559.568,257.033-559.489,255.851Zm-32.033-13.239a4.243,4.243,0,0,0,4.221,4.239,4.241,4.241,0,0,0,4.218-4.242,4.231,4.231,0,0,0-4.222-4.232A4.233,4.233,0,0,0-591.522,242.612ZM-536,242.6a4.207,4.207,0,0,0-4.29-4.222,4.214,4.214,0,0,0-4.139,4.3,4.221,4.221,0,0,0,4.287,4.16A4.222,4.222,0,0,0-536,242.6Zm0,26.666a4.216,4.216,0,0,0-4.2-4.246,4.227,4.227,0,0,0-4.228,4.153,4.224,4.224,0,0,0,4.2,4.314A4.225,4.225,0,0,0-536,269.271Zm-47.09.082a4.235,4.235,0,0,0-4.123-4.331,4.242,4.242,0,0,0-4.314,4.071A4.252,4.252,0,0,0-587.4,273.5,4.252,4.252,0,0,0-583.086,269.353Zm19.368-45a4.176,4.176,0,0,0-4.256,4.174,4.184,4.184,0,0,0,4.245,4.249,4.18,4.18,0,0,0,4.187-4.174A4.175,4.175,0,0,0-563.718,224.354Zm-.068,62.8a4.2,4.2,0,0,0,4.249-4.184,4.2,4.2,0,0,0-4.126-4.246,4.2,4.2,0,0,0-4.314,4.187A4.191,4.191,0,0,0-563.786,287.156Zm7.2-28.044a11.759,11.759,0,0,0,5.179-2.13c.991-.861,1.053-1.668-.021-2.43a18.068,18.068,0,0,0-3.066-1.617,16.565,16.565,0,0,0-2.092-.643Zm-3.736-10.539a12.88,12.88,0,0,0-2.123-5.063c-.885-1.138-1.829-1.2-2.588.017a30.856,30.856,0,0,0-1.853,3.914,7.242,7.242,0,0,0-.3,1.131Zm.01,14.357H-567.2a12.4,12.4,0,0,0,2.284,5.23c.807.947,1.549.926,2.345-.027A12.709,12.709,0,0,0-560.316,262.93Zm-10.628-3.74v-6.874c-.455.12-.868.205-1.268.335a10.579,10.579,0,0,0-4,1.979c-.855.769-.879,1.463-.031,2.212A12.173,12.173,0,0,0-570.944,259.19Zm12.282-15.509a1.623,1.623,0,0,0,0,.3c.489,1.6.971,3.206,1.491,4.8a.85.85,0,0,0,.509.407c1.528.5,3.066.967,4.6,1.446.109.034.226.055.417.1A13.253,13.253,0,0,0-558.662,243.682Zm.021,24.068c2.731-.844,6.18-4.324,6.885-6.891a39.838,39.838,0,0,1-3.921,1.186,1.9,1.9,0,0,0-1.788,1.767A32.1,32.1,0,0,1-558.642,267.75Zm-17.167-17.136c1.726-.489,3.4-.95,5.066-1.449a.789.789,0,0,0,.41-.489c.373-1.217.7-2.447,1.067-3.664.13-.434.328-.851.544-1.391A13.207,13.207,0,0,0-575.808,250.614Zm-.01,10.282A13.124,13.124,0,0,0-568.9,267.8c-.485-1.726-.964-3.439-1.46-5.145a.592.592,0,0,0-.356-.321C-572.387,261.857-574.065,261.388-575.819,260.9Z" transform="translate(594.547 -221.35)" fill="#12263f"/>
        </g>
      </g>
      <g id="jmGXMg.tif" transform="translate(-411.575 357.244)">
        <g id="Grupo_56633" data-name="Grupo 56633">
          <path id="Trazado_122984" data-name="Trazado 122984" d="M-520.19,267.121l3.545,3.319c4.823-2.5,9.209-1.706,11.892,2.133a8.435,8.435,0,0,1-1.3,11.079,8.455,8.455,0,0,1-11.1.209A8.536,8.536,0,0,1-518.3,272l-3.538-3.323c-6.057,4.092-12.046,4.092-18.107.021l-3.709,3.47a30.131,30.131,0,0,1,1.316,3.887,8.3,8.3,0,0,1-4.228,8.734,8.475,8.475,0,0,1-9.554-.964,8.428,8.428,0,0,1-2.338-9.725,8.479,8.479,0,0,1,8.515-5.162,8.483,8.483,0,0,1,4.071,1.446c.178.12.578.181.7.075,1.21-1.077,2.379-2.194,3.579-3.316a14.857,14.857,0,0,1-3.244-14.791c-1.542-.5-3.046-1.012-4.57-1.46-.15-.044-.462.229-.612.42a8.346,8.346,0,0,1-6.977,3.473,8.459,8.459,0,0,1-8.118-6.59,8.419,8.419,0,0,1,4.314-9.335,8.031,8.031,0,0,1,9.13.827,8.106,8.106,0,0,1,3.039,8.6c-.021.089-.034.181-.048.277a1.107,1.107,0,0,0,.014.154l4.731,1.545a14.914,14.914,0,0,1,11.872-7.859v-4a8.53,8.53,0,0,1-7.233-9.493,8.412,8.412,0,0,1,8.635-7.4,8.444,8.444,0,0,1,8.173,7.52,8.534,8.534,0,0,1-7.25,9.359V242.4a15.231,15.231,0,0,1,6.984,2.461,14.99,14.99,0,0,1,4.95,5.582l4.676-1.514c-.1-.879-.25-1.706-.26-2.536a8.47,8.47,0,0,1,7.63-8.5,8.5,8.5,0,0,1,9.137,6.953A8.448,8.448,0,0,1-501.6,254.1a8.381,8.381,0,0,1-10.043-2.636.762.762,0,0,0-1.036-.321c-1.391.489-2.8.93-4.225,1.4A14.85,14.85,0,0,1-520.19,267.121Zm1.709-10.1a12.469,12.469,0,0,0-12.549-12.381A12.473,12.473,0,0,0-543.321,257.2a12.477,12.477,0,0,0,12.583,12.275A12.483,12.483,0,0,0-518.481,257.017Zm-12.391-33.257a6.239,6.239,0,0,0-6.235,6.214,6.257,6.257,0,0,0,6.177,6.208,6.266,6.266,0,0,0,6.242-6.221A6.254,6.254,0,0,0-530.872,223.76Zm19.72,22.547a6.258,6.258,0,0,0,6.163,6.242,6.266,6.266,0,0,0,6.256-6.153,6.254,6.254,0,0,0-6.132-6.269A6.241,6.241,0,0,0-511.152,246.307Zm-39.5.051a6.249,6.249,0,0,0-6.166-6.235,6.259,6.259,0,0,0-6.252,6.153,6.264,6.264,0,0,0,6.136,6.269A6.246,6.246,0,0,0-550.65,246.358Zm.007,24.807a6.268,6.268,0,0,0-6.218,6.119,6.255,6.255,0,0,0,6.17,6.3,6.272,6.272,0,0,0,6.252-6.153A6.253,6.253,0,0,0-550.643,271.165Zm38.917,12.422a6.248,6.248,0,0,0,6.218-6.252,6.259,6.259,0,0,0-6.232-6.173,6.262,6.262,0,0,0-6.187,6.221A6.261,6.261,0,0,0-511.726,283.587Z" transform="translate(565.333 -221.51)" fill="#12263f"/>
          <path id="Trazado_122985" data-name="Trazado 122985" d="M-543.9,230.382l1.552,1.589-9.462,9.465-5.473-5.5,1.525-1.408,3.818,3.9Z" transform="translate(584.812 -200.054)" fill="#12263f"/>
          <path id="Trazado_122986" data-name="Trazado 122986" d="M-548.53,226.789a3.929,3.929,0,0,1-3.945,3.924,3.927,3.927,0,0,1-3.938-3.924,3.922,3.922,0,0,1,3.976-3.958A3.926,3.926,0,0,1-548.53,226.789Zm-3.979,1.678a1.751,1.751,0,0,0,1.73-1.678,1.749,1.749,0,0,0-1.7-1.713,1.748,1.748,0,0,0-1.692,1.641A1.754,1.754,0,0,0-552.509,228.468Z" transform="translate(586.906 -218.315)" fill="#12263f"/>
          <path id="Trazado_122987" data-name="Trazado 122987" d="M-544.882,227.619a3.926,3.926,0,0,1,3.945,3.921,3.928,3.928,0,0,1-3.9,3.962,3.931,3.931,0,0,1-3.979-3.887A3.926,3.926,0,0,1-544.882,227.619Zm1.7,3.931a1.746,1.746,0,0,0-1.719-1.685,1.746,1.746,0,0,0-1.668,1.668,1.748,1.748,0,0,0,1.682,1.723A1.754,1.754,0,0,0-543.187,231.55Z" transform="translate(605.268 -206.736)" fill="#12263f"/>
          <path id="Trazado_122988" data-name="Trazado 122988" d="M-560.013,227.619a3.924,3.924,0,0,1,3.887,3.979,3.925,3.925,0,0,1-4.03,3.9,3.931,3.931,0,0,1-3.849-4.013A3.924,3.924,0,0,1-560.013,227.619Zm-.051,2.246a1.754,1.754,0,0,0-1.7,1.713,1.746,1.746,0,0,0,1.726,1.678,1.746,1.746,0,0,0,1.661-1.675A1.747,1.747,0,0,0-560.065,229.865Z" transform="translate(568.543 -206.736)" fill="#12263f"/>
          <path id="Trazado_122989" data-name="Trazado 122989" d="M-554.308,240.679a3.921,3.921,0,0,1-3.959,3.9,3.927,3.927,0,0,1-3.924-4.013,3.92,3.92,0,0,1,4-3.87A3.929,3.929,0,0,1-554.308,240.679Zm-2.249-.048a1.746,1.746,0,0,0-1.719-1.685,1.743,1.743,0,0,0-1.665,1.668,1.748,1.748,0,0,0,1.682,1.723A1.742,1.742,0,0,0-556.558,240.631Z" transform="translate(572.933 -184.775)" fill="#12263f"/>
          <path id="Trazado_122990" data-name="Trazado 122990" d="M-546.877,244.583a3.928,3.928,0,0,1-3.924-3.941,3.925,3.925,0,0,1,3.921-3.941,3.924,3.924,0,0,1,3.962,3.9A3.929,3.929,0,0,1-546.877,244.583Zm1.709-3.911a1.744,1.744,0,0,0-1.678-1.726,1.751,1.751,0,0,0-1.706,1.7,1.746,1.746,0,0,0,1.648,1.689A1.743,1.743,0,0,0-545.168,240.672Z" transform="translate(600.478 -184.775)" fill="#12263f"/>
        </g>
      </g>
      <g id="fdJcr5.tif" transform="translate(-310.552 361.121)">
        <g id="Grupo_56634" data-name="Grupo 56634">
          <path id="Trazado_122991" data-name="Trazado 122991" d="M-463.072,264.341h-7.2c-.29,1.111-.54,2.171-.851,3.206a27.667,27.667,0,0,1-3.494,7.5.84.84,0,0,0,.116,1.3c1.538,1.473,3.029,2.994,4.451,4.406l-7.592,7.6-4.892-5.076a30.685,30.685,0,0,1-11.516,4.823v7.24h-10.72V288.1a30.568,30.568,0,0,1-11.424-4.741l-5.056,5.124-7.558-7.616,5.069-5.008a30.6,30.6,0,0,1-4.779-11.489h-7.264V253.635h7.131a50.658,50.658,0,0,1,1.528-4.929c.834-1.979,1.873-3.88,2.9-5.774.294-.547.355-.841-.133-1.3-1.549-1.46-3.046-2.977-4.468-4.379l7.582-7.6,4.919,5.049a30.749,30.749,0,0,1,11.52-4.827v-7.233h10.723v7.233a30.323,30.323,0,0,1,11.417,4.741l5.073-5.1,7.592,7.647c-1.381,1.374-2.813,2.861-4.314,4.276a1.057,1.057,0,0,0-.212,1.651,27.093,27.093,0,0,1,3.975,9.636c.137.691.417.926,1.142.909,2.092-.055,4.184-.021,6.334-.021Zm-13.694,11.6a29.237,29.237,0,0,0,5.367-12.9h7.049v-8.136h-7.062a29.133,29.133,0,0,0-5.353-12.884l4.943-4.916-5.729-5.7-4.905,4.933a29.219,29.219,0,0,0-12.907-5.384v-7.031h-8.143v7.042a29.254,29.254,0,0,0-13,5.452l-4.748-4.936-5.842,5.825,4.8,4.659c-1.132,2.147-2.359,4.126-3.237,6.249s-1.4,4.379-2.13,6.734h-6.826v8.108h7.042a29.272,29.272,0,0,0,5.391,12.928l-4.933,4.909,5.726,5.715,4.916-4.933a29.245,29.245,0,0,0,12.88,5.35v7.028h8.142v-7.042a29.477,29.477,0,0,0,13-5.445l4.748,4.946,5.732-5.732Z" transform="translate(535.78 -222.644)" fill="#12263f" stroke="#000" stroke-miterlimit="10" stroke-width="0.5"/>
          <path id="Trazado_122992" data-name="Trazado 122992" d="M-491.478,245.444c0,2.741,0,5.483,0,8.224,0,1.73-.585,2.331-2.277,2.345-1.248.014-2.615-.311-3.712.1-1.073.4-1.86,1.552-2.793,2.348a17,17,0,0,1-23.419-1.511,2.448,2.448,0,0,0-2.191-.947,30.315,30.315,0,0,1-3.1.007,1.773,1.773,0,0,1-1.924-1.948q-.026-8.686,0-17.368a1.8,1.8,0,0,1,2-1.976c1.186-.031,2.379.048,3.562-.034a2.1,2.1,0,0,0,1.306-.585,17.078,17.078,0,0,1,25.733.062,1.842,1.842,0,0,0,1.149.526c1.214.068,2.434.007,3.654.031a1.81,1.81,0,0,1,2.017,2.044C-491.467,239.654-491.478,242.549-491.478,245.444Zm-19.765,9.284q8.588,0,17.18,0c1.3,0,1.306-.01,1.306-1.343q.005-8.091,0-16.182c0-1.176-.031-1.207-1.255-1.207q-17.228-.005-34.457-.017c-.861,0-1.186.239-1.179,1.131q.046,8.23,0,16.456c-.007.926.311,1.19,1.221,1.183C-522.7,254.711-516.972,254.732-511.242,254.728Zm11.53-20.069c-6.707-7.486-18.315-5.931-22.824,0Zm-22.9,21.416c5.715,6.792,17.3,6.655,22.817,0Z" transform="translate(547.548 -209.019)" fill="#12263f"/>
          <path id="Trazado_122993" data-name="Trazado 122993" d="M-526.348,237.914l-1.4,1.914-1.087-1.272,1.788-1.412-.143-.28h-2.325v-1.306h2.284l.161-.256-1.863-1.261.174-.4,1.2-.7,1.183,1.579.318-.188v-2.259h1.313v2.287l.246.12L-523,232.51l.827,1.272.318.116-1.794,1.34.164.284h2.26v1.3h-2.553l1.829,1.914-1.114.636-1.6-1.531v2.5h-1.319V238.1Z" transform="translate(550.936 -199.851)" fill="#12263f"/>
          <path id="Trazado_122994" data-name="Trazado 122994" d="M-522.732,233.875l1.183-1.2,1.514,1.863.239-.161v-2.3h1.265v2.533l1.976-1.829.8.9-1.767,1.849c.8,0,1.374.017,1.952-.007.451-.017.66.126.663.622s-.147.728-.677.7a4.944,4.944,0,0,0-1.774.188l1.856,1.542-1.087.923-.215.195-1.4-1.887-.28.171v2.345h-1.275v-2.567l-1.784,2.03-.919-1.248,1.682-1.364-.154-.284H-523.2v-1.354h2.232l.089-.188Z" transform="translate(566.202 -199.839)" fill="#12263f"/>
          <path id="Trazado_122995" data-name="Trazado 122995" d="M-520.367,235.554h2.283v1.268h-2.283l-.215.3,2.085,1.347-1.285,1.111-1.354-1.808-.386.229-.1,2.314h-1.2l-.123-2.458-1.822,1.743-.879-1.159,1.678-1.378-.092-.195h-2.283v-1.343h2.492l-1.795-1.894,1.036-1.032,1.494,1.856.212-.1v-2.283h1.32v2.273l.225.137,1.3-1.832.407.126.667.926.3.219-1.829,1.4Z" transform="translate(558.587 -199.846)" fill="#12263f"/>
        </g>
      </g>
      <g id="Group_54360" data-name="Group 54360" transform="translate(-206.534 358.168)">
        <path id="Path_116867" data-name="Path 116867" d="M-447.31,256.185h2.536a1.2,1.2,0,0,1,1.255,1.152.379.379,0,0,1,0,.089c.01.8,0,1.593,0,2.389v.28h4.471a2.432,2.432,0,0,1,2.553,2.3c0,.079,0,.161,0,.239v15.437a2.431,2.431,0,0,1-2.362,2.5.884.884,0,0,1-.133,0h-1.063v3.107q-.016,2.071-.034,4.15a1.192,1.192,0,0,1-1.179,1.207h-5.876a1.184,1.184,0,0,1-1.237-1.138.648.648,0,0,1,0-.116v-2.666h-44.359c0,.1-.014.178-.014.263v2.345a1.225,1.225,0,0,1-1.135,1.309,1.457,1.457,0,0,1-.174,0h-5.7a1.21,1.21,0,0,1-1.309-1.1,1.772,1.772,0,0,1,0-.191v-7.179h-.656a10.835,10.835,0,0,1-1.822-.1,2.328,2.328,0,0,1-1.795-2.311V262.676a2.439,2.439,0,0,1,2.287-2.581c.092,0,.188,0,.28,0h4.8v-2.653a1.2,1.2,0,0,1,1.135-1.258h3.121V223.078a1.193,1.193,0,0,1,1.1-1.282,1.212,1.212,0,0,1,1.309,1.111l0,.068c.01.3,0,.612,0,.916v32.3h2.8a1.2,1.2,0,0,1,1.251,1.159v2.735h33.664c0-.085.01-.171.01-.26,0-.749.017-1.5,0-2.242a1.29,1.29,0,0,1,1.159-1.4,1.234,1.234,0,0,1,.226,0c.779.038,1.562,0,2.342,0l.082-.017V223.082a1.23,1.23,0,0,1,1.152-1.3,1.215,1.215,0,0,1,.482.068,1.279,1.279,0,0,1,.814,1.3v9.828c0,.7-.024,1.412-.031,2.116,0,.222.031.451.031.673v20.165Zm-55.582,21.952h63.953V262.556h-63.953Zm60.385,2.448h-56.1v2.1h56.1Zm-53.025-21.963v1.456h5.859v-1.456Zm49.569,0h-5.151v1.456h5.151ZM-498.619,286.6h3.422v-1.466h-3.422Zm56.1-1.463h-3.415v1.47h3.415Z" transform="translate(505.35 -221.78)" fill="#12263f"/>
        <path id="Path_116868" data-name="Path 116868" d="M-484.014,222.208a21.735,21.735,0,0,1,10.453,2.656,22.383,22.383,0,0,1,4.9,3.641,1.222,1.222,0,0,1,.181,1.719,1.225,1.225,0,0,1-.6.4,1.2,1.2,0,0,1-1.241-.332,19.5,19.5,0,0,0-3.9-3.012,19.063,19.063,0,0,0-7.035-2.458,19.378,19.378,0,0,0-16.377,5.391,1.266,1.266,0,0,1-1.511.335,1.21,1.21,0,0,1-.561-1.617,1.292,1.292,0,0,1,.243-.335,21.1,21.1,0,0,1,2.851-2.41,21.484,21.484,0,0,1,7.138-3.306A21.669,21.669,0,0,1-484.014,222.208Z" transform="translate(518.695 -220.746)" fill="#12263f"/>
        <path id="Path_116869" data-name="Path 116869" d="M-486.608,224.2a17.393,17.393,0,0,1,7.753,1.747,17.258,17.258,0,0,1,4.526,3.21,1.222,1.222,0,0,1,.092,1.726l-.062.065a1.239,1.239,0,0,1-1.754-.068h0a14.7,14.7,0,0,0-20.681,0,1.221,1.221,0,0,1-1.723.075,1.221,1.221,0,0,1-.075-1.723.7.7,0,0,1,.1-.1,17.125,17.125,0,0,1,3.757-2.806,16.793,16.793,0,0,1,7.042-2.075C-487.231,224.221-486.827,224.2-486.608,224.2Z" transform="translate(521.066 -215.929)" fill="#12263f"/>
        <path id="Path_116870" data-name="Path 116870" d="M-479.672,232.085a1.213,1.213,0,0,1-.865-.362,10.941,10.941,0,0,0-15.352-.082,1.272,1.272,0,0,1-1.426.359,1.19,1.19,0,0,1-.687-1.538,1.215,1.215,0,0,1,.318-.465,18.16,18.16,0,0,1,2.075-1.685,12.667,12.667,0,0,1,6.505-2.184,13.132,13.132,0,0,1,9.558,3.2c.253.212.5.438.728.667a1.225,1.225,0,0,1,.26,1.381A1.178,1.178,0,0,1-479.672,232.085Z" transform="translate(522.932 -211.347)" fill="#12263f"/>
        <path id="Path_116876" data-name="Path 116876" d="M-477.832,244.761H-497.9a1.228,1.228,0,0,1-1.313-.906,1.55,1.55,0,0,1-.038-.356v-6.662c0-.475.01-.947.02-1.422a1.174,1.174,0,0,1,1.056-1.019l37.9-.021h2.454a1.266,1.266,0,0,1,1.412,1.1,1.19,1.19,0,0,1,0,.311v7.582a1.247,1.247,0,0,1-1.084,1.391,1.241,1.241,0,0,1-.3,0h-20.042Zm18.982-7.941h-37.964v5.493h37.964Z" transform="translate(520.108 -191.344)" fill="#12263f"/>
        <path id="Path_116877" data-name="Path 116877" d="M-498.336,239.564v3.911a1.231,1.231,0,0,1-1.176,1.285h-.044a1.218,1.218,0,0,1-1.2-1.231l0-.041c0-1.135.014-2.27.014-3.4,0-1.48-.014-2.96-.014-4.44a1.208,1.208,0,0,1,1.145-1.275,1.21,1.21,0,0,1,1.275,1.145,1,1,0,0,1,0,.144c0,.978-.01,1.959-.017,2.94v.964Z" transform="translate(516.451 -191.343)" fill="#12263f"/>
        <path id="Path_116878" data-name="Path 116878" d="M-499.524,239.572V243.5a1.21,1.21,0,0,1-1.179,1.241,1.215,1.215,0,0,1-1.241-1.183h0V235.62a1.213,1.213,0,0,1,1.166-1.254,1.212,1.212,0,0,1,1.258,1.166v.079C-499.511,236.933-499.524,238.252-499.524,239.572Z" transform="translate(513.585 -191.347)" fill="#12263f"/>
        <path id="Path_116880" data-name="Path 116880" d="M-493.825,235.524a5.937,5.937,0,0,1,.954.1,1.179,1.179,0,0,1,.834,1.278,1.2,1.2,0,0,1-1.125,1.066c-.465.02-.93.024-1.395,0a1.178,1.178,0,0,1-1.1-1.251v0a1.189,1.189,0,0,1,1.159-1.155h.674Z" transform="translate(528.785 -188.544)" fill="#12263f"/>
        <path id="Path_116881" data-name="Path 116881" d="M-490.291,235.527a6.2,6.2,0,0,1,.906.075,1.187,1.187,0,0,1,.892,1.289,1.2,1.2,0,0,1-1.145,1.073,8.75,8.75,0,0,1-1.583-.055,1.129,1.129,0,0,1-.892-1.309,1.206,1.206,0,0,1,1.162-1.046h.653Z" transform="translate(537.318 -188.536)" fill="#12263f"/>
        <path id="Path_116882" data-name="Path 116882" d="M-495.623,237.954c-.215,0-.434.01-.65,0a1.21,1.21,0,0,1-1.148-1.272,1.206,1.206,0,0,1,1.207-1.149h1.179a1.211,1.211,0,0,1,1.217,1.207,1.21,1.21,0,0,1-1.152,1.21c-.219.014-.438,0-.653,0Z" transform="translate(524.522 -188.52)" fill="#12263f"/>
        <path id="Path_116883" data-name="Path 116883" d="M-492.062,235.534h.6a1.218,1.218,0,0,1,1.2,1.145,1.2,1.2,0,0,1-1.077,1.261,10.241,10.241,0,0,1-1.518,0,1.185,1.185,0,0,1-1.043-1.237,1.21,1.21,0,0,1,1.159-1.166h.673Z" transform="translate(533.052 -188.52)" fill="#12263f"/>
        <path id="Path_116884" data-name="Path 116884" d="M-488.557,235.527a6.577,6.577,0,0,1,.933.075,1.2,1.2,0,0,1,.889,1.166,1.189,1.189,0,0,1-1.138,1.176c-.434.021-.861.031-1.292.021a1.21,1.21,0,0,1-1.2-1.224,1.213,1.213,0,0,1,1.227-1.2h.581Z" transform="translate(541.597 -188.536)" fill="#12263f"/>
      </g>
      <g id="sG6ua8.tif" transform="translate(-105.71 367.381)">
        <g id="Grupo_56635" data-name="Grupo 56635">
          <path id="Trazado_122996" data-name="Trazado 122996" d="M-458.505,253.978V226.532c0-1.637.424-2.054,2.082-2.054q7.471-.005,14.938,0c1.511,0,2,.485,2,2q.005,27.442,0,54.888c0,1.535-.455,1.993-1.983,1.993h-15.1c-1.5,0-1.931-.434-1.931-1.935Zm3.182-7.3a1.658,1.658,0,0,0-.814.085,1.083,1.083,0,0,0-.52.721c0,.246.294.547.537.711a1.452,1.452,0,0,0,.732.072q3.163.005,6.327,0h2.417c1.415,0,2.83-.007,4.246,0,.554,0,1.063-.133,1.08-.766.02-.694-.52-.834-1.1-.827h-.25m-12.911-2.779c-.564,0-1.121.055-1.1.793.017.718.567.779,1.135.779,2.164-.007,4.328,0,6.495,0,2.191,0,4.382-.007,6.577,0,.578,0,1.128-.1,1.155-.773.031-.708-.523-.8-1.1-.8m-6.638,7.158q2.164,0,4.328,0a22.307,22.307,0,0,0,2.577-.038c.308-.038.571-.458.855-.7a7.174,7.174,0,0,0-.872-.807c-.154-.1-.434-.02-.656-.02h-11.9a3.811,3.811,0,0,0-1.238.044c-.294.106-.667.489-.67.749s.4.55.68.742c.154.106.431.034.653.034m6.252-8.4c2.195,0,4.386-.007,6.58.007.578,0,1.131-.079,1.155-.766s-.513-.8-1.1-.8q-6.579.015-13.157,0c-.574,0-1.118.062-1.1.79s.564.773,1.135.769m-.331-12.056c-.267,0-.53.232-.793.355.26.126.52.359.779.362,2.28.027,4.56.017,6.84.017,2.311,0,4.618.01,6.925-.017.27,0,.537-.229.807-.352-.267-.127-.53-.362-.793-.362m-13.776-2.324c-.263,0-.523.239-.783.366.263.123.526.352.793.352q6.881.036,13.762,0c.267,0,.53-.239.793-.366-.267-.123-.533-.352-.8-.356-2.28-.027-4.56-.014-6.84-.014m-.014,44.582a1.744,1.744,0,0,0,1.7-1.713,1.734,1.734,0,0,0-1.75-1.74,1.735,1.735,0,0,0-1.7,1.713A1.73,1.73,0,0,0-448.982,272.84Zm.113,2.827-.393.021a3.139,3.139,0,0,0-.55,1.012.665.665,0,0,0,.838.762,1.232,1.232,0,0,0,.766-.858C-448.185,276.31-448.629,275.982-448.869,275.667Z" transform="translate(517.813 -224.475)" fill="#12263f"/>
          <path id="Trazado_122997" data-name="Trazado 122997" d="M-452.409,266.289v-4.1h-1.012q-9.717,0-19.436,0c-1.839,0-2.379-.543-2.379-2.389V226.862c0-1.808.584-2.386,2.4-2.386H-423.7c1.832,0,2.369.54,2.369,2.4v32.939c0,1.863-.513,2.379-2.365,2.379q-9.681.005-19.355,0h-1.063v4.1c.991,0,2.006-.041,3.022.01a2.359,2.359,0,0,1,2.342,2.512h-19.067a2.4,2.4,0,0,1,2.359-2.512C-454.467,266.248-453.469,266.289-452.409,266.289Zm4.16-40.23H-472.28c-1.272,0-1.378.106-1.378,1.388v28.7c0,1.275.109,1.381,1.381,1.381h47.983c1.3,0,1.436-.133,1.436-1.429V227.484c0-1.3-.13-1.425-1.439-1.425Zm23.426,33.606c-.427-.284-.694-.588-.872-.544-.246.062-.427.383-.636.595.2.195.4.544.605.544C-425.49,260.262-425.251,259.962-424.824,259.664Z" transform="translate(477.35 -224.473)" fill="#12263f"/>
          <path id="Trazado_122998" data-name="Trazado 122998" d="M-475.84,249.647c.106-.26.181-.489.287-.7,1.658-3.425,3.329-6.84,4.98-10.269a.956.956,0,0,1,1-.649q22.771.026,45.549.031a1.1,1.1,0,0,1,.841.434c1.829,3.678,3.617,7.377,5.456,11.157Zm2.119-1.087h53.695c0-.1.027-.161.007-.2-1.425-2.95-2.841-5.9-4.3-8.836a1.043,1.043,0,0,0-.8-.386q-21.684-.031-43.375-.027a.9.9,0,0,0-.947.608c-.557,1.207-1.152,2.4-1.736,3.6C-472,245.033-472.839,246.745-473.721,248.56Z" transform="translate(475.891 -191.708)" fill="#12263f"/>
          <path id="Trazado_122999" data-name="Trazado 122999" d="M-475.855,242.366v-.779h58.122l.058.779Z" transform="translate(475.855 -183.094)" fill="#12263f"/>
          <path id="Trazado_123000" data-name="Trazado 123000" d="M-471.9,241.709c.027-.848.42-1.049,1.176-1.049q14.418.041,28.833,0c.756,0,1.159.185,1.138,1.046Z" transform="translate(485.41 -185.335)" fill="#12263f"/>
          <path id="Trazado_123001" data-name="Trazado 123001" d="M-466.384,239.588a9.215,9.215,0,0,1,1.87.041c.263.055.434.547.649.841l-.185.229h-1.466C-466.511,240.7-466.514,240.689-466.384,239.588Z" transform="translate(498.615 -187.996)" fill="#12263f"/>
          <path id="Trazado_123002" data-name="Trazado 123002" d="M-466.449,240.049l-.055-1.012h2.355l.143,1.012Z" transform="translate(498.469 -189.26)" fill="#12263f"/>
          <path id="Trazado_123003" data-name="Trazado 123003" d="M-465.369,239.583V240.6h-2.318v-1.015Z" transform="translate(495.608 -187.94)" fill="#12263f"/>
          <path id="Trazado_123004" data-name="Trazado 123004" d="M-465.381,240.067h-2.3v-1.032h2.3Z" transform="translate(495.613 -189.265)" fill="#12263f"/>
          <path id="Trazado_123005" data-name="Trazado 123005" d="M-465.37,238.492v1.032h-2.314v-1.032Z" transform="translate(495.615 -190.578)" fill="#12263f"/>
          <path id="Trazado_123006" data-name="Trazado 123006" d="M-466.472,239.506l-.085-1h2.341l.164,1Z" transform="translate(498.341 -190.557)" fill="#12263f"/>
          <path id="Trazado_123007" data-name="Trazado 123007" d="M-465.287,238.5a8.606,8.606,0,0,1,1.88.041c.314.072.53.557.79.858l-.184.219a8.635,8.635,0,0,1-1.884-.041c-.311-.072-.526-.557-.783-.855Z" transform="translate(500.974 -190.628)" fill="#12263f"/>
          <path id="Trazado_123008" data-name="Trazado 123008" d="M-461.574,239.623a8.319,8.319,0,0,1-1.894-.041c-.328-.079-.554-.567-.827-.872l.181-.205a8.513,8.513,0,0,1,1.894.041c.321.075.55.567.82.868Z" transform="translate(503.811 -190.629)" fill="#12263f"/>
          <path id="Trazado_123009" data-name="Trazado 123009" d="M-460.352,239.645a8.683,8.683,0,0,1-1.89-.038c-.342-.079-.595-.537-.981-.913C-461.117,238.23-460.6,238.418-460.352,239.645Z" transform="translate(506.403 -190.651)" fill="#12263f"/>
          <path id="Trazado_123010" data-name="Trazado 123010" d="M-462.012,238.557c2.7-.15,2.29-.209,2.653.981C-462.046,239.692-461.653,239.747-462.012,238.557Z" transform="translate(509.332 -190.613)" fill="#12263f"/>
          <path id="Trazado_123011" data-name="Trazado 123011" d="M-473.727,240.144c.393-1.2.766-1.323,2.687-.974C-471.379,240.356-471.379,240.356-473.727,240.144Z" transform="translate(481.001 -189.349)" fill="#12263f"/>
          <path id="Trazado_123012" data-name="Trazado 123012" d="M-463.759,239.592a8.363,8.363,0,0,1,1.877.041c.318.075.544.557.81.858l-.174.209a9.378,9.378,0,0,1-1.887-.034c-.311-.068-.54-.516-.807-.793Z" transform="translate(504.669 -188)" fill="#12263f"/>
          <path id="Trazado_123013" data-name="Trazado 123013" d="M-464.91,240.672l-.229-.885c1.576-.5,2.372-.236,2.584.885Z" transform="translate(501.77 -188.031)" fill="#12263f"/>
          <path id="Trazado_123014" data-name="Trazado 123014" d="M-470.07,239.74c-.383,1.138-.605,1.214-2.646.92C-472.487,239.5-472.036,239.344-470.07,239.74Z" transform="translate(483.446 -188.032)" fill="#12263f"/>
          <path id="Trazado_123015" data-name="Trazado 123015" d="M-466.464,239.04l-.133,1.015h-2.287V239.04Z" transform="translate(492.713 -189.253)" fill="#12263f"/>
          <path id="Trazado_123016" data-name="Trazado 123016" d="M-468.854,239.493l.085-1h2.407l-.116,1Z" transform="translate(492.786 -190.571)" fill="#12263f"/>
          <path id="Trazado_123017" data-name="Trazado 123017" d="M-462.4,240.11c-.465.031-.629.051-.793.055-.578,0-1.155,0-1.8,0l-.308-1.118a9.255,9.255,0,0,1,1.993.041C-462.992,239.163-462.78,239.659-462.4,240.11Z" transform="translate(501.383 -189.318)" fill="#12263f"/>
          <path id="Trazado_123018" data-name="Trazado 123018" d="M-468.606,238.5c-.3,1.234.215,1.2-2.577,1.06-.031-.776.25-1.179,1.1-1.07A12.342,12.342,0,0,0-468.606,238.5Z" transform="translate(487.147 -190.625)" fill="#12263f"/>
          <path id="Trazado_123019" data-name="Trazado 123019" d="M-460.362,240.159c-2.314.212-2.314.212-2.574-.92C-461.333,238.73-460.54,239.013-460.362,240.159Z" transform="translate(507.097 -189.36)" fill="#12263f"/>
          <path id="Trazado_123020" data-name="Trazado 123020" d="M-459.083,240.127c-2.683.154-2.321.209-2.663-.967C-459.671,238.839-459.422,238.927-459.083,240.127Z" transform="translate(509.975 -189.349)" fill="#12263f"/>
          <path id="Trazado_123021" data-name="Trazado 123021" d="M-467.472,238.5c.024.923-.355,1.241-1.169,1.128a10.613,10.613,0,0,0-1.364-.01c0-.732.123-1.234,1-1.128A13.385,13.385,0,0,0-467.472,238.5Z" transform="translate(490.002 -190.622)" fill="#12263f"/>
          <path id="Trazado_123022" data-name="Trazado 123022" d="M-473.991,240.683c.376-1.2.67-1.3,2.656-.978C-471.585,240.857-471.605,240.864-473.991,240.683Z" transform="translate(480.363 -188.028)" fill="#12263f"/>
          <path id="Trazado_123023" data-name="Trazado 123023" d="M-470.151,240.163c-.031-.882.284-1.234,1.09-1.131a10.9,10.9,0,0,0,1.422.014c.051.844-.226,1.237-1.08,1.128A11.732,11.732,0,0,0-470.151,240.163Z" transform="translate(489.645 -189.316)" fill="#12263f"/>
          <path id="Trazado_123024" data-name="Trazado 123024" d="M-471.538,240.7c-.038-.885.328-1.22,1.145-1.121a11.824,11.824,0,0,0,1.395.01c0,.827-.25,1.234-1.073,1.121A11.66,11.66,0,0,0-471.538,240.7Z" transform="translate(486.288 -187.995)" fill="#12263f"/>
          <path id="Trazado_123025" data-name="Trazado 123025" d="M-472.3,239.618c.02-.872.369-1.231,1.183-1.128a11.449,11.449,0,0,0,1.415.01c-.034.807-.3,1.241-1.152,1.128A11.91,11.91,0,0,0-472.3,239.618Z" transform="translate(484.45 -190.624)" fill="#12263f"/>
          <path id="Trazado_123026" data-name="Trazado 123026" d="M-473.463,239.651c.369-1.272.595-1.354,2.724-1.032-.147.684-.407,1.159-1.248,1.046A11.16,11.16,0,0,0-473.463,239.651Z" transform="translate(481.64 -190.657)" fill="#12263f"/>
          <path id="Trazado_123027" data-name="Trazado 123027" d="M-471.377,240.147c.28-1.217-.215-1.2,2.581-1.063.014.759-.232,1.193-1.1,1.073A11.722,11.722,0,0,0-471.377,240.147Z" transform="translate(486.684 -189.3)" fill="#12263f"/>
          <path id="Trazado_123028" data-name="Trazado 123028" d="M-472.515,240.146c.3-1.227-.1-1.193,2.622-1.063-.014.827-.4,1.179-1.237,1.073A11.6,11.6,0,0,0-472.515,240.146Z" transform="translate(483.932 -189.299)" fill="#12263f"/>
          <path id="Trazado_123029" data-name="Trazado 123029" d="M-462.739,239.709c2.15-.332,2.434-.226,2.595.957C-462.267,240.937-462.411,240.885-462.739,239.709Z" transform="translate(507.574 -188.029)" fill="#12263f"/>
          <path id="Trazado_123030" data-name="Trazado 123030" d="M-458.836,240.652c-1.942.332-2.284.219-2.649-.885C-459.855,239.3-459.1,239.551-458.836,240.652Z" transform="translate(510.606 -188.038)" fill="#12263f"/>
          <path id="Trazado_123031" data-name="Trazado 123031" d="M-462.208,240.687a9.807,9.807,0,0,1,1.955.041c.3.062.516.547.773.838l-.137.219a9.545,9.545,0,0,1-1.955-.041c-.308-.068-.526-.557-.783-.858Z" transform="translate(508.502 -185.342)" fill="#12263f"/>
          <path id="Trazado_123032" data-name="Trazado 123032" d="M-461.494,240.2a12.084,12.084,0,0,0-1.456.01c-.776.1-1.125-.215-1.114-.978C-462.52,238.745-461.734,239.008-461.494,240.2Z" transform="translate(504.367 -189.351)" fill="#12263f"/>
          <path id="Trazado_123033" data-name="Trazado 123033" d="M-467.723,239.587c-.273,1.258-.485,1.33-2.57,1.039-.055-.8.291-1.149,1.114-1.049A12.774,12.774,0,0,0-467.723,239.587Z" transform="translate(489.292 -187.995)" fill="#12263f"/>
          <path id="Trazado_123034" data-name="Trazado 123034" d="M-458.259,241.758c-2.215.243-2.28.222-2.694-.9C-459.384,240.4-458.608,240.647-458.259,241.758Z" transform="translate(511.893 -185.377)" fill="#12263f"/>
          <path id="Trazado_123035" data-name="Trazado 123035" d="M-470.508,240.683c-.321,1.237-.6,1.333-2.625,1.019.01-.779.359-1.125,1.169-1.029A12.063,12.063,0,0,0-470.508,240.683Z" transform="translate(482.438 -185.342)" fill="#12263f"/>
          <path id="Trazado_123036" data-name="Trazado 123036" d="M-471.879,240.819c-.294,1.114-.81,1.289-2.639.9C-474.183,240.6-473.79,240.46-471.879,240.819Z" transform="translate(479.088 -185.378)" fill="#12263f"/>
          <path id="Trazado_123037" data-name="Trazado 123037" d="M-468.936,239.584h2.413l-.13,1.022h-2.283Z" transform="translate(492.587 -187.938)" fill="#12263f"/>
          <path id="Trazado_123038" data-name="Trazado 123038" d="M-466.294,241.151l-.113-1.012a11.874,11.874,0,0,1,2.017.038c.239.041.4.513.738.974Z" transform="translate(498.703 -186.654)" fill="#12263f"/>
          <path id="Trazado_123039" data-name="Trazado 123039" d="M-467.683,240.188a3.369,3.369,0,0,1,.41-.065c.6-.007,1.207,0,1.87,0v1.025c-.14.017-.27.048-.4.051-.6,0-1.207,0-1.877,0Z" transform="translate(495.617 -186.641)" fill="#12263f"/>
          <path id="Trazado_123040" data-name="Trazado 123040" d="M-472.931,241.209c.253-1.169-.089-1.183,2.595-1.012,0,.742-.294,1.107-1.094,1.019A14.62,14.62,0,0,0-472.931,241.209Z" transform="translate(482.926 -186.646)" fill="#12263f"/>
          <path id="Trazado_123041" data-name="Trazado 123041" d="M-461.193,241.219a14.232,14.232,0,0,0-1.48.007c-.766.085-1.063-.26-1.036-1.084a10.28,10.28,0,0,1,1.948.038c.284.055.489.523.728.807Z" transform="translate(505.224 -186.657)" fill="#12263f"/>
          <path id="Trazado_123042" data-name="Trazado 123042" d="M-462.527,240.226c2.284-.243,2.359-.215,2.6.906C-461.71,241.529-462.247,241.347-462.527,240.226Z" transform="translate(508.086 -186.683)" fill="#12263f"/>
          <path id="Trazado_123043" data-name="Trazado 123043" d="M-470.454,241.254c.212-1.193.65-1.34,2.543-.988.044.773-.3,1.09-1.08.995A12.974,12.974,0,0,0-470.454,241.254Z" transform="translate(488.916 -186.692)" fill="#12263f"/>
          <path id="Trazado_123044" data-name="Trazado 123044" d="M-471.722,241.25c.2-1.214.465-1.306,2.553-1,.01.735-.277,1.108-1.077,1.015A12.493,12.493,0,0,0-471.722,241.25Z" transform="translate(485.85 -186.688)" fill="#12263f"/>
          <path id="Trazado_123045" data-name="Trazado 123045" d="M-462.3,241.244a9.625,9.625,0,0,1-1.887-.038c-.3-.062-.523-.5-.858-.855C-463.1,239.85-462.433,240.082-462.3,241.244Z" transform="translate(501.99 -186.685)" fill="#12263f"/>
          <path id="Trazado_123046" data-name="Trazado 123046" d="M-461.219,240.227c2.232-.243,2.321-.212,2.673.909C-460.354,241.512-460.867,241.344-461.219,240.227Z" transform="translate(511.25 -186.68)" fill="#12263f"/>
          <path id="Trazado_123047" data-name="Trazado 123047" d="M-474.249,241.171c.3-1.128.622-1.237,2.642-.916C-471.9,241.376-472.242,241.493-474.249,241.171Z" transform="translate(479.739 -186.694)" fill="#12263f"/>
          <path id="Trazado_123048" data-name="Trazado 123048" d="M-466.564,240.136l-.086.974h-2.355l.075-.974Z" transform="translate(492.421 -186.603)" fill="#12263f"/>
        </g>
      </g>
      <g id="BTEedh.tif" transform="translate(6.557 360.703)">
        <g id="Grupo_56636" data-name="Grupo 56636">
          <path id="Trazado_123049" data-name="Trazado 123049" d="M-383.231,256.145a28.349,28.349,0,0,0-6.211-20.51c-1.853,1.183-2.971,1.07-4.557-.427a23.845,23.845,0,0,0-17.642-6.768,23.969,23.969,0,0,0-16.917,7.5,3.316,3.316,0,0,1-2.485,1.408,15.248,15.248,0,0,1-2.335-.506,28.211,28.211,0,0,0-5.288,19.266c1.275.277,1.313.332,1.309,1.672q0,6.322,0,12.644c0,1.19-.287,1.439-1.48,1.32a4.755,4.755,0,0,1-4.143-4.574c-.048-2.119-.027-4.239,0-6.358a4.876,4.876,0,0,1,.94-2.687,2.262,2.262,0,0,0,.369-1.108c.147-2.789.031-5.609.421-8.358A29.724,29.724,0,0,1-430.1,229.229a28.946,28.946,0,0,1,15.776-6.543c11.007-1.026,20.161,2.738,27.234,11.246a29.889,29.889,0,0,1,6.861,19.628c0,.7.017,1.4,0,2.1a4.6,4.6,0,0,0,.728,3.131,4.041,4.041,0,0,1,.581,2.184c.079,2.02.048,4.047.021,6.071a4.76,4.76,0,0,1-4.533,4.717c-.8.014-1.1-.26-1.1-1.07q-.01-6.681,0-13.369C-384.53,256.436-384.342,256.282-383.231,256.145Z" transform="translate(443.012 -222.522)" fill="#12263f"/>
          <path id="Trazado_123050" data-name="Trazado 123050" d="M-431.036,243.665c0,2.6.014,5.2,0,7.8A4.713,4.713,0,0,1-435.8,256.3a4.774,4.774,0,0,1-4.755-4.871q0-7.835.01-15.673a4.744,4.744,0,0,1,4.389-4.782,4.734,4.734,0,0,1,5,3.682,6.9,6.9,0,0,1,.12,1.5c.017,1.251,0,2.5,0,3.757Z" transform="translate(448.943 -202.155)" fill="#12263f"/>
          <path id="Trazado_123051" data-name="Trazado 123051" d="M-429.486,243.666c0-2.6-.007-5.2,0-7.8a4.755,4.755,0,0,1,4.765-4.922,4.8,4.8,0,0,1,4.755,4.957q.005,7.8-.007,15.6a4.779,4.779,0,0,1-4.167,4.775,4.757,4.757,0,0,1-5.227-3.668,6.006,6.006,0,0,1-.123-1.357c-.01-2.53,0-5.059,0-7.585Z" transform="translate(475.71 -202.157)" fill="#12263f"/>
          <path id="Trazado_123052" data-name="Trazado 123052" d="M-421.249,247.266a20.417,20.417,0,0,0,10.7-8.471c.051-.082.1-.167.147-.25q.641-1.056,1.391-.6c.5.3.547.79.109,1.518a21.446,21.446,0,0,1-11.045,9.188,2.054,2.054,0,0,0-1.429,1.3,3.031,3.031,0,0,1-2.912,2.007c-1.658.058-3.323.055-4.98.007a3.455,3.455,0,0,1-3.244-3.429,3.488,3.488,0,0,1,3.336-3.429c1.61-.044,3.227-.055,4.837,0A3.473,3.473,0,0,1-421.249,247.266Z" transform="translate(468.396 -185.558)" fill="#12263f"/>
        </g>
      </g>
      <g id="Zh26Q6.tif" transform="translate(114.136 365.007)">
        <g id="Grupo_56637" data-name="Grupo 56637">
          <path id="Trazado_123053" data-name="Trazado 123053" d="M-411.541,238.114c.345-1.757.714-4.276,1.364-6.72.67-2.512,6.734-6.8,9.13-6.478a2.819,2.819,0,0,1,1.73,1.456,82.887,82.887,0,0,1,3.839,8.423,3.092,3.092,0,0,1-1.012,2.741,26.542,26.542,0,0,1-5.134,2.5,2.3,2.3,0,0,0-1.606,2.971,52.7,52.7,0,0,0,10.057,21.252,3.148,3.148,0,0,0,2.772.5,33.493,33.493,0,0,0,5.2-2.365c1.572-.814,2.574-.362,3.309,1.142,1.279,2.608,2.543,5.227,3.9,7.8.875,1.654.4,2.519-1.172,3.483-7.773,4.775-13.352,2.177-18.736-4.485-6.614-8.187-10.433-18.045-13.3-28.174A24.426,24.426,0,0,1-411.541,238.114Z" transform="translate(411.541 -221.077)" fill="#12263f"/>
          <path id="Trazado_123054" data-name="Trazado 123054" d="M-382.859,264.92l-2.868-1.09c3.589-18.828-.766-28.068-17.577-37.345l.995-2.7C-387.9,227.244-375.643,247.067-382.859,264.92Z" transform="translate(431.461 -223.781)" fill="#12263f"/>
          <path id="Trazado_123055" data-name="Trazado 123055" d="M-403.972,228.647l.974-3.111c13.017,4,20.654,20.3,15.277,32.734l-2.868-1.005C-388.029,242.747-391.731,234.776-403.972,228.647Z" transform="translate(429.845 -219.537)" fill="#12263f"/>
          <path id="Trazado_123056" data-name="Trazado 123056" d="M-392.429,251.447l-2.889-1.022c2.157-9-.807-15.68-9.332-20.007l.954-2.912C-394.558,229.621-388.207,242.593-392.429,251.447Z" transform="translate(428.208 -214.775)" fill="#12263f"/>
          <path id="Trazado_123057" data-name="Trazado 123057" d="M-405.373,232.378l1.148-3.046c6.42,2.037,9.5,8.563,7.12,15.157l-3.018-1.107C-399.278,238.476-400.615,234.63-405.373,232.378Z" transform="translate(426.457 -210.357)" fill="#12263f"/>
        </g>
      </g>
      <text id="IP_Phone" data-name="IP Phone" transform="translate(-628.914 460.407)" fill="#12263f" font-size="20" font-family="Roboto-BlackItalic, Roboto" font-weight="800" font-style="italic"><tspan x="0" y="0">IP Phone</tspan></text>
      <text id="Network" transform="translate(-519.482 460.407)" fill="#12263f" font-size="20" font-family="Roboto-BlackItalic, Roboto" font-weight="800" font-style="italic"><tspan x="0" y="0">Network</tspan></text>
      <text id="Encoding" transform="translate(-317.388 460.407)" fill="#12263f" font-size="20" font-family="Roboto-BlackItalic, Roboto" font-weight="800" font-style="italic"><tspan x="0" y="0">Encoding</tspan></text>
      <text id="Router" transform="translate(-199.697 460.407)" fill="#12263f" font-size="20" font-family="Roboto-BlackItalic, Roboto" font-weight="800" font-style="italic"><tspan x="0" y="0">Router</tspan></text>
      <text id="Headset" transform="translate(-0.281 460.407)" fill="#12263f" font-size="20" font-family="Roboto-BlackItalic, Roboto" font-weight="800" font-style="italic"><tspan x="0" y="0">Headset</tspan></text>
      <text id="VoIP-2" data-name="VoIP" transform="translate(120.971 460.407)" fill="#12263f" font-size="20" font-family="Roboto-Black, Roboto" font-weight="800"><tspan x="0" y="0">VoIP</tspan></text>
      <text id="PC" transform="translate(-81.584 459.407)" fill="#12263f" font-size="19" font-family="Roboto-Black, Roboto" font-weight="800"><tspan x="0" y="0">PC</tspan></text>
      <text id="Channel_Setup" data-name="Channel 
Setup" transform="translate(-380.748 460.407)" fill="#12263f" font-size="20" font-family="Roboto-BlackItalic, Roboto" font-weight="800" font-style="italic"><tspan x="-38.682" y="0">Channel </tspan><tspan x="-25.859" y="24">Setup</tspan></text>
    </g>
  </g>
</svg>
