<svg xmlns="http://www.w3.org/2000/svg" width="1030" height="500" viewBox="0 0 1030 500">
  <g id="Grupo_1069333" data-name="Grupo 1069333" transform="translate(-285 -6826)">
    <rect id="Rectángulo_382005" data-name="Rectángulo 382005" width="1030" height="500" rx="10" transform="translate(285 6826)" fill="#fee0e7"/>
    <g id="Grupo_56703" data-name="Grupo 56703" transform="translate(-276.32 6038.728)">
      <g id="Grupo_56695" data-name="Grupo 56695" transform="translate(604.505 917.496)">
        <path id="Path_122972" data-name="Path 122972" d="M711.12,931.548v39.006a1.8,1.8,0,0,1-1.479,2.062,1.84,1.84,0,0,1-.589,0q-7.54,0-15.071,0h-33.79q-9.849,0-19.71-.011a.766.766,0,0,0-.81.523,14.381,14.381,0,0,1-24.38,2.608,21.6,21.6,0,0,1-1.646-2.7.68.68,0,0,0-.721-.422c-2.519.014-5.041.008-7.563,0a1.8,1.8,0,0,1-2.016-1.542,1.75,1.75,0,0,1,0-.488v-78a1.836,1.836,0,0,1,1.583-2.054,1.758,1.758,0,0,1,.477,0c2.487,0,4.972-.009,7.462.009a.664.664,0,0,0,.692-.457,14.159,14.159,0,0,1,11.716-8.4,14.356,14.356,0,0,1,14.014,7.388,2.571,2.571,0,0,1,.31.6c.19.824.732.885,1.465.882,5.925-.029,11.851-.014,17.78-.014h50.145c1.479,0,2.125.64,2.125,2.125q-.009,11.628-.014,23.26-.009,7.816,0,15.637Zm-3.59,37.512V894.114H641.019v74.95Zm-91.687-37.584h-.023v4.378q.009,8.47.02,16.949c0,4.518.031,9.039-.012,13.557a10.885,10.885,0,0,0,1.666,6.342,10.466,10.466,0,0,0,10.243,5.015,10.791,10.791,0,0,0,9.8-10.84V896.492a13.515,13.515,0,0,0-.126-2.076,10.756,10.756,0,0,0-11.386-9.214,10.486,10.486,0,0,0-9.243,6.385,11.934,11.934,0,0,0-.951,5.317q.03,17.29.012,34.574Zm-3.5,37.564V894.079h-4.7c-.744,0-.744,0-.744.724v74.24Z" transform="translate(-603.328 -881.608)" fill="#091c30"/>
        <path id="Path_122973" data-name="Path 122973" d="M643.64,909.279H626.018a1.8,1.8,0,0,1-2.008-1.565,1.85,1.85,0,0,1,0-.419q-.013-8.759,0-17.518a1.76,1.76,0,0,1,1.583-1.922,1.675,1.675,0,0,1,.342,0q12.227-.009,24.458,0,5.42.008,10.84,0a1.845,1.845,0,0,1,2.082,1.571,1.906,1.906,0,0,1,0,.511v17.257a1.841,1.841,0,0,1-1.568,2.08,1.977,1.977,0,0,1-.52,0q-7.79-.009-15.588-.026H643.66Zm-16.07-3.556h11.963q9.8,0,19.612.011c.48,0,.606-.121.606-.609q-.026-6.6,0-13.19c0-.4-.089-.543-.52-.537-4.239.014-8.482.009-12.721.009H627.57Z" transform="translate(-564.629 -869.946)" fill="#091c30"/>
        <path id="Path_122974" data-name="Path 122974" d="M633.9,902.04a14.884,14.884,0,0,1,.126-1.924A4.144,4.144,0,0,1,638,896.571a18.239,18.239,0,0,1,2.912,0,4.155,4.155,0,0,1,4.007,3.875,15.519,15.519,0,0,1-.009,3.225,4.12,4.12,0,0,1-3.883,3.829,17.027,17.027,0,0,1-3.378-.043,4.2,4.2,0,0,1-3.711-4.165c-.009-.416,0-.833,0-1.252ZM639.391,904v-.014c.4,0,.8.014,1.2,0a.768.768,0,0,0,.818-.715.657.657,0,0,0,0-.106c.023-.73.032-1.462.014-2.189a.791.791,0,0,0-.709-.859.939.939,0,0,0-.178,0c-.732-.009-1.459-.009-2.192,0-.583.009-.847.279-.856.873-.014.7,0,1.393,0,2.085a.836.836,0,0,0,.738.925.975.975,0,0,0,.181,0c.324,0,.655,0,.985,0Z" transform="translate(-546.09 -853.702)" fill="#091c30"/>
        <path id="Path_122975" data-name="Path 122975" d="M623.9,902.03a16.385,16.385,0,0,1,.167-2.12,4.126,4.126,0,0,1,3.78-3.332,21.411,21.411,0,0,1,3.125-.011,4.245,4.245,0,0,1,3.975,4.294c.009.747,0,1.494,0,2.24a4.142,4.142,0,0,1-3.777,4.349,15,15,0,0,1-4.136-.144,4.053,4.053,0,0,1-3.076-3.814c-.017-.488,0-.971,0-1.459Zm5.632-1.913h0c-.416,0-.83-.014-1.249,0a.717.717,0,0,0-.784.646,1.015,1.015,0,0,0,0,.132c-.015.77-.009,1.534,0,2.3a.715.715,0,0,0,.666.767.79.79,0,0,0,.08,0c.816.029,1.632.023,2.447,0a.676.676,0,0,0,.7-.652.4.4,0,0,0,0-.057c.014-.819.02-1.637-.009-2.45a.647.647,0,0,0-.606-.689.453.453,0,0,0-.086,0c-.385-.006-.77,0-1.152,0Z" transform="translate(-564.809 -853.698)" fill="#091c30"/>
        <path id="Path_122976" data-name="Path 122976" d="M639.9,902.013a14.814,14.814,0,0,1-.014,1.818A4.169,4.169,0,0,1,636,907.488a18.007,18.007,0,0,1-3.432-.043,4.147,4.147,0,0,1-3.616-3.958q-.06-1.516,0-3.024a4.214,4.214,0,0,1,4.087-3.906,20.635,20.635,0,0,1,3.125.043,4.2,4.2,0,0,1,3.757,4.059c.009.451,0,.9,0,1.356Zm-5.466-1.9v-.009h-.991a.63.63,0,0,0-.106,0c-.577.02-.836.256-.847.818q-.022,1.12,0,2.24a.725.725,0,0,0,.646.8.577.577,0,0,0,.124,0c.8.029,1.6.026,2.4,0a.681.681,0,0,0,.712-.646v-.043c.02-.813.02-1.631,0-2.45a.674.674,0,0,0-.638-.707.589.589,0,0,0-.1,0c-.4-.014-.8-.006-1.2-.006Z" transform="translate(-555.413 -853.696)" fill="#091c30"/>
        <path id="Path_122977" data-name="Path 122977" d="M639.39,917.521a12.6,12.6,0,0,1-2.416-.267,3.909,3.909,0,0,1-2.967-3.461,16.135,16.135,0,0,1,.008-3.685,4.055,4.055,0,0,1,3.717-3.573,17.508,17.508,0,0,1,3.43,0,4.142,4.142,0,0,1,3.748,3.909,16.574,16.574,0,0,1-.043,3.335,4.159,4.159,0,0,1-4.168,3.679h-1.3Zm0-3.613c.4,0,.8.012,1.2,0a.767.767,0,0,0,.807-.724.5.5,0,0,0,0-.092c.014-.747.02-1.494,0-2.24a.768.768,0,0,0-.727-.81.59.59,0,0,0-.1,0c-.761-.02-1.528-.014-2.289,0a.746.746,0,0,0-.8.687v.083c-.026.77-.026,1.525,0,2.292a.745.745,0,0,0,.692.8,1.06,1.06,0,0,0,.129,0c.362.014.73,0,1.094,0Z" transform="translate(-546.077 -835.095)" fill="#091c30"/>
        <path id="Path_122978" data-name="Path 122978" d="M629.452,912.527a18.07,18.07,0,0,1-2.327-.21,4.189,4.189,0,0,1-3.2-3.958c-.023-.867-.015-1.738,0-2.605a4.266,4.266,0,0,1,4.277-4.254h.017a23.613,23.613,0,0,1,3.22.1,4.1,4.1,0,0,1,3.441,3.728,24.835,24.835,0,0,1,0,3.335,4.206,4.206,0,0,1-3.915,3.777c-.5.023-1.008,0-1.511,0Zm0-3.613h1.089c.569-.029.813-.264.822-.836.011-.715.011-1.422,0-2.134,0-.623-.256-.893-.876-.9q-1.09-.022-2.177,0a.756.756,0,0,0-.83.678.527.527,0,0,0,0,.118c-.014.77-.014,1.525,0,2.286a.718.718,0,0,0,.649.784.639.639,0,0,0,.129,0C628.653,908.931,629.05,908.914,629.452,908.914Z" transform="translate(-564.785 -844.394)" fill="#091c30"/>
        <path id="Path_122979" data-name="Path 122979" d="M634.213,917.439a5.263,5.263,0,0,1-3.24-.617,4.149,4.149,0,0,1-2.025-3.392c-.043-.913-.031-1.838-.008-2.757a4.158,4.158,0,0,1,3.679-4.124,16.747,16.747,0,0,1,3.737.026,4.133,4.133,0,0,1,3.562,4.013q.035,1.409,0,2.818a4.228,4.228,0,0,1-4.061,4.036C635.368,917.447,634.885,917.439,634.213,917.439Zm2.166-5.495c0-.365.009-.727,0-1.092a.764.764,0,0,0-.7-.822.632.632,0,0,0-.106,0c-.761-.014-1.525-.02-2.286,0a.726.726,0,0,0-.8.643.536.536,0,0,0,0,.118c-.014.781-.012,1.56,0,2.341a.694.694,0,0,0,.629.758.478.478,0,0,0,.112,0c.8.02,1.594.014,2.393,0a.708.708,0,0,0,.752-.652.565.565,0,0,0,0-.1C636.393,912.746,636.379,912.341,636.379,911.944Z" transform="translate(-555.414 -835.088)" fill="#091c30"/>
        <path id="Path_122980" data-name="Path 122980" d="M639.421,912.449a6.171,6.171,0,0,1-3.105-.431,4.025,4.025,0,0,1-2.324-3.246,17.853,17.853,0,0,1,.029-3.737,4.178,4.178,0,0,1,4.093-3.542c.8-.014,1.6,0,2.4,0a4.241,4.241,0,0,1,4.4,3.972,17.435,17.435,0,0,1-.052,3.332,4.156,4.156,0,0,1-3.984,3.654C640.394,912.469,639.906,912.449,639.421,912.449Zm-.035-3.542h1.143c.566-.014.847-.264.862-.819.026-.747.02-1.494,0-2.24a.77.77,0,0,0-.727-.81c-.032,0-.066,0-.1,0-.77-.014-1.528-.014-2.292,0a.771.771,0,0,0-.807.73c0,.031,0,.066,0,.1q-.021,1.12,0,2.24a.736.736,0,0,0,.669.793.542.542,0,0,0,.1,0c.391.02.77.006,1.152.006Z" transform="translate(-546.073 -844.388)" fill="#091c30"/>
        <path id="Path_122981" data-name="Path 122981" d="M629.366,917.594a14.378,14.378,0,0,1-2.875-.537,3.887,3.887,0,0,1-2.542-3.674,18.092,18.092,0,0,1,.1-3.481,4.022,4.022,0,0,1,3.625-3.364,16.024,16.024,0,0,1,3.691.043,4.139,4.139,0,0,1,3.559,4.067c.035.885.035,1.772,0,2.657a4.24,4.24,0,0,1-4.288,4.145h-1.25Zm2-5.589h0v-1.192a.709.709,0,0,0-.652-.767c-.029,0-.06,0-.092,0-.793-.029-1.591-.023-2.387,0a.713.713,0,0,0-.755.675.415.415,0,0,0,0,.086c-.02.781-.026,1.56,0,2.335a.705.705,0,0,0,.646.761.6.6,0,0,0,.1,0c.8.02,1.594.014,2.387,0a.7.7,0,0,0,.75-.638.758.758,0,0,0,0-.118c.014-.376,0-.758,0-1.14Z" transform="translate(-564.794 -835.093)" fill="#091c30"/>
        <path id="Path_122982" data-name="Path 122982" d="M634.382,912.459a5.569,5.569,0,0,1-3.234-.549,4.149,4.149,0,0,1-2.206-3.547c-.026-.9-.026-1.81,0-2.709a4.251,4.251,0,0,1,4.228-4.153,24.4,24.4,0,0,1,3.174.086,4.161,4.161,0,0,1,3.565,4.067c.02.867.02,1.738,0,2.6a4.241,4.241,0,0,1-4.13,4.2C635.321,912.479,634.85,912.465,634.382,912.459Zm2-5.437c0-.376.009-.761,0-1.143a.758.758,0,0,0-.675-.833.865.865,0,0,0-.172,0c-.73-.009-1.459-.014-2.186,0a.772.772,0,0,0-.864.664.741.741,0,0,0,0,.209,12.377,12.377,0,0,1-.02,1.876c-.129.8.325,1.172,1.115,1.172.675,0,1.356-.023,2.031-.057a.718.718,0,0,0,.77-.663.629.629,0,0,0,0-.126C636.387,907.755,636.378,907.39,636.378,907.022Z" transform="translate(-555.408 -844.395)" fill="#091c30"/>
      </g>
      <g id="Grupo_56696" data-name="Grupo 56696" transform="translate(604.505 1028.925)">
        <path id="Path_122972-2" data-name="Path 122972" d="M711.12,970.339v39.006a1.8,1.8,0,0,1-1.479,2.065,1.753,1.753,0,0,1-.589,0q-7.54.009-15.071,0h-33.79q-9.849,0-19.71-.008a.763.763,0,0,0-.81.523,14.381,14.381,0,0,1-24.38,2.608,21.445,21.445,0,0,1-1.646-2.706.687.687,0,0,0-.721-.422q-3.779.022-7.563,0a1.794,1.794,0,0,1-2.016-1.54,1.749,1.749,0,0,1,0-.488v-78a1.833,1.833,0,0,1,1.583-2.051,1.9,1.9,0,0,1,.477,0c2.487,0,4.972-.009,7.462.008a.658.658,0,0,0,.692-.454,14.155,14.155,0,0,1,11.716-8.4,14.354,14.354,0,0,1,14.014,7.385,2.649,2.649,0,0,1,.31.6c.19.821.732.885,1.465.879,5.925-.029,11.851-.015,17.78-.015h50.145c1.479,0,2.125.64,2.125,2.125q-.009,11.633-.014,23.26-.009,7.82,0,15.637Zm-3.59,37.512V932.908H641.019v74.947Zm-91.687-37.584h-.023v4.38q.009,8.47.02,16.947c0,4.518.031,9.042-.012,13.56a10.885,10.885,0,0,0,1.666,6.342,10.471,10.471,0,0,0,10.243,5.015,10.793,10.793,0,0,0,9.8-10.84V935.286a13.575,13.575,0,0,0-.126-2.079,10.757,10.757,0,0,0-11.386-9.211,10.481,10.481,0,0,0-9.243,6.385,11.919,11.919,0,0,0-.951,5.317q.03,17.286.012,34.574Zm-3.5,37.567V932.873h-4.7c-.744,0-.744,0-.744.724v74.241Z" transform="translate(-603.328 -920.402)" fill="#091c30"/>
        <path id="Path_122973-2" data-name="Path 122973" d="M643.64,948.073H626.018a1.8,1.8,0,0,1-2.008-1.568,1.849,1.849,0,0,1,0-.419q-.013-8.759,0-17.515a1.758,1.758,0,0,1,1.583-1.922,1.666,1.666,0,0,1,.342,0q12.227-.008,24.458,0,5.42,0,10.84,0a1.845,1.845,0,0,1,2.082,1.571,1.886,1.886,0,0,1,0,.508v17.259a1.837,1.837,0,0,1-2.088,2.077q-7.79-.008-15.588-.023H643.66Zm-16.07-3.556h11.963q9.8,0,19.612.009c.48,0,.606-.118.606-.606q-.026-6.6,0-13.193c0-.4-.089-.54-.52-.534-4.239.014-8.482.009-12.721.009H627.57Z" transform="translate(-564.629 -908.74)" fill="#091c30"/>
        <path id="Path_122974-2" data-name="Path 122974" d="M633.9,940.831a14.87,14.87,0,0,1,.126-1.921A4.147,4.147,0,0,1,638,935.363a18.921,18.921,0,0,1,2.912,0,4.16,4.16,0,0,1,4.007,3.878,15.521,15.521,0,0,1-.009,3.226,4.122,4.122,0,0,1-3.883,3.829,17.013,17.013,0,0,1-3.378-.043,4.2,4.2,0,0,1-3.711-4.165c-.009-.417,0-.833,0-1.255Zm5.492,1.959v-.014c.4,0,.8.014,1.2,0a.77.77,0,0,0,.818-.715.7.7,0,0,0,0-.109c.023-.727.032-1.459.014-2.186a.789.789,0,0,0-.709-.859.719.719,0,0,0-.178,0c-.732-.009-1.459-.009-2.192,0-.583.008-.847.279-.856.87-.014.7,0,1.4,0,2.088a.832.832,0,0,0,.738.922.781.781,0,0,0,.181,0c.324,0,.655,0,.985,0Z" transform="translate(-546.09 -892.497)" fill="#091c30"/>
        <path id="Path_122975-2" data-name="Path 122975" d="M623.9,940.824a16.338,16.338,0,0,1,.167-2.12,4.123,4.123,0,0,1,3.78-3.332,21.394,21.394,0,0,1,3.125-.011,4.243,4.243,0,0,1,3.975,4.294c.009.747,0,1.491,0,2.238a4.144,4.144,0,0,1-3.777,4.351,15.018,15.018,0,0,1-4.136-.144,4.055,4.055,0,0,1-3.076-3.815c-.017-.488,0-.974,0-1.462Zm5.632-1.916h0c-.416,0-.83-.014-1.249,0a.719.719,0,0,0-.784.649,1.015,1.015,0,0,0,0,.132c-.015.77-.009,1.531,0,2.3a.717.717,0,0,0,.666.767.773.773,0,0,0,.08,0c.816.026,1.632.023,2.447,0a.676.676,0,0,0,.7-.655.361.361,0,0,0,0-.054c.014-.819.02-1.637-.009-2.45a.65.65,0,0,0-.606-.692h-.086c-.385-.006-.77,0-1.152,0Z" transform="translate(-564.809 -892.492)" fill="#091c30"/>
        <path id="Path_122976-2" data-name="Path 122976" d="M639.9,940.808a14.815,14.815,0,0,1-.014,1.818A4.169,4.169,0,0,1,636,946.283a17.78,17.78,0,0,1-3.432-.046,4.143,4.143,0,0,1-3.616-3.958q-.06-1.512,0-3.025a4.212,4.212,0,0,1,4.087-3.9,20.314,20.314,0,0,1,3.125.043,4.2,4.2,0,0,1,3.757,4.059c.009.448,0,.9,0,1.353Zm-5.466-1.9V938.9h-.991a.671.671,0,0,0-.106,0c-.577.017-.836.256-.847.819q-.022,1.12,0,2.237a.728.728,0,0,0,.646.8.907.907,0,0,0,.124,0c.8.029,1.6.023,2.4,0a.682.682,0,0,0,.712-.649v-.04c.02-.816.02-1.632,0-2.453a.67.67,0,0,0-.638-.7.575.575,0,0,0-.1,0c-.4-.011-.8,0-1.2,0Z" transform="translate(-555.413 -892.491)" fill="#091c30"/>
        <path id="Path_122977-2" data-name="Path 122977" d="M639.39,956.316a13.128,13.128,0,0,1-2.416-.267,3.912,3.912,0,0,1-2.967-3.461,16.136,16.136,0,0,1,.008-3.685,4.059,4.059,0,0,1,3.717-3.576,18.035,18.035,0,0,1,3.43,0,4.144,4.144,0,0,1,3.748,3.912,16.546,16.546,0,0,1-.043,3.332,4.157,4.157,0,0,1-4.168,3.679h-1.3Zm0-3.613c.4,0,.8.009,1.2,0a.767.767,0,0,0,.807-.727.5.5,0,0,0,0-.092c.014-.747.02-1.491,0-2.24a.77.77,0,0,0-.727-.81c-.032,0-.066,0-.1,0-.761-.02-1.528-.014-2.289,0a.744.744,0,0,0-.8.687v.083c-.026.767-.026,1.525,0,2.292a.749.749,0,0,0,.692.8.667.667,0,0,0,.129,0c.362.017.73.006,1.094.006Z" transform="translate(-546.077 -873.89)" fill="#091c30"/>
        <path id="Path_122978-2" data-name="Path 122978" d="M629.452,951.322a18.053,18.053,0,0,1-2.327-.213,4.186,4.186,0,0,1-3.2-3.958c-.023-.865-.015-1.735,0-2.6a4.266,4.266,0,0,1,4.277-4.254h.017a23.19,23.19,0,0,1,3.22.1,4.1,4.1,0,0,1,3.441,3.728,24.8,24.8,0,0,1,0,3.332,4.2,4.2,0,0,1-3.915,3.777c-.5.026-1.008,0-1.511,0Zm0-3.613h1.089c.569-.029.813-.264.822-.839.011-.712.011-1.422,0-2.134,0-.62-.256-.89-.876-.9q-1.09-.021-2.177,0a.756.756,0,0,0-.83.678.526.526,0,0,0,0,.118c-.014.767-.014,1.525,0,2.286a.719.719,0,0,0,.649.784.662.662,0,0,0,.129,0C628.653,947.726,629.05,947.709,629.452,947.709Z" transform="translate(-564.785 -883.188)" fill="#091c30"/>
        <path id="Path_122979-2" data-name="Path 122979" d="M634.213,956.234a5.279,5.279,0,0,1-3.24-.617,4.154,4.154,0,0,1-2.025-3.395c-.043-.913-.031-1.836-.008-2.755a4.161,4.161,0,0,1,3.679-4.128,16.777,16.777,0,0,1,3.737.029,4.131,4.131,0,0,1,3.562,4.01q.035,1.413,0,2.821a4.23,4.23,0,0,1-4.061,4.035C635.368,956.242,634.885,956.234,634.213,956.234Zm2.166-5.495c0-.365.009-.73,0-1.092a.76.76,0,0,0-.7-.821c-.034,0-.069,0-.106,0-.761-.011-1.525-.017-2.286,0a.729.729,0,0,0-.8.646.53.53,0,0,0,0,.118c-.014.779-.012,1.56,0,2.338a.7.7,0,0,0,.629.761.73.73,0,0,0,.112,0c.8.02,1.594.015,2.393,0a.7.7,0,0,0,.752-.652.533.533,0,0,0,0-.1C636.393,951.537,636.379,951.135,636.379,950.739Z" transform="translate(-555.414 -873.882)" fill="#091c30"/>
        <path id="Path_122980-2" data-name="Path 122980" d="M639.421,951.243a6.165,6.165,0,0,1-3.105-.431,4.025,4.025,0,0,1-2.324-3.246,17.853,17.853,0,0,1,.029-3.737,4.178,4.178,0,0,1,4.093-3.542c.8-.015,1.6,0,2.4,0a4.239,4.239,0,0,1,4.4,3.972,17.443,17.443,0,0,1-.052,3.332,4.154,4.154,0,0,1-3.984,3.65C640.394,951.26,639.906,951.243,639.421,951.243Zm-.035-3.541h1.143c.566-.015.847-.264.862-.822.026-.744.02-1.491,0-2.238a.769.769,0,0,0-.727-.81.66.66,0,0,0-.1,0c-.77-.014-1.528-.014-2.292,0a.771.771,0,0,0-.807.733c0,.031,0,.063,0,.1-.014.747-.014,1.491,0,2.237a.732.732,0,0,0,.669.793c.035,0,.066,0,.1,0,.391.02.77,0,1.152,0Z" transform="translate(-546.073 -883.182)" fill="#091c30"/>
        <path id="Path_122981-2" data-name="Path 122981" d="M629.366,956.389a14.567,14.567,0,0,1-2.875-.537,3.891,3.891,0,0,1-2.542-3.676,18.064,18.064,0,0,1,.1-3.478,4.024,4.024,0,0,1,3.625-3.366,16.187,16.187,0,0,1,3.691.043,4.145,4.145,0,0,1,3.559,4.07q.052,1.327,0,2.654a4.243,4.243,0,0,1-4.288,4.148h-1.25Zm2-5.593h0V949.6a.713.713,0,0,0-.652-.767.513.513,0,0,0-.092,0c-.793-.029-1.591-.026-2.387,0a.712.712,0,0,0-.755.672.442.442,0,0,0,0,.089c-.02.781-.026,1.56,0,2.335a.707.707,0,0,0,.646.761.621.621,0,0,0,.1,0c.8.02,1.594.015,2.387,0a.7.7,0,0,0,.75-.64.723.723,0,0,0,0-.115c.014-.376,0-.761,0-1.144Z" transform="translate(-564.794 -873.888)" fill="#091c30"/>
        <path id="Path_122982-2" data-name="Path 122982" d="M634.382,951.255a5.544,5.544,0,0,1-3.234-.552,4.144,4.144,0,0,1-2.206-3.545c-.026-.9-.026-1.809,0-2.708a4.248,4.248,0,0,1,4.228-4.153,23.87,23.87,0,0,1,3.174.083,4.167,4.167,0,0,1,3.565,4.07c.02.865.02,1.735,0,2.6a4.243,4.243,0,0,1-4.13,4.2C635.321,951.275,634.85,951.26,634.382,951.255Zm2-5.437c0-.379.009-.761,0-1.143a.762.762,0,0,0-.675-.836.69.69,0,0,0-.172,0c-.73-.011-1.459-.014-2.186,0a.772.772,0,0,0-.864.664.722.722,0,0,0,0,.207,12.41,12.41,0,0,1-.02,1.878c-.129.793.325,1.172,1.115,1.172.675,0,1.356-.026,2.031-.057a.717.717,0,0,0,.77-.663.625.625,0,0,0,0-.126C636.387,946.55,636.378,946.185,636.378,945.817Z" transform="translate(-555.408 -883.19)" fill="#091c30"/>
      </g>
      <g id="Grupo_56697" data-name="Grupo 56697" transform="translate(1417.422 1030.137)">
        <path id="Path_122972-3" data-name="Path 122972" d="M994.136,970.762v39.006a1.793,1.793,0,0,1-1.477,2.063,1.769,1.769,0,0,1-.589,0q-7.54.008-15.071,0H943.21q-9.849,0-19.71-.009a.763.763,0,0,0-.81.523,14.384,14.384,0,0,1-24.38,2.608,21.606,21.606,0,0,1-1.646-2.706.69.69,0,0,0-.721-.422c-2.519.014-5.041.009-7.563,0a1.791,1.791,0,0,1-2.016-1.539,1.717,1.717,0,0,1,0-.488v-78a1.833,1.833,0,0,1,1.583-2.051,1.889,1.889,0,0,1,.477,0c2.487,0,4.972-.008,7.462.009a.658.658,0,0,0,.692-.454,14.148,14.148,0,0,1,11.716-8.4,14.357,14.357,0,0,1,14.014,7.385,2.8,2.8,0,0,1,.31.6c.187.824.732.888,1.465.882,5.925-.029,11.851-.014,17.78-.014h50.145c1.479,0,2.125.641,2.125,2.126q-.009,11.629-.014,23.26-.009,7.82,0,15.637Zm-3.588,37.512V933.327H924.035v74.95ZM898.862,970.69h-.023v4.38q.009,8.47.017,16.947c0,4.518.034,9.039-.009,13.557a10.874,10.874,0,0,0,1.666,6.342,10.467,10.467,0,0,0,10.242,5.018,10.8,10.8,0,0,0,9.8-10.84V935.708a13.265,13.265,0,0,0-.129-2.08,10.75,10.75,0,0,0-11.386-9.211,10.479,10.479,0,0,0-9.24,6.382,11.938,11.938,0,0,0-.954,5.317q.035,17.29.012,34.577Zm-3.5,37.564V933.3h-4.7c-.744,0-.744,0-.744.721v74.24Z" transform="translate(-886.347 -920.824)" fill="#21587b"/>
        <path id="Path_122973-3" data-name="Path 122973" d="M926.659,948.5H909.037a1.8,1.8,0,0,1-2.008-1.568,1.856,1.856,0,0,1,0-.419q-.013-8.759,0-17.515a1.761,1.761,0,0,1,1.924-1.925q12.223,0,24.455,0,5.42.009,10.843,0a1.843,1.843,0,0,1,2.079,1.574,1.686,1.686,0,0,1,0,.508v17.26a1.838,1.838,0,0,1-1.565,2.077,1.762,1.762,0,0,1-.52,0q-7.79-.009-15.588-.023h-1.976Zm-16.073-3.556h11.966q9.8,0,19.612.009c.48,0,.606-.121.606-.609q-.026-6.6,0-13.19c0-.4-.089-.54-.52-.534-4.242.015-8.482.009-12.722.009h-18.94Z" transform="translate(-847.648 -909.164)" fill="#21587b"/>
        <path id="Path_122974-3" data-name="Path 122974" d="M916.917,941.255a15.362,15.362,0,0,1,.129-1.922,4.146,4.146,0,0,1,3.972-3.547,18.273,18.273,0,0,1,2.915,0,4.157,4.157,0,0,1,4.007,3.875,15.548,15.548,0,0,1-.009,3.228,4.127,4.127,0,0,1-3.883,3.829,16.8,16.8,0,0,1-3.378-.046,4.2,4.2,0,0,1-3.711-4.162c-.009-.417,0-.836,0-1.255Zm5.495,1.959V943.2c.4,0,.8.014,1.195,0a.772.772,0,0,0,.822-.715v-.109c.023-.727.032-1.459.011-2.186a.783.783,0,0,0-.707-.859.748.748,0,0,0-.178,0c-.732-.008-1.459-.008-2.192,0-.583.009-.847.279-.856.87-.014.7,0,1.393,0,2.088a.835.835,0,0,0,.738.922.624.624,0,0,0,.181,0c.325,0,.655,0,.985,0Z" transform="translate(-829.111 -892.92)" fill="#21587b"/>
        <path id="Path_122975-3" data-name="Path 122975" d="M906.92,941.247a16.341,16.341,0,0,1,.167-2.12,4.128,4.128,0,0,1,3.78-3.335,21.389,21.389,0,0,1,3.125-.009,4.241,4.241,0,0,1,3.975,4.291c.009.75,0,1.494,0,2.241a4.14,4.14,0,0,1-3.777,4.348,14.884,14.884,0,0,1-4.136-.141,4.048,4.048,0,0,1-3.076-3.817c-.017-.488,0-.971,0-1.459Zm5.633-1.916h0c-.416,0-.833-.014-1.25,0a.719.719,0,0,0-.784.649.676.676,0,0,0,0,.132c-.014.77-.009,1.531,0,2.3a.72.72,0,0,0,.667.767.392.392,0,0,0,.08,0c.813.029,1.631.026,2.444,0a.676.676,0,0,0,.7-.652.348.348,0,0,0,0-.055c.014-.819.02-1.637-.009-2.453a.652.652,0,0,0-.606-.69c-.029,0-.057,0-.086,0-.388-.006-.77,0-1.152,0Z" transform="translate(-847.828 -892.915)" fill="#21587b"/>
        <path id="Path_122976-3" data-name="Path 122976" d="M922.912,941.228a14.243,14.243,0,0,1-.011,1.821,4.172,4.172,0,0,1-3.883,3.657,17.8,17.8,0,0,1-3.432-.046,4.142,4.142,0,0,1-3.616-3.958c-.04-1.008-.04-2.019,0-3.025a4.217,4.217,0,0,1,4.087-3.907,21.06,21.06,0,0,1,3.125.043,4.2,4.2,0,0,1,3.757,4.058c.009.451,0,.9,0,1.356Zm-5.463-1.9v-.009h-.991a.659.659,0,0,0-.106,0c-.58.02-.836.259-.847.819q-.022,1.12,0,2.24a.728.728,0,0,0,.646.8.888.888,0,0,0,.124,0c.8.029,1.6.026,2.4,0a.677.677,0,0,0,.712-.646v-.043c.02-.813.02-1.631,0-2.45a.676.676,0,0,0-.638-.707c-.034,0-.066,0-.1,0-.4-.014-.8,0-1.2,0Z" transform="translate(-838.432 -892.913)" fill="#21587b"/>
        <path id="Path_122977-3" data-name="Path 122977" d="M922.409,956.738a13.17,13.17,0,0,1-2.418-.267,3.92,3.92,0,0,1-2.967-3.461,16.309,16.309,0,0,1,.012-3.685,4.055,4.055,0,0,1,3.717-3.576,17.961,17.961,0,0,1,3.429,0,4.144,4.144,0,0,1,3.749,3.912,16.59,16.59,0,0,1-.043,3.332,4.157,4.157,0,0,1-4.168,3.679h-1.307Zm0-3.613c.4,0,.8.008,1.195,0a.769.769,0,0,0,.81-.727.512.512,0,0,0,0-.092c.014-.747.02-1.494,0-2.241a.77.77,0,0,0-.727-.81c-.034,0-.066,0-.1,0-.761-.02-1.528-.014-2.289,0a.744.744,0,0,0-.8.686.793.793,0,0,0,0,.081c-.026.77-.026,1.528,0,2.295a.749.749,0,0,0,.689.8.651.651,0,0,0,.132,0c.362.015.729.006,1.091.006Z" transform="translate(-829.096 -874.312)" fill="#21587b"/>
        <path id="Path_122978-3" data-name="Path 122978" d="M912.471,951.742a17.509,17.509,0,0,1-2.327-.21,4.183,4.183,0,0,1-3.2-3.958c-.023-.865-.014-1.735,0-2.6a4.266,4.266,0,0,1,4.277-4.254h.017a22.677,22.677,0,0,1,3.22.1,4.1,4.1,0,0,1,3.441,3.728,24.815,24.815,0,0,1,0,3.332,4.2,4.2,0,0,1-3.915,3.777c-.5.023-1.008,0-1.511,0Zm0-3.613h1.086c.572-.026.816-.261.824-.836.009-.712.009-1.422,0-2.134,0-.62-.256-.89-.876-.9q-1.09-.022-2.18,0a.757.757,0,0,0-.83.675c0,.041,0,.081,0,.118-.011.77-.011,1.528,0,2.289a.723.723,0,0,0,.652.784.993.993,0,0,0,.129,0C911.672,948.149,912.069,948.128,912.471,948.128Z" transform="translate(-847.804 -883.611)" fill="#21587b"/>
        <path id="Path_122979-3" data-name="Path 122979" d="M917.233,956.656a5.278,5.278,0,0,1-3.24-.62,4.145,4.145,0,0,1-2.025-3.392c-.043-.913-.035-1.838-.009-2.757a4.16,4.16,0,0,1,3.68-4.125,16.746,16.746,0,0,1,3.737.029,4.131,4.131,0,0,1,3.562,4.01c.023.94.023,1.882,0,2.821a4.233,4.233,0,0,1-4.064,4.035C918.387,956.664,917.9,956.656,917.233,956.656Zm2.166-5.5c0-.362.009-.726,0-1.088a.76.76,0,0,0-.695-.821c-.035,0-.072,0-.106,0-.761-.014-1.525-.017-2.286,0a.728.728,0,0,0-.8.646.507.507,0,0,0,0,.115c-.015.781-.012,1.56,0,2.341a.7.7,0,0,0,.626.761.8.8,0,0,0,.115,0c.8.02,1.594.014,2.393,0a.7.7,0,0,0,.753-.652v-.1C919.413,951.96,919.4,951.557,919.4,951.158Z" transform="translate(-838.434 -874.304)" fill="#21587b"/>
        <path id="Path_122980-3" data-name="Path 122980" d="M922.44,951.664a6.15,6.15,0,0,1-3.108-.43,4.025,4.025,0,0,1-2.321-3.243,17.894,17.894,0,0,1,.029-3.74,4.18,4.18,0,0,1,4.093-3.541c.8-.015,1.6,0,2.4,0a4.243,4.243,0,0,1,4.4,3.975,17.209,17.209,0,0,1-.055,3.332,4.154,4.154,0,0,1-3.981,3.651C923.414,951.684,922.925,951.664,922.44,951.664Zm-.034-3.541h1.143c.566-.014.847-.261.862-.819.023-.744.02-1.493,0-2.237a.768.768,0,0,0-.727-.81.587.587,0,0,0-.1,0c-.77-.015-1.528-.015-2.295,0a.77.77,0,0,0-.8.732.947.947,0,0,0,0,.095q-.022,1.12,0,2.24a.732.732,0,0,0,.669.793c.031,0,.066,0,.1,0,.391.017.77,0,1.152,0Z" transform="translate(-829.093 -883.606)" fill="#21587b"/>
        <path id="Path_122981-3" data-name="Path 122981" d="M912.386,956.808a14.388,14.388,0,0,1-2.875-.534,3.889,3.889,0,0,1-2.542-3.677,18.066,18.066,0,0,1,.1-3.482,4.019,4.019,0,0,1,3.625-3.363,16.21,16.21,0,0,1,3.691.043,4.145,4.145,0,0,1,3.559,4.07q.052,1.327,0,2.654a4.241,4.241,0,0,1-4.288,4.145h-1.25Zm2-5.589h0v-1.192a.713.713,0,0,0-.652-.767c-.032,0-.06,0-.092,0-.8-.026-1.594-.023-2.387,0a.721.721,0,0,0-.758.675c0,.029,0,.057,0,.089-.02.778-.026,1.56,0,2.335a.7.7,0,0,0,.646.758c.035,0,.069,0,.1,0,.8.018,1.594.014,2.387,0a.7.7,0,0,0,.75-.64.808.808,0,0,0,0-.118c.012-.373,0-.758,0-1.14Z" transform="translate(-847.813 -874.31)" fill="#21587b"/>
        <path id="Path_122982-3" data-name="Path 122982" d="M917.4,951.677a5.571,5.571,0,0,1-3.234-.551,4.144,4.144,0,0,1-2.206-3.545q-.039-1.361,0-2.708a4.25,4.25,0,0,1,4.228-4.156,24.305,24.305,0,0,1,3.174.086,4.166,4.166,0,0,1,3.564,4.07c.02.865.02,1.735,0,2.6a4.243,4.243,0,0,1-4.13,4.2C918.34,951.695,917.869,951.68,917.4,951.677Zm2-5.437c0-.379.009-.761,0-1.143a.762.762,0,0,0-.675-.836.705.705,0,0,0-.172,0c-.73-.012-1.459-.015-2.189,0a.767.767,0,0,0-.862.66.729.729,0,0,0,0,.21,12.417,12.417,0,0,1-.02,1.875c-.129.8.325,1.175,1.115,1.175.675,0,1.356-.026,2.031-.057a.72.72,0,0,0,.77-.663.6.6,0,0,0,0-.127C919.406,946.972,919.4,946.608,919.4,946.24Z" transform="translate(-838.427 -883.613)" fill="#21587b"/>
      </g>
      <g id="Group_54360" data-name="Group 54360" transform="translate(806.24 892.742)">
        <path id="Path_116867" data-name="Path 116867" d="M760.718,924.652h3.808a1.808,1.808,0,0,1,1.884,1.729v.132c.012,1.2,0,2.392,0,3.59v.419h6.713a3.654,3.654,0,0,1,3.835,3.461c.006.118.006.238,0,.359v23.177a3.656,3.656,0,0,1-3.547,3.763h-1.8v4.662q-.017,3.115-.051,6.23a1.789,1.789,0,0,1-1.769,1.815h-8.827a1.788,1.788,0,0,1-1.859-1.712c0-.054,0-.112,0-.169V968.1H692.5c0,.144-.02.27-.02.4v3.519a1.838,1.838,0,0,1-1.7,1.967,1.989,1.989,0,0,1-.264,0h-8.557a1.818,1.818,0,0,1-1.968-1.649,1.941,1.941,0,0,1,0-.287V961.265H679a16.094,16.094,0,0,1-2.735-.152,3.5,3.5,0,0,1-2.694-3.473V934.4A3.656,3.656,0,0,1,677,930.525a4.152,4.152,0,0,1,.425,0h7.2v-3.984a1.8,1.8,0,0,1,1.7-1.887,1.89,1.89,0,0,1,.19,0h4.5V874.938a1.8,1.8,0,0,1,1.66-1.927,1.825,1.825,0,0,1,1.965,1.669l.006.1c.014.457,0,.916,0,1.376v48.5h4.205a1.806,1.806,0,0,1,1.875,1.741,1.012,1.012,0,0,1,0,.132v3.972h50.55c0-.129.017-.255.017-.385,0-1.126.026-2.249,0-3.372a1.935,1.935,0,0,1,2.08-2.1c1.172.055,2.344,0,3.516,0a.606.606,0,0,0,.126-.029V874.941a1.839,1.839,0,0,1,2.453-1.844,1.916,1.916,0,0,1,1.221,1.948V889.8c0,1.057-.037,2.117-.046,3.174,0,.336.043.675.043,1.014V924.27Zm-83.464,32.965h96.03v-23.4h-96.03Zm90.676,3.676H683.683v3.154H767.93Zm-79.623-32.985V930.5h8.8v-2.189Zm74.433,0h-7.735V930.5h7.735Zm-79.069,42.013h5.136v-2.2h-5.136Zm84.236-2.2h-5.13v2.206h5.13Z" transform="translate(-673.563 -872.99)" fill="#091c30"/>
        <path id="Path_116868" data-name="Path 116868" d="M707.177,873.754a32.6,32.6,0,0,1,15.694,3.987,33.511,33.511,0,0,1,7.356,5.466,1.835,1.835,0,0,1-.632,3.188,1.787,1.787,0,0,1-1.861-.5,29.463,29.463,0,0,0-5.862-4.524,28.639,28.639,0,0,0-10.565-3.688,29.1,29.1,0,0,0-24.593,8.091,1.9,1.9,0,0,1-2.266.508,1.816,1.816,0,0,1-.842-2.43,1.779,1.779,0,0,1,.362-.5,31.059,31.059,0,0,1,4.283-3.619,32.211,32.211,0,0,1,10.717-4.966A32.684,32.684,0,0,1,707.177,873.754Z" transform="translate(-655.101 -871.56)" fill="#091c30"/>
        <path id="Path_116869" data-name="Path 116869" d="M703.56,877.314a26.1,26.1,0,0,1,11.644,2.623A25.8,25.8,0,0,1,722,884.759a1.841,1.841,0,0,1,.141,2.593c-.029.031-.06.063-.092.095a1.869,1.869,0,0,1-2.637-.1h0a22.066,22.066,0,0,0-31.05,0,1.834,1.834,0,1,1-2.551-2.625,25.763,25.763,0,0,1,5.641-4.214,25.278,25.278,0,0,1,10.576-3.116C702.626,877.343,703.229,877.314,703.56,877.314Z" transform="translate(-651.82 -864.897)" fill="#091c30"/>
        <path id="Path_116870" data-name="Path 116870" d="M714.2,889.7a1.835,1.835,0,0,1-1.3-.546,16.423,16.423,0,0,0-23.05-.123,1.909,1.909,0,0,1-2.14.54,1.788,1.788,0,0,1-.552-3.01,27.066,27.066,0,0,1,3.111-2.531,19.042,19.042,0,0,1,9.769-3.28,19.721,19.721,0,0,1,14.356,4.808c.376.322.747.658,1.091,1a1.851,1.851,0,0,1,.391,2.076A1.78,1.78,0,0,1,714.2,889.7Z" transform="translate(-649.239 -858.557)" fill="#091c30"/>
        <path id="Path_116876" data-name="Path 116876" d="M716.624,911.092H686.493a1.84,1.84,0,0,1-1.967-1.362,2.082,2.082,0,0,1-.057-.534V899.189c0-.709.011-1.422.026-2.131a1.768,1.768,0,0,1,1.589-1.531L743,895.5h3.688a1.9,1.9,0,0,1,2.12,1.657,1.821,1.821,0,0,1,0,.468v11.386a1.873,1.873,0,0,1-1.626,2.088,1.964,1.964,0,0,1-.448,0H716.638Zm28.5-11.926h-57v8.246h57Z" transform="translate(-653.145 -830.88)" fill="#091c30"/>
        <path id="Path_116877" data-name="Path 116877" d="M685.407,903.288v5.871a1.848,1.848,0,0,1-1.769,1.93l-.063,0a1.828,1.828,0,0,1-1.807-1.85v-.063c0-1.7.023-3.406.023-5.11,0-2.223-.017-4.443-.023-6.67a1.822,1.822,0,0,1,3.639-.2c0,.072,0,.144,0,.213,0,1.474-.02,2.947-.026,4.417v1.448Z" transform="translate(-658.205 -830.88)" fill="#091c30"/>
        <path id="Path_116878" data-name="Path 116878" d="M683.285,903.3V909.2a1.819,1.819,0,0,1-3.636.089h0V897.367a1.819,1.819,0,0,1,3.636-.138.843.843,0,0,1,0,.118C683.3,899.335,683.285,901.314,683.285,903.3Z" transform="translate(-662.169 -830.884)" fill="#091c30"/>
        <path id="Path_116880" data-name="Path 116880" d="M693.638,897.551a8.5,8.5,0,0,1,1.427.149,1.765,1.765,0,0,1,1.255,1.916,1.8,1.8,0,0,1-1.689,1.6c-.7.032-1.4.035-2.1,0a1.77,1.77,0,0,1-1.652-1.878v-.006a1.788,1.788,0,0,1,1.738-1.735h1.014Z" transform="translate(-641.14 -827.004)" fill="#091c30"/>
        <path id="Path_116881" data-name="Path 116881" d="M699.948,897.556a8.941,8.941,0,0,1,1.362.109,1.805,1.805,0,0,1-.382,3.55,13.388,13.388,0,0,1-2.372-.081,1.7,1.7,0,0,1-1.344-1.967,1.809,1.809,0,0,1,1.749-1.568h.979Z" transform="translate(-629.335 -826.995)" fill="#091c30"/>
        <path id="Path_116882" data-name="Path 116882" d="M690.435,901.2c-.325,0-.655.012-.977,0a1.819,1.819,0,0,1,.086-3.636h1.775a1.816,1.816,0,0,1,.095,3.63c-.328.018-.658,0-.98,0Z" transform="translate(-647.038 -826.972)" fill="#091c30"/>
        <path id="Path_116883" data-name="Path 116883" d="M696.785,897.568h.9a1.825,1.825,0,0,1,1.807,1.721,1.8,1.8,0,0,1-1.62,1.9,16.785,16.785,0,0,1-2.275,0,1.78,1.78,0,0,1-1.565-1.861,1.815,1.815,0,0,1,1.738-1.749h1.011Z" transform="translate(-635.235 -826.972)" fill="#091c30"/>
        <path id="Path_116884" data-name="Path 116884" d="M703.057,897.556a9.506,9.506,0,0,1,1.4.112,1.808,1.808,0,0,1,1.338,1.749,1.786,1.786,0,0,1-1.709,1.764c-.655.031-1.3.046-1.945.034a1.817,1.817,0,0,1,.046-3.633h.876Z" transform="translate(-623.412 -826.995)" fill="#091c30"/>
      </g>
      <path id="Trazado_123095" data-name="Trazado 123095" d="M764.025,898.356c5.19-8.338,12.164-13.876,21.637-16a32.858,32.858,0,0,1,39.71,26.293,3.32,3.32,0,0,0,2.818,3.116,21.927,21.927,0,0,1-.043,42.292,23.431,23.431,0,0,1-6.092.8q-36.8.078-73.591.026A21.937,21.937,0,0,1,738.054,913.8c2.174-1.155,3.312-2.24,3.757-5.015,1.68-10.5,11.633-15.393,21.258-10.852C763.333,898.055,763.6,898.17,764.025,898.356Zm21.35,52.873c12.388,0,24.776.063,37.162-.02a18.3,18.3,0,0,0,4.173-36.068c-3.065-.675-4.38-2.051-4.848-5.041a29.087,29.087,0,0,0-22.987-24.366A29.557,29.557,0,0,0,767.75,899.37c-1.887,3.036-3.277,3.43-6.394,1.815a10.9,10.9,0,0,0-16.1,9.906c.049,2.548-.982,3.881-3.263,4.826a18.325,18.325,0,0,0,7.138,35.312Q767.253,951.256,785.375,951.229Z" transform="translate(232.343 35.753)" fill="#091c30"/>
      <path id="Trazado_123096" data-name="Trazado 123096" d="M869.559,898.356c5.19-8.338,12.167-13.876,21.64-16a32.855,32.855,0,0,1,39.707,26.293,3.323,3.323,0,0,0,2.82,3.116,21.927,21.927,0,0,1-.043,42.292,23.436,23.436,0,0,1-6.095.8q-36.794.078-73.592.026c-9.751-.006-18.48-6.971-21.014-16.682a21.98,21.98,0,0,1,10.6-24.406c2.177-1.155,3.315-2.24,3.757-5.015,1.68-10.5,11.633-15.393,21.261-10.852C868.87,898.055,869.137,898.17,869.559,898.356Zm21.353,52.873c12.385,0,24.774.063,37.162-.02a18.3,18.3,0,0,0,4.173-36.068c-3.068-.675-4.383-2.051-4.851-5.041a29.087,29.087,0,0,0-22.984-24.366,29.555,29.555,0,0,0-31.124,13.635c-1.89,3.036-3.277,3.43-6.394,1.815a10.9,10.9,0,0,0-16.1,9.906c.049,2.548-.979,3.881-3.263,4.826a18.325,18.325,0,0,0,7.138,35.312Q872.788,951.256,890.912,951.229Z" transform="translate(429.938 35.753)" fill="#091c30"/>
      <g id="Grupo_56700" data-name="Grupo 56700" transform="translate(1134.521 922.715)">
        <g id="AUjqIq" transform="translate(0 44.268)">
          <g id="Grupo_56698" data-name="Grupo 56698">
            <path id="Trazado_123097" data-name="Trazado 123097" d="M794.873,948.579c-1.993-.667-3.889-1.442-5.222-3.234a8.4,8.4,0,0,1-1.755-5.012c-.046-3.711-.029-7.422-.006-11.133a8.814,8.814,0,0,1,2.12-5.509c-1.881-2.123-2.226-4.7-2.146-7.434.083-2.932.014-5.868.02-8.8a8.333,8.333,0,0,1,8.617-8.614q41.107,0,82.214,0a8.312,8.312,0,0,1,8.646,8.588c.023,3.151-.046,6.3.023,9.45a9.431,9.431,0,0,1-2.183,6.816c2.183,2.352,2.249,5.262,2.174,8.223-.083,3.191.158,6.411-.2,9.565-.416,3.676-2.726,5.983-6.374,6.859a1.737,1.737,0,0,0-.425.238Zm42.774-22.059c-13.6,0-27.2.029-40.807-.026-2.476-.011-3.429,1.241-3.47,3.323-.066,3.28-.06,6.563,0,9.843.04,2.353,1.186,3.424,3.55,3.438,3.194.023,6.388.006,9.585,0l34.97-.02q18.393,0,36.785-.009c2.562-.006,3.6-1.074,3.608-3.608.011-2.981-.029-5.96.011-8.939.04-2.78-.836-4.061-3.944-4.041C864.507,926.566,851.076,926.52,837.648,926.52Zm-.115-5.627q20.469,0,40.936,0c2.358,0,3.407-1.023,3.421-3.366q.026-4.791-.026-9.585c-.026-2.565-1.046-3.59-3.619-3.6-6.994-.023-13.991-.014-20.985-.014q-17.419,0-34.841,0c-8.5,0-17.01-.023-25.515-.011-2.4,0-3.533,1.163-3.544,3.576-.017,3.108.014,6.216.012,9.323,0,2.4.885,3.728,3.745,3.714C810.588,920.853,824.062,920.893,837.533,920.893Z" transform="translate(-787.854 -898.837)" fill="#091c30"/>
            <path id="Trazado_123098" data-name="Trazado 123098" d="M822.711,915.856c-3.668,0-7.336.04-11-.014a2.536,2.536,0,0,1-2.654-2.806,2.642,2.642,0,0,1,2.76-2.631q11-.047,22.011,0a2.641,2.641,0,0,1,2.723,2.8,2.6,2.6,0,0,1-2.835,2.66c-3.668.032-7.336.009-11,.009Z" transform="translate(-748.161 -877.225)" fill="#091c30"/>
            <path id="Trazado_123099" data-name="Trazado 123099" d="M791.735,913.134a2.744,2.744,0,0,1,2.657-2.749,2.893,2.893,0,0,1,2.792,2.829,2.733,2.733,0,0,1-2.8,2.617A2.583,2.583,0,0,1,791.735,913.134Z" transform="translate(-780.589 -877.216)" fill="#091c30"/>
            <path id="Trazado_123100" data-name="Trazado 123100" d="M822.868,902.711c3.582,0,7.161-.029,10.74.012,1.948.023,2.967,1.051,2.944,2.8a2.714,2.714,0,0,1-3.01,2.648q-10.741.022-21.482,0a2.717,2.717,0,0,1-3-2.789c.006-1.64,1.08-2.648,2.944-2.663C815.621,902.693,819.246,902.711,822.868,902.711Z" transform="translate(-748.16 -891.604)" fill="#091c30"/>
            <path id="Trazado_123101" data-name="Trazado 123101" d="M791.741,905.239a2.563,2.563,0,0,1,2.89-2.525,2.759,2.759,0,0,1,2.548,2.694,2.844,2.844,0,0,1-2.846,2.746A2.737,2.737,0,0,1,791.741,905.239Z" transform="translate(-780.58 -891.584)" fill="#091c30"/>
          </g>
        </g>
        <g id="AUjqIq-2" data-name="AUjqIq">
          <g id="Grupo_56699" data-name="Grupo 56699">
            <path id="Trazado_123102" data-name="Trazado 123102" d="M794.873,933.167c-1.993-.666-3.889-1.442-5.222-3.237a8.391,8.391,0,0,1-1.755-5.009c-.046-3.711-.029-7.422-.006-11.133a8.808,8.808,0,0,1,2.12-5.509c-1.881-2.123-2.226-4.7-2.146-7.434.083-2.933.014-5.868.02-8.8a8.333,8.333,0,0,1,8.617-8.614q41.107,0,82.214,0a8.312,8.312,0,0,1,8.646,8.588c.023,3.151-.046,6.3.023,9.45a9.43,9.43,0,0,1-2.183,6.816c2.183,2.353,2.249,5.259,2.174,8.224-.083,3.191.158,6.411-.2,9.565-.416,3.676-2.726,5.983-6.374,6.856a1.756,1.756,0,0,0-.425.241Zm42.774-22.059c-13.6,0-27.2.029-40.807-.026-2.476-.012-3.429,1.241-3.47,3.323-.066,3.28-.06,6.563,0,9.843.04,2.352,1.186,3.424,3.55,3.438,3.194.02,6.388.006,9.585,0q17.484-.009,34.97-.02,18.393,0,36.785-.011c2.562,0,3.6-1.071,3.608-3.608.011-2.978-.029-5.957.011-8.936.04-2.78-.836-4.061-3.944-4.041C864.507,911.154,851.076,911.108,837.648,911.108Zm-.115-5.627q20.469,0,40.936,0c2.358,0,3.407-1.023,3.421-3.366q.026-4.791-.026-9.585c-.026-2.568-1.046-3.59-3.619-3.6-6.994-.023-13.991-.014-20.985-.017q-17.419,0-34.841,0c-8.5,0-17.01-.02-25.515-.009-2.4,0-3.533,1.16-3.544,3.576-.017,3.108.014,6.216.012,9.323,0,2.4.885,3.728,3.745,3.711C810.588,905.438,824.062,905.481,837.533,905.481Z" transform="translate(-787.854 -883.425)" fill="#091c30"/>
            <path id="Trazado_123103" data-name="Trazado 123103" d="M822.711,900.445c-3.668,0-7.336.037-11-.017a2.533,2.533,0,0,1-2.654-2.8,2.643,2.643,0,0,1,2.76-2.631q11-.047,22.011,0a2.641,2.641,0,0,1,2.723,2.8,2.592,2.592,0,0,1-2.835,2.657c-3.668.035-7.336.012-11,.012Z" transform="translate(-748.161 -861.813)" fill="#091c30"/>
            <path id="Trazado_123104" data-name="Trazado 123104" d="M791.735,897.722a2.744,2.744,0,0,1,2.657-2.749,2.891,2.891,0,0,1,2.792,2.829,2.735,2.735,0,0,1-2.8,2.617A2.583,2.583,0,0,1,791.735,897.722Z" transform="translate(-780.589 -861.804)" fill="#091c30"/>
            <path id="Trazado_123105" data-name="Trazado 123105" d="M822.868,887.3c3.582,0,7.161-.029,10.74.012,1.948.02,2.967,1.051,2.944,2.8a2.715,2.715,0,0,1-3.01,2.648q-10.741.021-21.482,0a2.718,2.718,0,0,1-3-2.792c.006-1.637,1.08-2.648,2.944-2.66C815.621,887.278,819.246,887.3,822.868,887.3Z" transform="translate(-748.16 -876.192)" fill="#091c30"/>
            <path id="Trazado_123106" data-name="Trazado 123106" d="M791.741,889.827a2.562,2.562,0,0,1,2.89-2.525A2.758,2.758,0,0,1,797.178,890a2.84,2.84,0,0,1-2.846,2.743A2.735,2.735,0,0,1,791.741,889.827Z" transform="translate(-780.58 -876.173)" fill="#091c30"/>
          </g>
        </g>
      </g>
      <g id="Grupo_56701" data-name="Grupo 56701" transform="translate(1471.524 926.898)">
        <path id="Trazado_123107" data-name="Trazado 123107" d="M952.981,928.542V940.3c0,8,.043,16.007-.029,24.01-.043,4.656-3.088,7.615-7.7,7.623q-16.217.03-32.434,0a7.225,7.225,0,0,1-7.589-7.08c-.049-.629-.049-1.264-.049-1.9q0-34.541.02-69.082a14.106,14.106,0,0,1,.534-4.139,6.593,6.593,0,0,1,6.457-4.811q16.85-.073,33.7,0c4.11.023,7.034,3.191,7.058,7.6.06,11.656.023,23.309.026,34.965C952.979,927.844,952.979,928.192,952.981,928.542Zm-4.36-35.588H909.647v61.421h38.974Zm-16.062,68.438a3.484,3.484,0,1,0-3.539,3.7A3.65,3.65,0,0,0,932.559,961.393Z" transform="translate(-905.183 -884.882)" fill="#21587b"/>
      </g>
      <g id="Grupo_56702" data-name="Grupo 56702" transform="translate(929.489 1038.464)">
        <path id="Trazado_123108" data-name="Trazado 123108" d="M764.267,967.384q0,5.881,0,11.757c0,8,.043,16.007-.029,24.01-.043,4.656-3.088,7.614-7.692,7.623q-16.217.03-32.437,0a7.225,7.225,0,0,1-7.588-7.08c-.049-.629-.046-1.264-.046-1.9q0-34.541.02-69.082a13.909,13.909,0,0,1,.534-4.139,6.59,6.59,0,0,1,6.454-4.811q16.85-.073,33.7,0c4.107.023,7.034,3.191,7.054,7.6.06,11.656.026,23.309.029,34.965Zm-4.36-35.588H720.936v61.422h38.971Zm-16.062,68.439a3.483,3.483,0,1,0-3.539,3.7A3.648,3.648,0,0,0,743.845,1000.235Z" transform="translate(-716.472 -923.724)" fill="#091c30"/>
      </g>
      <text id="LAN" transform="translate(645.81 883.047)" fill="#091c30" font-size="18" font-family="Roboto-Black, Roboto" font-weight="800"><tspan x="0" y="0">LAN</tspan></text>
      <text id="Teléfonos_IP_Oficina_Local" data-name="Teléfonos IP
Oficina Local" transform="translate(655.699 1190.148)" fill="#091c30" font-size="18" font-family="Roboto-Black, Roboto" font-weight="800"><tspan x="-51.816" y="0">Teléfonos IP</tspan><tspan x="-53.038" y="20">Oficina Local</tspan></text>
      <text id="Teléfonos_IP_Convencionales" data-name="Teléfonos IP
Convencionales" transform="translate(1484.943 1190.23)" fill="#091c30" font-size="18" font-family="Roboto-Black, Roboto" font-weight="800"><tspan x="-51.816" y="0">Teléfonos IP</tspan><tspan x="-64.701" y="20">Convencionales</tspan></text>
      <text id="Teléfonos_IP_Oficina_remota" data-name="Teléfonos IP
Oficina remota" transform="translate(927.257 1190.23)" fill="#091c30" font-size="18" font-family="Roboto-Black, Roboto" font-weight="800"><tspan x="-51.816" y="0">Teléfonos IP</tspan><tspan x="-60.161" y="20">Oficina remota</tspan></text>
      <text id="Software_IP_en_la_nube" data-name="Software IP
en la nube" transform="translate(1238.478 1190.23)" fill="#091c30" font-size="18" font-family="Roboto-BlackItalic, Roboto" font-weight="800" font-style="italic"><tspan x="-46.709" y="0">Software </tspan><tspan y="0" font-family="Roboto-Black, Roboto" font-style="normal">IP</tspan><tspan font-family="Roboto-Black, Roboto" font-style="normal"><tspan x="-41.827" y="20">en la nube</tspan></tspan></text>
      <text id="PSTN" transform="translate(1465.706 881.269)" fill="#091c30" font-size="18" font-family="Roboto-Black, Roboto" font-weight="800"><tspan x="0" y="0">PSTN</tspan></text>
      <text id="Red_privada" data-name="Red privada" transform="translate(878.867 878.315)" fill="#091c30" font-size="18" font-family="Roboto-Black, Roboto" font-weight="800"><tspan x="0" y="0">Red privada</tspan></text>
      <text id="Internet" transform="translate(1207.271 878.396)" fill="#091c30" font-size="18" font-family="Roboto-Black, Roboto" font-weight="800"><tspan x="0" y="0">Internet</tspan></text>
      <line id="Línea_1663" data-name="Línea 1663" y2="285.576" transform="translate(747.885 866.558)" fill="#feffff" stroke="#6e40fc" stroke-linecap="round" stroke-miterlimit="10" stroke-width="4" stroke-dasharray="7 5"/>
      <line id="Línea_1664" data-name="Línea 1664" y2="285.576" transform="translate(1096.945 866.558)" fill="#feffff" stroke="#6e40fc" stroke-linecap="round" stroke-miterlimit="10" stroke-width="4" stroke-dasharray="7 5"/>
      <line id="Línea_1665" data-name="Línea 1665" y2="285.576" transform="translate(1394.54 866.558)" fill="#feffff" stroke="#6e40fc" stroke-linecap="round" stroke-miterlimit="10" stroke-width="4" stroke-dasharray="7 5"/>
      <line id="Línea_1666" data-name="Línea 1666" x2="93.944" transform="translate(712.296 967.435)" fill="#feffff" stroke="#091c30" stroke-miterlimit="10" stroke-width="5"/>
      <line id="Línea_1667" data-name="Línea 1667" x2="53.265" transform="translate(909.637 967.798)" fill="#feffff" stroke="#091c30" stroke-miterlimit="10" stroke-width="5"/>
      <line id="Línea_1668" data-name="Línea 1668" x2="59.679" transform="translate(1076.639 967.798)" fill="#feffff" stroke="#091c30" stroke-miterlimit="10" stroke-width="5"/>
      <line id="Línea_1669" data-name="Línea 1669" x2="29.862" transform="translate(1232.428 967.798)" fill="#feffff" stroke="#091c30" stroke-miterlimit="10" stroke-width="5"/>
      <line id="Línea_1670" data-name="Línea 1670" x2="91.917" transform="translate(1379.609 967.798)" fill="#feffff" stroke="#21587b" stroke-miterlimit="10" stroke-width="5"/>
      <path id="Trazado_123109" data-name="Trazado 123109" d="M865.495,907.064v75.31h59.913" transform="translate(492.033 83.549)" fill="none" stroke="#21587b" stroke-miterlimit="10" stroke-width="5"/>
      <path id="Trazado_123110" data-name="Trazado 123110" d="M724.81,959.666V921.643h20.9V906.11" transform="translate(228.629 81.763)" fill="none" stroke="#091c30" stroke-miterlimit="10" stroke-width="5"/>
      <path id="Trazado_123111" data-name="Trazado 123111" d="M640.848,988.285H778.211V905.808" transform="translate(71.426 81.198)" fill="none" stroke="#091c30" stroke-miterlimit="10" stroke-width="5"/>
    </g>
  </g>
</svg>
