<svg xmlns="http://www.w3.org/2000/svg" width="85" height="68" viewBox="0 0 85 68">
  <g id="Grupo_1069137" data-name="Grupo 1069137" transform="translate(-180 -417)">
    <rect id="Rectángulo_376740" data-name="Rectángulo 376740" width="85" height="68" rx="10" transform="translate(180 417)" fill="#fee0e7"/>
    <g id="telephone" transform="translate(195.843 425.29)">
      <g id="Grupo_1069136" data-name="Grupo 1069136" transform="translate(1.02 8.124)">
        <path id="Trazado_806301" data-name="Trazado 806301" d="M33.506,226.715c-2.67-1.887-3.8-2.1-5.464-.842-.631.883-3.284-.087-5.476-2.277-.455-.454-.9-.952-1.326-1.47s-.82-1.059-1.173-1.6c-1.7-2.587-2.117-5.382-1.127-5.819,1.576-1.378,1.593-2.524.284-5.519-.57-1.406-1.419-3.441-2.586-3.921a3.782,3.782,0,0,0-2.473.44,7.635,7.635,0,0,0-2.887,2.923,10.992,10.992,0,0,0-.883,7.18c1.283,6.225,9.006,15.694,14.835,18.2a11.009,11.009,0,0,0,7.216.59,7.639,7.639,0,0,0,3.449-2.234,3.77,3.77,0,0,0,.929-2.33c-.231-1.242-2.056-2.483-3.319-3.325Zm0,0" transform="translate(-10.159 -192.7)" fill="#579fff" fill-rule="evenodd"/>
        <path id="Trazado_806302" data-name="Trazado 806302" d="M143.686,107.425l6.6-.663,0,0a16.778,16.778,0,0,0,4.185,1.667c8.36,2.1,17.045-2.243,19.4-9.7a13,13,0,0,0-3.979-13.691,2.167,2.167,0,0,1-3.588-2.411,16.91,16.91,0,0,0-3.307-1.2c-8.36-2.1-17.045,2.24-19.4,9.7a12.62,12.62,0,0,0,1.222,10.334Zm0,0" transform="translate(-129.658 -80.897)" fill="#cbe558" fill-rule="evenodd"/>
        <path id="Trazado_806303" data-name="Trazado 806303" d="M375.605,87.776a2.165,2.165,0,1,0,.42,3.033A2.169,2.169,0,0,0,375.605,87.776Zm0,0" transform="translate(-335.779 -86.691)" fill="#f46370" fill-rule="evenodd"/>
      </g>
      <path id="Trazado_806304" data-name="Trazado 806304" d="M161.993,75.659a3.192,3.192,0,0,0-1.056-3.67h0a3.2,3.2,0,0,0-4.091.207,18.426,18.426,0,0,0-15.425.4,15.332,15.332,0,0,0-7.965,9.039,13.59,13.59,0,0,0,1.122,10.823l-1.06,5.6a1.022,1.022,0,0,0,1.106,1.207l6.284-.631a17.9,17.9,0,0,0,4.146,1.607,18.583,18.583,0,0,0,11.207-.7,1.022,1.022,0,0,0-.746-1.9,16.5,16.5,0,0,1-9.962.618,15.789,15.789,0,0,1-3.93-1.565,1.016,1.016,0,0,0-.676-.118l-5.166.519.876-4.624a1.02,1.02,0,0,0-.125-.71,11.6,11.6,0,0,1-1.127-9.506c2.191-6.939,10.344-10.982,18.176-9.014a16.17,16.17,0,0,1,2.292.761,3.187,3.187,0,0,0,4.815,3.24,11.935,11.935,0,0,1,3.041,12,12.364,12.364,0,0,1-2.315,4.211,1.022,1.022,0,0,0,1.571,1.308,14.4,14.4,0,0,0,2.694-4.9,13.971,13.971,0,0,0-3.683-14.2Zm-3.671-.218a1.143,1.143,0,1,1,1.6-.222A1.145,1.145,0,0,1,158.321,75.441Zm0,0" transform="translate(-119.474 -63.595)"/>
      <path id="Trazado_806305" data-name="Trazado 806305" d="M371.62,39.134a5.176,5.176,0,0,1,4.23.931,5.124,5.124,0,0,1,2.055,4.176,1.022,1.022,0,0,0,1.013,1.031h.009a1.022,1.022,0,0,0,1.022-1.013,7.226,7.226,0,0,0-8.762-7.123,1.022,1.022,0,1,0,.433,2Zm0,0" transform="translate(-333.184 -33.258)"/>
      <path id="Trazado_806306" data-name="Trazado 806306" d="M378.262,2.077A10.254,10.254,0,0,0,369.891.235a1.022,1.022,0,0,0,.434,2,8.217,8.217,0,0,1,9.965,8.1,1.021,1.021,0,0,0,1.013,1.03h.009a1.022,1.022,0,0,0,1.022-1.014,10.3,10.3,0,0,0-4.072-8.272Zm0,0" transform="translate(-332.02 0)"/>
      <path id="Trazado_806307" data-name="Trazado 806307" d="M24.945,216.745c-2.711-1.914-4.4-2.523-6.659-.814a.987.987,0,0,0-.131.118c-.465.06-2.2-.5-4.006-2.3-.415-.415-.839-.885-1.253-1.389-.421-.521-.8-1.031-1.114-1.517-1.4-2.124-1.6-3.939-1.448-4.385a1.033,1.033,0,0,0,.141-.1c2.135-1.867,1.88-3.644.553-6.685-.784-1.932-1.674-3.866-3.141-4.47a4.708,4.708,0,0,0-3.337.481,8.692,8.692,0,0,0-3.3,3.329,12.043,12.043,0,0,0-.992,7.884c1.351,6.556,9.284,16.289,15.431,18.935a13.166,13.166,0,0,0,5.044,1.044,9.643,9.643,0,0,0,2.883-.417,8.572,8.572,0,0,0,3.931-2.558,4.7,4.7,0,0,0,1.147-3.169c-.291-1.559-2.008-2.821-3.745-3.98Zm1.021,5.848A6.651,6.651,0,0,1,23,224.5a10.092,10.092,0,0,1-6.506-.554c-2.595-1.117-5.86-3.889-8.734-7.415s-4.933-7.287-5.5-10.055h0A10.075,10.075,0,0,1,3.032,200,6.642,6.642,0,0,1,5.5,197.484a3.913,3.913,0,0,1,1.473-.412.482.482,0,0,1,.133.015c.8.328,1.66,2.453,2.028,3.36l.011.025c1.274,2.916.986,3.447.068,4.263a1.874,1.874,0,0,0-.84,1.14c-.427,1.449.255,3.9,1.7,6.087.355.54.769,1.105,1.237,1.685.462.563.931,1.082,1.393,1.544,1.856,1.854,4.113,3.017,5.619,2.892a1.88,1.88,0,0,0,1.29-.593c.984-.732,1.562-.907,4.164.932l.022.016c.815.543,2.723,1.816,2.88,2.655a3.291,3.291,0,0,1-.713,1.5Zm0,0" transform="translate(0 -175.448)"/>
      <path id="Trazado_806308" data-name="Trazado 806308" d="M181.531,183.955l-1.109,3-1.109-3,0-.006a1.031,1.031,0,0,0-1.005-.7,1.1,1.1,0,0,0-.776.31,1.029,1.029,0,0,0-.33.755,1.329,1.329,0,0,0,.026.26c.018.067.035.133.058.2l0,.009,2.085,5.232,0,0a1.648,1.648,0,0,0,.4.611,1.051,1.051,0,0,0,.675.194,1.117,1.117,0,0,0,1.025-.813l2.079-5.218a1.273,1.273,0,0,0,.09-.477,1.03,1.03,0,0,0-.324-.758,1.1,1.1,0,0,0-.779-.307A1.02,1.02,0,0,0,181.531,183.955Zm0,0" transform="translate(-159.403 -164.843)"/>
      <path id="Trazado_806309" data-name="Trazado 806309" d="M371.016,183.687a2.715,2.715,0,0,0-1.949-.729h-1.781a1.112,1.112,0,0,0-1.115,1.123v5.264a1.077,1.077,0,0,0,.322.784,1.07,1.07,0,0,0,1.529,0,1.044,1.044,0,0,0,.321-.764v-1.2h.817a2.6,2.6,0,0,0,1.9-.718,2.743,2.743,0,0,0-.044-3.759ZM369.389,186a.557.557,0,0,1-.405.177h-.64v-1.213h.648a.522.522,0,0,1,.4.174.619.619,0,0,1,.171.446A.568.568,0,0,1,369.389,186Zm0,0" transform="translate(-329.398 -164.583)"/>
      <path id="Trazado_806310" data-name="Trazado 806310" d="M250.177,182.7a3.463,3.463,0,0,0-2.618,1.079,3.829,3.829,0,0,0-1.016,2.729,3.879,3.879,0,0,0,1.022,2.758,3.645,3.645,0,0,0,5.213-.012,4.179,4.179,0,0,0,0-5.464,3.423,3.423,0,0,0-2.6-1.091Zm.978,5.183a1.277,1.277,0,0,1-1.978.006,2.167,2.167,0,0,1-.4-1.369,2.05,2.05,0,0,1,.405-1.334,1.2,1.2,0,0,1,.982-.466,1.185,1.185,0,0,1,.99.466,2.135,2.135,0,0,1,.4,1.352A2.113,2.113,0,0,1,251.155,187.882Zm0,0" transform="translate(-221.783 -164.351)"/>
      <path id="Trazado_806311" data-name="Trazado 806311" d="M331.493,182.548a1.084,1.084,0,0,0-.321.764v5.377a1.087,1.087,0,0,0,1.856.767,1.038,1.038,0,0,0,.316-.758v-5.386a1.089,1.089,0,0,0-.31-.776,1.051,1.051,0,0,0-1.541.012Zm0,0" transform="translate(-297.913 -163.908)"/>
      <path id="Trazado_806312" data-name="Trazado 806312" d="M385.649,320.977l-.018.011a1.022,1.022,0,1,0,1.134,1.7l.017-.011a1.022,1.022,0,0,0-1.134-1.7Zm0,0" transform="translate(-346.494 -288.586)"/>
    </g>
  </g>
</svg>
