<svg xmlns="http://www.w3.org/2000/svg" width="622.294" height="147.924" viewBox="0 0 622.294 147.924">
  <g id="Grupo_1069140" data-name="Grupo 1069140" transform="translate(-355.468 -1378.03)">
    <line id="Línea_1642" data-name="Línea 1642" x2="69.642" transform="translate(490.81 1425.326)" fill="none" stroke="#12263f" stroke-miterlimit="10" stroke-width="4"/>
    <line id="Línea_1643" data-name="Línea 1643" x2="69.642" transform="translate(624.814 1425.326)" fill="none" stroke="#12263f" stroke-miterlimit="10" stroke-width="4"/>
    <g id="Grupo_56652" data-name="Grupo 56652" transform="translate(431.595 1397.058)">
      <path id="Path_122972" data-name="Path 122972" d="M455.425,1388.646v22.168a1.014,1.014,0,0,1-1.174,1.17q-4.284.006-8.564,0h-19.2q-5.6,0-11.2,0a.429.429,0,0,0-.458.3,8.172,8.172,0,0,1-13.855,1.482,12.048,12.048,0,0,1-.936-1.536.39.39,0,0,0-.409-.24q-2.148.012-4.3,0a1.02,1.02,0,0,1-1.147-.875,1,1,0,0,1,0-.277V1366.5a1.041,1.041,0,0,1,.9-1.167,1.052,1.052,0,0,1,.271,0c1.414,0,2.827,0,4.241.006a.374.374,0,0,0,.393-.258,8.045,8.045,0,0,1,6.658-4.778,8.159,8.159,0,0,1,7.964,4.2,1.6,1.6,0,0,1,.177.34c.106.468.415.5.832.5,3.367-.018,6.735-.01,10.1-.01h28.5c.84,0,1.206.366,1.206,1.208q0,6.612-.008,13.218,0,4.444,0,8.886Zm-2.04,21.318v-42.59h-37.8v42.593Zm-52.1-21.357h-.014v2.488q.006,4.815.012,9.63c0,2.569.018,5.138-.006,7.7a6.186,6.186,0,0,0,.946,3.606,5.95,5.95,0,0,0,5.82,2.85,6.136,6.136,0,0,0,5.568-6.161v-40a7.655,7.655,0,0,0-.073-1.182,6.11,6.11,0,0,0-6.471-5.234,5.956,5.956,0,0,0-5.252,3.627,6.8,6.8,0,0,0-.541,3.021q.021,9.825.008,19.648Zm-1.989,21.347v-42.6h-2.671c-.421,0-.421,0-.421.411v42.187Z" transform="translate(-394.171 -1360.267)" fill="#091c30"/>
      <path id="Path_122973" data-name="Path 122973" d="M422.484,1377.622H412.47a1.023,1.023,0,0,1-1.141-.889,1.079,1.079,0,0,1,0-.24q-.009-4.975,0-9.953a1,1,0,0,1,.9-1.093,1.038,1.038,0,0,1,.195,0q6.948,0,13.9,0,3.08.006,6.161,0a1.05,1.05,0,0,1,1.184.893,1.2,1.2,0,0,1,0,.291v9.808a1.042,1.042,0,0,1-1.186,1.18q-4.429,0-8.859-.014H422.5Zm-9.133-2.02h6.8q5.568,0,11.145.006c.271,0,.344-.069.344-.346q-.015-3.747,0-7.5c0-.224-.051-.307-.295-.3-2.41.008-4.821,0-7.231,0H413.353Z" transform="translate(-377.585 -1355.27)" fill="#091c30"/>
      <path id="Path_122974" data-name="Path 122974" d="M419.539,1375.776a8.483,8.483,0,0,1,.073-1.092,2.354,2.354,0,0,1,2.258-2.016,10.6,10.6,0,0,1,1.656,0,2.361,2.361,0,0,1,2.276,2.2,8.789,8.789,0,0,1,0,1.833,2.343,2.343,0,0,1-2.207,2.176,9.646,9.646,0,0,1-1.92-.024,2.387,2.387,0,0,1-2.109-2.366c-.006-.238,0-.474,0-.714Zm3.122,1.113v-.008c.226,0,.454.008.68,0a.436.436,0,0,0,.464-.407.3.3,0,0,0,0-.061c.014-.413.02-.83.008-1.243a.446.446,0,0,0-.5-.486c-.415-.006-.828-.006-1.245,0-.332.006-.482.157-.486.5-.008.4,0,.791,0,1.186a.475.475,0,0,0,.419.525.586.586,0,0,0,.1,0l.561,0Z" transform="translate(-369.64 -1348.308)" fill="#091c30"/>
      <path id="Path_122975" data-name="Path 122975" d="M411.242,1375.771a9.13,9.13,0,0,1,.1-1.2,2.345,2.345,0,0,1,2.148-1.894,12.2,12.2,0,0,1,1.776-.006,2.411,2.411,0,0,1,2.258,2.439c0,.425,0,.85,0,1.273a2.354,2.354,0,0,1-2.146,2.473,8.5,8.5,0,0,1-2.35-.081,2.3,2.3,0,0,1-1.749-2.17c-.01-.277,0-.551,0-.828Zm3.2-1.087h0c-.236,0-.472-.008-.71,0a.409.409,0,0,0-.446.367.493.493,0,0,0,0,.077c-.008.436,0,.869,0,1.3a.408.408,0,0,0,.38.437.175.175,0,0,0,.045,0c.462.018.928.014,1.391,0a.384.384,0,0,0,.4-.37.153.153,0,0,0,0-.031c.01-.466.012-.931,0-1.393a.371.371,0,0,0-.346-.393H415.1c-.22,0-.439,0-.655,0Z" transform="translate(-377.663 -1348.306)" fill="#091c30"/>
      <path id="Path_122976" data-name="Path 122976" d="M421.645,1375.763a8.212,8.212,0,0,1-.008,1.033,2.369,2.369,0,0,1-2.2,2.079,10.245,10.245,0,0,1-1.951-.026,2.358,2.358,0,0,1-2.057-2.25c-.022-.572-.022-1.147,0-1.719a2.4,2.4,0,0,1,2.323-2.219,11.883,11.883,0,0,1,1.776.025,2.389,2.389,0,0,1,2.136,2.305c0,.255,0,.51,0,.771Zm-3.106-1.078v0h-.562a.318.318,0,0,0-.061,0c-.328.01-.474.146-.48.464-.01.425-.01.85,0,1.273a.413.413,0,0,0,.366.455.49.49,0,0,0,.071,0c.45.016.909.014,1.363,0a.386.386,0,0,0,.4-.368.093.093,0,0,0,0-.023q.018-.693,0-1.392a.381.381,0,0,0-.362-.4c-.018,0-.037,0-.055,0-.228-.008-.454,0-.683,0Z" transform="translate(-373.636 -1348.305)" fill="#091c30"/>
      <path id="Path_122977" data-name="Path 122977" d="M422.661,1387.176a7.348,7.348,0,0,1-1.373-.154,2.222,2.222,0,0,1-1.686-1.967,9.2,9.2,0,0,1,0-2.093,2.3,2.3,0,0,1,2.113-2.031,10.039,10.039,0,0,1,1.949,0,2.352,2.352,0,0,1,2.13,2.223,9.52,9.52,0,0,1-.024,1.894,2.364,2.364,0,0,1-2.368,2.091h-.744Zm0-2.054c.226,0,.453,0,.681,0a.44.44,0,0,0,.46-.413.47.47,0,0,0,0-.053c.01-.423.012-.848,0-1.272a.437.437,0,0,0-.411-.46h-.059c-.433-.01-.867-.008-1.3,0a.424.424,0,0,0-.452.391.378.378,0,0,0,0,.047c-.014.437-.014.867,0,1.3a.426.426,0,0,0,.393.456.509.509,0,0,0,.075,0c.2.01.413,0,.62,0Z" transform="translate(-369.635 -1340.333)" fill="#091c30"/>
      <path id="Path_122978" data-name="Path 122978" d="M414.4,1383.037a10.288,10.288,0,0,1-1.322-.12,2.375,2.375,0,0,1-1.815-2.248c-.014-.494-.008-.987,0-1.479a2.425,2.425,0,0,1,2.429-2.419h.01a13.542,13.542,0,0,1,1.829.057,2.333,2.333,0,0,1,1.957,2.121,14.477,14.477,0,0,1,0,1.892,2.39,2.39,0,0,1-2.225,2.148c-.285.014-.574,0-.859,0Zm0-2.054h.618c.325-.016.462-.15.468-.476.006-.405.006-.806,0-1.212,0-.354-.146-.507-.5-.511q-.62-.012-1.237,0a.431.431,0,0,0-.472.385.384.384,0,0,0,0,.067c-.008.437-.008.868,0,1.3a.41.41,0,0,0,.37.447.426.426,0,0,0,.073,0C413.947,1380.993,414.171,1380.984,414.4,1380.984Z" transform="translate(-377.652 -1344.318)" fill="#091c30"/>
      <path id="Path_122979" data-name="Path 122979" d="M418.415,1387.129a3,3,0,0,1-1.841-.352,2.357,2.357,0,0,1-1.151-1.928c-.024-.519-.02-1.044-.006-1.566a2.366,2.366,0,0,1,2.093-2.346,9.565,9.565,0,0,1,2.122.018,2.347,2.347,0,0,1,2.024,2.278c.014.535.014,1.068,0,1.6a2.4,2.4,0,0,1-2.309,2.294C419.072,1387.133,418.8,1387.129,418.415,1387.129Zm1.229-3.124c0-.207.006-.413,0-.62a.429.429,0,0,0-.393-.466.577.577,0,0,0-.061,0c-.433-.008-.867-.01-1.3,0a.413.413,0,0,0-.454.368c0,.021,0,.043,0,.065-.008.444-.006.887,0,1.329a.4.4,0,0,0,.358.433.34.34,0,0,0,.065,0c.454.012.9.01,1.359,0a.4.4,0,0,0,.427-.37.3.3,0,0,0,0-.057C419.654,1384.46,419.644,1384.232,419.644,1384.005Z" transform="translate(-373.636 -1340.33)" fill="#091c30"/>
      <path id="Path_122980" data-name="Path 122980" d="M422.679,1382.993a3.49,3.49,0,0,1-1.764-.244,2.288,2.288,0,0,1-1.32-1.845,10.23,10.23,0,0,1,.016-2.124,2.375,2.375,0,0,1,2.327-2.012c.455-.008.907,0,1.361,0a2.408,2.408,0,0,1,2.5,2.258,9.675,9.675,0,0,1-.03,1.895,2.361,2.361,0,0,1-2.262,2.075C423.233,1383.005,422.956,1382.993,422.679,1382.993Zm-.02-2.012h.651c.321-.008.48-.149.49-.466.014-.423.01-.848,0-1.273a.44.44,0,0,0-.413-.46c-.02,0-.039,0-.059,0-.437-.008-.867-.008-1.3,0a.436.436,0,0,0-.458.415.5.5,0,0,0,0,.055c-.01.425-.01.848,0,1.273a.417.417,0,0,0,.38.451.318.318,0,0,0,.057,0c.22.011.437,0,.653,0Z" transform="translate(-369.633 -1344.316)" fill="#091c30"/>
      <path id="Path_122981" data-name="Path 122981" d="M414.351,1387.216a8.432,8.432,0,0,1-1.635-.3,2.21,2.21,0,0,1-1.444-2.089,10.092,10.092,0,0,1,.059-1.978,2.286,2.286,0,0,1,2.06-1.912,9.223,9.223,0,0,1,2.1.026,2.354,2.354,0,0,1,2.024,2.311q.027.756,0,1.511a2.411,2.411,0,0,1-2.437,2.355h-.71Zm1.137-3.177h0v-.679a.4.4,0,0,0-.37-.435.5.5,0,0,0-.051,0c-.452-.016-.907-.014-1.357,0a.41.41,0,0,0-.431.384v.049c-.01.444-.014.887,0,1.328a.4.4,0,0,0,.368.433c.02,0,.039,0,.059,0,.453.01.9.008,1.357,0a.4.4,0,0,0,.425-.364.38.38,0,0,0,0-.067c.008-.212,0-.431,0-.647Z" transform="translate(-377.657 -1340.332)" fill="#091c30"/>
      <path id="Path_122982" data-name="Path 122982" d="M418.512,1383a3.168,3.168,0,0,1-1.839-.312,2.36,2.36,0,0,1-1.253-2.014q-.021-.773,0-1.541a2.416,2.416,0,0,1,2.4-2.361,13.786,13.786,0,0,1,1.8.05,2.364,2.364,0,0,1,2.026,2.311q.018.741,0,1.48a2.409,2.409,0,0,1-2.347,2.387C419.045,1383.01,418.778,1383,418.512,1383Zm1.133-3.09c0-.214.006-.433,0-.649a.431.431,0,0,0-.383-.474.369.369,0,0,0-.1,0c-.413-.006-.828-.008-1.241,0a.437.437,0,0,0-.49.377.4.4,0,0,0,0,.118,6.876,6.876,0,0,1-.012,1.066c-.073.452.185.667.633.667.386,0,.771-.014,1.155-.032a.409.409,0,0,0,.437-.377.431.431,0,0,0,0-.073C419.651,1380.325,419.645,1380.119,419.645,1379.908Z" transform="translate(-373.633 -1344.319)" fill="#091c30"/>
    </g>
    <text id="Internet" transform="translate(552.008 1499.211)" fill="#091c30" font-size="22" font-family="Roboto-Black, Roboto" font-weight="800"><tspan x="0" y="0">Internet</tspan></text>
    <g id="Group_56632" data-name="Group 56632" transform="translate(552.833 1378.03)">
      <path id="Path_122983" data-name="Path 122983" d="M495.5,1441.836a22.51,22.51,0,0,1-3.788-1.43,9.528,9.528,0,0,1,1.239-17.014A9.224,9.224,0,0,1,503,1425.1c.242.208.484.431.759.681l14.941-8.623a9.973,9.973,0,0,1-.2-5.467.656.656,0,0,0-.254-.57c-1.406-.811-2.834-1.59-4.245-2.374a21.582,21.582,0,0,1-34.853-.13c-1.409.791-2.838,1.576-4.233,2.4a.866.866,0,0,0-.195.743,9.175,9.175,0,0,1-.065,4.75c-.167.561.073.792.508,1.042q4.756,2.714,9.492,5.456c.33.191.655.4,1.072.643l-1.983,3.425-11.271-6.495a9.953,9.953,0,0,1-4.973,2.854,9.566,9.566,0,0,1-5.045-18.436c.848-.268,1-.643.991-1.422q-.047-7.261,0-14.522a.952.952,0,0,0-.763-1.109l-.033-.006a9.551,9.551,0,0,1,.769-18.507,9.26,9.26,0,0,1,8.029,1.919c.23.185.452.38.738.616l7.006-4.04c2.547-1.468,5.081-2.952,7.642-4.392a.85.85,0,0,0,.482-1.1l-.012-.029a9.556,9.556,0,0,1,7.028-11.543c.153-.037.307-.071.462-.1a9.552,9.552,0,0,1,11.2,7.553c.053.275.094.555.124.834a13.176,13.176,0,0,1-.226,3.265c-.073.511-.051.806.433,1.082q7.108,4.074,14.184,8.192a.728.728,0,0,0,1-.11,9.139,9.139,0,0,1,10.309-1.456,9.546,9.546,0,0,1-.275,17.445,9.2,9.2,0,0,1-10.067-1.6c-.3-.244-.566-.517-.887-.816l-4.384,2.486a22.353,22.353,0,0,1,1.758,8.867,22.006,22.006,0,0,1-2,8.755l4.583,2.547a10.077,10.077,0,0,1,5.264-3.108v-13.354h3.979v5.276c0,2.437.014,4.872-.018,7.309a.86.86,0,0,0,.71.986l.018,0a9.552,9.552,0,0,1-1.168,18.608,9.25,9.25,0,0,1-7.793-2.2c-.271-.226-.529-.47-.824-.737q-4.756,2.75-9.489,5.478c-1.617.938-3.23,1.884-4.862,2.791a.812.812,0,0,0-.48,1.042l0,.012a9.516,9.516,0,0,1-6.882,11.568c-.26.067-.523.122-.789.167a1.843,1.843,0,0,0-.39.177Zm-16.89-57.209c4.347-6.194,10.187-9.66,17.732-9.754s13.464,3.238,17.939,9.27c1.334-.747,2.64-1.449,3.9-2.224a.986.986,0,0,0,.295-.86,9.266,9.266,0,0,1,.181-5.093.708.708,0,0,0-.3-.954.85.85,0,0,0-.089-.04c-1.507-.832-2.988-1.707-4.479-2.567q-5-2.894-9.994-5.775a9.836,9.836,0,0,1-13.9.486c-.167-.155-.33-.318-.486-.486q-7.3,4.214-14.611,8.46a.8.8,0,0,0-.271.7,9.9,9.9,0,0,1-.018,6.041.732.732,0,0,0,.226.643c1.279.745,2.579,1.446,3.879,2.154Zm-1.831,3.55c-1.456-.8-2.876-1.6-4.316-2.351-.177-.086-.519.063-.745.181-1.251.653-2.5,1.314-3.718,2.01-.254.145-.586.468-.586.708q-.047,7.695,0,15.4a.894.894,0,0,0,.472.681,10.687,10.687,0,0,1,4.4,2.6.689.689,0,0,0,.6.149c1.456-.783,2.876-1.609,4.294-2.41-2.482-6.273-2.587-10.706-.4-16.969Zm25.47,8.157c-.1-1.578-.181-3.234-.327-4.888-.018-.217-.364-.579-.557-.579q-4.756-.056-9.506,0a.891.891,0,0,0-.606.639c-.045,3.106-.032,6.218-.037,9.327,0,.513.222.748.757.748q4.621-.021,9.237,0c.508,0,.728-.181.761-.728.059-1.477.177-2.954.281-4.52Zm-42.439-17.541a5.585,5.585,0,1,1,.006,0Zm73.565-.01a5.581,5.581,0,0,0-5.565-5.594c-.039,0-.079,0-.12,0a5.578,5.578,0,0,0-5.484,5.671v.03a5.594,5.594,0,0,0,5.673,5.511h.006a5.594,5.594,0,0,0,5.494-5.617Zm0,35.328a5.587,5.587,0,0,0-5.547-5.625H527.8a5.613,5.613,0,0,0-.122,11.224h.094a5.6,5.6,0,0,0,5.6-5.592Zm-62.386.11a5.589,5.589,0,1,0-5.749,5.492h.035a5.629,5.629,0,0,0,5.718-5.492Zm25.659-59.615a5.53,5.53,0,0,0-5.637,5.425l0,.1a5.542,5.542,0,0,0,5.454,5.628c.057,0,.114,0,.169,0a5.535,5.535,0,0,0,5.547-5.527v0a5.529,5.529,0,0,0-5.433-5.627h-.1Zm-.091,83.2a5.56,5.56,0,0,0,5.628-5.5l0-.047a5.592,5.592,0,0,0-11.18-.228c0,.051,0,.1,0,.151a5.553,5.553,0,0,0,5.484,5.62h.069Zm9.532-37.154a15.562,15.562,0,0,0,6.861-2.821c1.314-1.141,1.4-2.209-.025-3.22a23.939,23.939,0,0,0-4.062-2.142,21.677,21.677,0,0,0-2.771-.848Zm-4.949-13.962a17.075,17.075,0,0,0-2.813-6.707c-1.172-1.507-2.425-1.586-3.428.023a40.946,40.946,0,0,0-2.455,5.185,9.62,9.62,0,0,0-.393,1.5Zm.014,19.021h-9.117a16.428,16.428,0,0,0,3.025,6.929c1.068,1.253,2.052,1.227,3.106-.037a16.824,16.824,0,0,0,2.99-6.891Zm-14.08-4.955v-9.107c-.606.159-1.151.272-1.68.445a14.016,14.016,0,0,0-5.3,2.622c-1.133,1.019-1.164,1.942-.041,2.931a16.124,16.124,0,0,0,7.024,3.112Zm16.271-20.545a2.227,2.227,0,0,0,0,.4c.647,2.124,1.286,4.246,1.975,6.355a1.125,1.125,0,0,0,.675.539c2.024.655,4.062,1.281,6.1,1.914.144.045.3.073.553.136a17.564,17.564,0,0,0-9.294-9.341Zm.028,31.884c3.617-1.117,8.186-5.728,9.119-9.129a52.521,52.521,0,0,1-5.195,1.576,2.516,2.516,0,0,0-2.368,2.341,42.586,42.586,0,0,1-1.552,5.215Zm-22.744-22.7c2.288-.647,4.506-1.259,6.711-1.92a1.044,1.044,0,0,0,.545-.647c.494-1.613.928-3.242,1.412-4.853.173-.574.435-1.127.72-1.843a17.5,17.5,0,0,0-9.382,9.262Zm-.014,13.623a17.387,17.387,0,0,0,9.168,9.15c-.643-2.286-1.279-4.553-1.934-6.815a.789.789,0,0,0-.47-.425c-2.213-.635-4.436-1.259-6.759-1.91Z" transform="translate(-455.808 -1350.594)" fill="#091c30"/>
    </g>
    <g id="Grupo_56654" data-name="Grupo 56654" transform="translate(688.408 1400.805)">
      <g id="RNGu9o">
        <g id="Grupo_56653" data-name="Grupo 56653">
          <path id="Trazado_123067" data-name="Trazado 123067" d="M558.114,1402.937H528.33c-.824,0-1.2-.36-1.2-1.18q0-15.2,0-30.411c0-1.523-.033-3.053.091-4.57a4.916,4.916,0,0,1,2.522-3.844,5.16,5.16,0,0,1,2.785-.757q25.592,0,51.182.008a5.075,5.075,0,0,1,4.91,3.141,5.39,5.39,0,0,1,.484,2.164q.044,17.151.017,34.3c0,.787-.379,1.147-1.182,1.147q-14.914,0-29.831,0Zm29.042-2.008v-.688q0-14.182,0-28.364c0-1.393.053-2.787.03-4.18a3.41,3.41,0,0,0-.864-2.419,3.633,3.633,0,0,0-2.708-1.117q-25.445.02-50.889.01c-.195,0-.391-.008-.586.011a3.291,3.291,0,0,0-3.007,3.006c-.091,1.629-.026,3.267-.026,4.9v28.841Z" transform="translate(-522.416 -1362.173)" fill="#091c30"/>
          <path id="Trazado_123068" data-name="Trazado 123068" d="M567.412,1386.131a2.109,2.109,0,0,1,2.339-2.067q7.919,0,15.842,0h9.248c1.048,0,1.3.291,1.285,1.333-.022,1.216-.037,2.433.018,3.647a3.589,3.589,0,0,1-3.578,3.56c-.244.006-.486,0-.73,0H528.659a3.626,3.626,0,0,1-3.832-2.856,8.989,8.989,0,0,1-.092-1.743c0-.94.02-1.883.037-2.822.014-.821.309-1.121,1.123-1.119,2.209.008,4.418.035,6.627.033,5.9-.006,11.794-.03,17.693-.023a3.722,3.722,0,0,1,1.45.285,1.665,1.665,0,0,1,.974,1.422c.03.281.157.356.4.356q1.752-.009,3.505-.012,2.458,0,4.914,0C563.437,1386.133,565.413,1386.131,567.412,1386.131Zm-16.764-.1H531.013q-1.847,0-3.694,0c-.625,0-.639,0-.643.643-.006.667.077,1.338.016,2a1.806,1.806,0,0,0,1.945,1.951q31.758-.039,63.517-.018c.148,0,.293,0,.441,0a1.491,1.491,0,0,0,1.524-1.251c.1-1.082.026-2.179.026-3.361-1.1,0-2.164,0-3.23,0-2.122.01-4.245.036-6.369.039q-6.435.009-12.87,0c-.618,0-1.235,0-1.853,0-.236,0-.372.036-.425.325a1.949,1.949,0,0,1-2.071,1.731q-7.264.008-14.526,0a1.982,1.982,0,0,1-2.107-1.816C550.685,1386.208,550.671,1386.147,550.647,1386.035Z" transform="translate(-524.734 -1341.006)" fill="#091c30"/>
          <path id="Trazado_123069" data-name="Trazado 123069" d="M555.945,1394.74H530.5c-.922,0-1.292-.35-1.292-1.243q0-12.259.006-24.516c0-1.1.018-2.207.022-3.312a1.046,1.046,0,0,1,.966-1.131,3.27,3.27,0,0,1,.439-.016q8.53,0,17.061,0c2.075,0,4.148.038,6.224.036,2.288,0,4.575-.033,6.861-.036q10.329-.006,20.659,0a1.089,1.089,0,0,1,1.2,1.2q0,13.888,0,27.774c0,.91-.356,1.237-1.343,1.237Q568.62,1394.743,555.945,1394.74Zm24.691-28.24H531.222v26.21h49.414Z" transform="translate(-520.407 -1359.902)" fill="#091c30"/>
        </g>
      </g>
    </g>
    <g id="KylTfb" transform="translate(355.468 1415.153)">
      <g id="Grupo_56655" data-name="Grupo 56655">
        <path id="Trazado_123070" data-name="Trazado 123070" d="M360.832,1441.364c-.793,0-1.465.023-2.136,0a3.006,3.006,0,0,1-3.224-3.32q-.006-21.14,0-42.28a2.863,2.863,0,0,1,3.181-3.157c1.369,0,2.74,0,4.111-.008.085,0,.169-.022.468-.061a13.859,13.859,0,0,1-2.575-10.76,13.221,13.221,0,0,1,6.2-9.177,13.7,13.7,0,0,1,16.306,1.294c5.293,4.843,5.932,10.7,1.961,18.712,1.757,0,3.446-.006,5.138,0a2.959,2.959,0,0,1,3.249,3.259q.009,21.011,0,42.023a3.144,3.144,0,0,1-3.493,3.481c-.588,0-1.176,0-1.9,0v1.5q0,10.923,0,21.847c0,2.177-1.111,3.357-3.285,3.367q-10.344.048-20.687.024c-2.168,0-3.3-1.18-3.306-3.358q-.015-10.923,0-21.845Zm.592-6.031H362.7c3.08.006,4.07.993,4.07,4.064V1462h4.668v-1.467q0-9.509,0-19.019c0-2.106,1.149-3.4,2.984-3.421,1.875-.026,3.013,1.265,3.017,3.489q.015,9.318,0,18.635V1462h4.766v-1.489q0-10.926,0-21.849a3.031,3.031,0,0,1,3.222-3.324c.671-.024,1.341,0,2.075,0V1398.6h-26.08Zm5.02-51.181a7.593,7.593,0,0,0,7.691,7.709,7.733,7.733,0,0,0,7.748-7.724,7.9,7.9,0,0,0-7.827-7.709A7.729,7.729,0,0,0,366.443,1384.152Z" transform="translate(-355.468 -1368.462)" fill="#091c30"/>
        <path id="Trazado_123071" data-name="Trazado 123071" d="M385.39,1380.49c0-2.612-.014-5.224,0-7.837a2.978,2.978,0,0,1,2.952-3.187,3.128,3.128,0,0,1,2.968,3.226q.015,7.774,0,15.547a3.061,3.061,0,0,1-3.013,3.3,2.931,2.931,0,0,1-2.905-3.212C385.376,1385.716,385.39,1383.1,385.39,1380.49Z" transform="translate(-326.541 -1369.467)" fill="#6e40fc"/>
        <path id="Trazado_123072" data-name="Trazado 123072" d="M385.874,1380.568c0,1.713.02,3.424-.006,5.136a2.953,2.953,0,0,1-2.939,3.192,3.084,3.084,0,0,1-3-3.189q-.044-5.2,0-10.4a3.036,3.036,0,0,1,3.059-3.11,2.921,2.921,0,0,1,2.876,3.106c.026,1.753.006,3.507.006,5.262Z" transform="translate(-331.84 -1366.826)" fill="#6e40fc"/>
        <path id="Trazado_123073" data-name="Trazado 123073" d="M374.525,1380.471c0-.9-.047-1.8.012-2.689a2.846,2.846,0,0,1,2.964-2.841,2.986,2.986,0,0,1,2.972,2.9c.069,1.79.075,3.588,0,5.378a3.093,3.093,0,0,1-3.035,3.028,2.981,2.981,0,0,1-2.925-3.088c-.045-.9-.008-1.792-.008-2.689Z" transform="translate(-337.074 -1364.174)" fill="#6e40fc"/>
        <path id="Trazado_123074" data-name="Trazado 123074" d="M363.484,1426.816c-.161-.12-.348-.2-.346-.267.032-.6.1-1.2.153-1.8.248.077.639.081.722.242A1.268,1.268,0,0,1,363.484,1426.816Z" transform="translate(-348.052 -1316.015)" fill="#091c30"/>
      </g>
    </g>
    <g id="KylTfb-2" data-name="KylTfb" transform="translate(764.598 1415.153)">
      <g id="Grupo_56656" data-name="Grupo 56656">
        <path id="Trazado_123075" data-name="Trazado 123075" d="M609.742,1442.908q0,10.923,0,21.845c0,2.177-1.139,3.354-3.306,3.358q-10.345.021-20.687-.024c-2.173-.01-3.283-1.19-3.285-3.367q-.006-10.925,0-21.847v-1.5c-.724,0-1.312,0-1.9,0a3.141,3.141,0,0,1-3.491-3.481q-.006-21.01,0-42.023a2.96,2.96,0,0,1,3.251-3.259c1.69-.008,3.379,0,5.136,0-3.971-8.015-3.332-13.869,1.961-18.712a13.7,13.7,0,0,1,16.306-1.294,13.215,13.215,0,0,1,6.2,9.177,13.859,13.859,0,0,1-2.575,10.76c.3.039.384.061.468.061,1.371,0,2.742,0,4.111.008a2.862,2.862,0,0,1,3.181,3.157q0,21.14,0,42.28a3.008,3.008,0,0,1-3.226,3.32c-.671.028-1.344,0-2.134,0Zm-.594-44.306h-26.08v36.727c.734,0,1.4-.02,2.075,0a3.031,3.031,0,0,1,3.222,3.324q0,10.926,0,21.849V1462h4.764v-1.78q0-9.318,0-18.635c0-2.225,1.143-3.515,3.017-3.489,1.835.024,2.98,1.314,2.984,3.421q.012,9.509,0,19.019V1462H603.8v-22.6c0-3.071.99-4.058,4.07-4.064h1.277Zm-12.632-22.174a7.9,7.9,0,0,0-7.826,7.709,7.733,7.733,0,0,0,7.748,7.724,7.591,7.591,0,0,0,7.691-7.709A7.727,7.727,0,0,0,596.516,1376.428Z" transform="translate(-550.322 -1368.462)" fill="#091c30"/>
        <path id="Trazado_123076" data-name="Trazado 123076" d="M569.4,1380.49c0-2.612.014-5.224,0-7.837a2.978,2.978,0,0,0-2.954-3.187,3.127,3.127,0,0,0-2.966,3.226q-.018,7.774,0,15.547a3.061,3.061,0,0,0,3.013,3.3,2.931,2.931,0,0,0,2.905-3.212C569.414,1385.716,569.4,1383.1,569.4,1380.49Z" transform="translate(-563.468 -1369.467)" fill="#6e40fc"/>
        <path id="Trazado_123077" data-name="Trazado 123077" d="M568.937,1380.568c0,1.713-.022,3.424,0,5.136a2.953,2.953,0,0,0,2.939,3.192,3.084,3.084,0,0,0,3-3.189q.044-5.2,0-10.4a3.036,3.036,0,0,0-3.059-3.11,2.921,2.921,0,0,0-2.876,3.106c-.025,1.753-.006,3.507-.006,5.262Z" transform="translate(-558.188 -1366.826)" fill="#6e40fc"/>
        <path id="Trazado_123078" data-name="Trazado 123078" d="M580.313,1380.471c0-.9.047-1.8-.012-2.689a2.846,2.846,0,0,0-2.964-2.841,2.986,2.986,0,0,0-2.972,2.9c-.069,1.79-.073,3.588,0,5.378a3.093,3.093,0,0,0,3.037,3.028,2.981,2.981,0,0,0,2.923-3.088c.045-.9.008-1.792.008-2.689Z" transform="translate(-552.982 -1364.174)" fill="#6e40fc"/>
        <path id="Trazado_123079" data-name="Trazado 123079" d="M588.913,1426.816c.161-.12.35-.2.346-.267-.031-.6-.1-1.2-.153-1.8-.248.077-.639.081-.722.242A1.268,1.268,0,0,0,588.913,1426.816Z" transform="translate(-539.564 -1316.015)" fill="#091c30"/>
      </g>
    </g>
    <g id="tUOQmM.tif" transform="translate(881.667 1396.026)">
      <g id="Grupo_56657" data-name="Grupo 56657">
        <path id="Trazado_123080" data-name="Trazado 123080" d="M519.735,1318.843c-.7.6-1.3,1.495-2.107,1.745-1.68.523-2.974-.695-3.238-2.612a41.348,41.348,0,0,0-1.151-6.9,21.117,21.117,0,0,0-23.765-14.221c-2.384.421-3.81-.259-4.136-1.977-.323-1.693.773-2.85,3.147-3.326.59-.118,1.176-.244,1.764-.366h5.742a4.448,4.448,0,0,0,.72.25c10.769,1.8,17.986,7.87,21.672,18.11a53.8,53.8,0,0,1,1.351,5.381Z" transform="translate(-423.639 -1291.187)" fill="#6e40fc"/>
        <path id="Trazado_123081" data-name="Trazado 123081" d="M526.414,1317.627a9.079,9.079,0,0,1-6.035,1.017,8.128,8.128,0,0,1-6.558-7.846,1.976,1.976,0,0,0-1.585-2.307c-15.9-5.147-30.445-2.974-42.915,8.5-7.561,6.955-10.846,15.893-9.8,26.222a28.069,28.069,0,0,0,3.722,11.292,4.867,4.867,0,0,1,.563,3.612c-.714,3.568-1.367,7.15-2.081,10.932,1.554-.122,2.966-.206,4.373-.35,2.939-.3,5.869-.687,8.812-.905a4.787,4.787,0,0,1,2.461.582,42.74,42.74,0,0,0,35.409,2.225,2.645,2.645,0,0,1,3.261.834,2.368,2.368,0,0,1,.075,3.021,3.91,3.91,0,0,1-1.636,1.2,47.393,47.393,0,0,1-18.755,3.066,49.875,49.875,0,0,1-20.148-5.163c-1.168-.564-2.866-.134-4.306-.01-4.068.352-8.124.836-12.191,1.165-2.565.207-3.661-1.12-3.187-3.731.777-4.266,1.635-8.519,2.392-12.789a3.262,3.262,0,0,0-.24-1.959c-7.872-15.051-4.062-32.744,8.352-43.931,9.353-8.426,20.488-12.1,33.025-11.692a46.161,46.161,0,0,1,15.95,3.421,1.715,1.715,0,0,0,1.879-.25,8.145,8.145,0,0,1,9.41-.146,8.235,8.235,0,0,1,3.438,8.776,1.728,1.728,0,0,0,.464,1.832c7.553,8.112,11.247,17.653,10.285,28.773a35.67,35.67,0,0,1-8.33,19.868,2.642,2.642,0,0,1-3.9.547c-1.255-1.048-1.33-2.545-.13-4.04a30.6,30.6,0,0,0,7.152-20.328C535.446,1330.746,532.173,1323.673,526.414,1317.627Zm-4.353-10a2.82,2.82,0,0,0-2.937,2.944,2.885,2.885,0,0,0,2.907,2.866,2.906,2.906,0,1,0,.03-5.81Z" transform="translate(-453.943 -1282.109)" fill="#091c30"/>
        <path id="Trazado_123082" data-name="Trazado 123082" d="M478.47,1335.313c-5.454,0-9.426-4.2-9.447-9.973-.022-5.751,3.958-9.919,9.467-9.917,5.492,0,9.451,4.166,9.449,9.939C487.937,1331.09,483.917,1335.317,478.47,1335.313Zm3.731-9.825a21.08,21.08,0,0,0-.7-2.775,3.028,3.028,0,0,0-2.909-2.014,3.085,3.085,0,0,0-3.043,1.837,6.107,6.107,0,0,0,.1,5.862,3.173,3.173,0,0,0,5.62.057A14.25,14.25,0,0,0,482.2,1325.488Z" transform="translate(-439.362 -1267.752)" fill="#091c30"/>
        <path id="Trazado_123083" data-name="Trazado 123083" d="M490.607,1329.007c0,1.119.022,2.03-.006,2.938a2.94,2.94,0,0,1-2.807,3.009,2.884,2.884,0,0,1-2.876-2.932q-.05-6.845,0-13.69a2.793,2.793,0,0,1,2.917-2.856c1.737-.036,3.478-.04,5.215.01a6.509,6.509,0,0,1,6.444,6.639c.027,3.932-2.477,6.682-6.286,6.877C492.4,1329.042,491.579,1329.007,490.607,1329.007Zm.071-4.871a13.322,13.322,0,0,0,2.744-1.1,1.69,1.69,0,0,0-.006-1.589,13.279,13.279,0,0,0-2.738-1.068Z" transform="translate(-424.016 -1267.726)" fill="#6e40fc"/>
        <path id="Trazado_123084" data-name="Trazado 123084" d="M468.219,1325.062c1-2.683,1.869-5.041,2.764-7.388.718-1.878,2.1-2.6,3.741-1.99a2.8,2.8,0,0,1,1.6,3.955c-1.758,4.526-3.566,9.033-5.38,13.537a2.862,2.862,0,0,1-2.744,2.046,2.805,2.805,0,0,1-2.691-2.081c-1.8-4.508-3.627-9-5.4-13.525a2.8,2.8,0,0,1,1.637-3.93c1.6-.59,3.021.106,3.7,1.889C466.362,1319.953,467.22,1322.353,468.219,1325.062Z" transform="translate(-448.241 -1267.705)" fill="#091c30"/>
        <path id="Trazado_123085" data-name="Trazado 123085" d="M491.572,1296.127a18.737,18.737,0,0,1,18.81,18.086c.087,2.571-1.784,4.143-3.814,3.177a2.927,2.927,0,0,1-1.6-2.9,13.255,13.255,0,0,0-9.235-12.419,13.752,13.752,0,0,0-6.814-.4,2.693,2.693,0,1,1-1.105-5.254,12.668,12.668,0,0,1,1.8-.281C490.266,1296.09,490.922,1296.127,491.572,1296.127Z" transform="translate(-423.472 -1286.424)" fill="#6e40fc"/>
        <path id="Trazado_123086" data-name="Trazado 123086" d="M485.961,1325.222c0,2.213.014,4.427,0,6.64a2.921,2.921,0,0,1-2.862,3.2c-1.666-.012-2.827-1.308-2.832-3.224q-.018-6.641,0-13.283a3,3,0,0,1,2.874-3.212c1.638,0,2.8,1.318,2.819,3.24C485.975,1320.794,485.961,1323.009,485.961,1325.222Z" transform="translate(-428.502 -1267.83)" fill="#6e40fc"/>
        <path id="Trazado_123087" data-name="Trazado 123087" d="M490.116,1339.056a2.638,2.638,0,0,1-2.693-2.585,2.706,2.706,0,0,1,5.409-.144A2.749,2.749,0,0,1,490.116,1339.056Z" transform="translate(-421.57 -1250.033)" fill="#091c30"/>
      </g>
    </g>
  </g>
</svg>
