<svg xmlns="http://www.w3.org/2000/svg" xmlns:xlink="http://www.w3.org/1999/xlink" width="190" height="115" viewBox="0 0 190 115">
  <defs>
    <clipPath id="clip-path">
      <rect id="Rect치ngulo_376748" data-name="Rect치ngulo 376748" width="86.446" height="79.238" fill="none"/>
    </clipPath>
  </defs>
  <g id="Grupo_1069269" data-name="Grupo 1069269" transform="translate(-180 -8442)">
    <path id="Rect치ngulo_375112" data-name="Rect치ngulo 375112" d="M0,0H133a57,57,0,0,1,57,57v1a57,57,0,0,1-57,57H0a0,0,0,0,1,0,0V0A0,0,0,0,1,0,0Z" transform="translate(180 8442)" fill="#ccbcfe"/>
    <g id="Grupo_1069270" data-name="Grupo 1069270" transform="translate(232 8460)">
      <g id="Grupo_1069270-2" data-name="Grupo 1069270" transform="translate(0 0)" clip-path="url(#clip-path)">
        <path id="Trazado_806884" data-name="Trazado 806884" d="M7.792,31.148A7.484,7.484,0,1,0,13.763,43.1,13.78,13.78,0,0,0,27.33,46.148a17.078,17.078,0,0,0,18.159.33,8.052,8.052,0,0,1,7.167-.572A16.9,16.9,0,0,0,67.2,45a9.836,9.836,0,1,0,8.564-17.228A17,17,0,0,0,65.334,14.415a15.293,15.293,0,0,0-28.8-5.906C33.083,6.853,28.8,4.855,24.407,7.2c-3.984,2.134-6.277,4.8-6.088,9.312,0,0-10.809,5.4-8.906,14.823a7.347,7.347,0,0,0-1.621-.189" transform="translate(1.497 1.49)" fill="#92ebfd"/>
        <path id="Trazado_806885" data-name="Trazado 806885" d="M38.157,52.226A19.02,19.02,0,0,1,28.544,49.6a15.658,15.658,0,0,1-13.114-2.54,9.257,9.257,0,0,1-15.36-5.8A8.1,8.1,0,0,1,0,40.126a9.247,9.247,0,0,1,8.876-9.277v-.23c.165-7.208,5.764-11.635,9.13-13.633.13-4.161,2.558-7.568,7.043-9.872a10.492,10.492,0,0,1,5.1-1.3h.018a17.6,17.6,0,0,1,7.149,1.857A17.074,17.074,0,0,1,51.578,0a16.8,16.8,0,0,1,4.25.542,1.671,1.671,0,0,1,1.1.807,1.757,1.757,0,0,1,.2,1.373,1.794,1.794,0,0,1-2.181,1.3A13.853,13.853,0,0,0,51.578,3.6a13.5,13.5,0,0,0-11.959,7.244,1.841,1.841,0,0,1-2.358.79C34.951,10.521,32.5,9.418,30.2,9.418h-.035a7.105,7.105,0,0,0-3.424.866c-3.778,2.122-5.075,3.943-5.151,7.22a2.781,2.781,0,0,0,.018.395,1.872,1.872,0,0,1-.99,1.733l-.053.018a13.6,13.6,0,0,0-1.208.719A20.646,20.646,0,0,0,16.473,22.6c-1.833,1.727-4.014,4.521-4,8.016a8.686,8.686,0,0,0,.2,1.851A1.822,1.822,0,0,1,10.515,34.6a5.007,5.007,0,0,0-1.226-.147A5.689,5.689,0,0,0,3.6,40.126c0,.236.018.466.035.7a5.771,5.771,0,0,0,4.644,4.9,6.477,6.477,0,0,0,1.008.094,5.621,5.621,0,0,0,4.521-2.31,1.812,1.812,0,0,1,2.664-.23,12.184,12.184,0,0,0,11.8,2.646,1.848,1.848,0,0,1,1.532.212,15.5,15.5,0,0,0,16.244.289,10,10,0,0,1,8.77-.7,15.1,15.1,0,0,0,13-.807,1.876,1.876,0,0,1,2,.159,8.019,8.019,0,0,0,12.9-4.827,8.092,8.092,0,0,0-5.906-9.236,1.772,1.772,0,0,1-1.338-1.5,15.246,15.246,0,0,0-9.324-11.941,1.787,1.787,0,0,1-1.12-1.527,13.927,13.927,0,0,0-.9-3.925,1.8,1.8,0,0,1,1.008-2.346,1.841,1.841,0,0,1,2.34,1.008,18.513,18.513,0,0,1,1.026,3.9,18.887,18.887,0,0,1,10.338,13.2,11.635,11.635,0,1,1-10.3,20.711,18.839,18.839,0,0,1-15.071.489,6.32,6.32,0,0,0-5.546.43,18.856,18.856,0,0,1-9.766,2.717M61.7,7.42a1.857,1.857,0,0,1-1.208-.448,1.816,1.816,0,0,1-.159-2.54,1.874,1.874,0,0,1,2.558-.165,1.816,1.816,0,0,1,.159,2.54,1.792,1.792,0,0,1-1.35.613" transform="translate(0 -0.002)" fill="#f9305f"/>
        <path id="Trazado_806886" data-name="Trazado 806886" d="M14.546,14.74a1.976,1.976,0,0,1-.448-.053,1.8,1.8,0,0,1-1.3-2.193,15.319,15.319,0,0,0,.466-3.778,15.324,15.324,0,0,0-.13-2.022,1.8,1.8,0,1,1,3.572-.472,19.462,19.462,0,0,1,.165,2.493,19.111,19.111,0,0,1-.583,4.668,1.8,1.8,0,0,1-1.745,1.356" transform="translate(62.37 22.796)" fill="#f9305f"/>
        <path id="Trazado_806887" data-name="Trazado 806887" d="M8.831,31.39a1.8,1.8,0,0,1-1.8-1.8V11.581a1.8,1.8,0,1,1,3.6,0V29.592a1.8,1.8,0,0,1-1.8,1.8" transform="translate(34.389 47.845)" fill="#6e40fc"/>
        <path id="Trazado_806888" data-name="Trazado 806888" d="M30.037,32.883h-5.4a1.8,1.8,0,1,1,0-3.6h3.6V11.27a1.8,1.8,0,0,1,3.6,0V31.085a1.791,1.791,0,0,1-1.8,1.8m-12.607,0a1.8,1.8,0,1,1,1.8-1.8,1.8,1.8,0,0,1-1.8,1.8m-7.2,0h-7.2a1.8,1.8,0,1,1,0-3.6h7.2a1.8,1.8,0,1,1,0,3.6" transform="translate(5.98 46.353)" fill="#6e40fc"/>
        <path id="Trazado_806889" data-name="Trazado 806889" d="M28.815,27.173H1.8a1.8,1.8,0,1,1,0-3.6H27.018V10.965a1.8,1.8,0,0,1,3.6,0V25.375a1.8,1.8,0,0,1-1.8,1.8" transform="translate(0 44.86)" fill="#6e40fc"/>
        <path id="Trazado_806890" data-name="Trazado 806890" d="M10.228,19.971h0a1.8,1.8,0,0,1,0-3.6h3.6V10.947a1.8,1.8,0,0,1,3.6.018v7.2a1.781,1.781,0,0,1-1.8,1.8Zm-7.2,0a1.8,1.8,0,1,1,1.8-1.8,1.811,1.811,0,0,1-1.8,1.8" transform="translate(5.98 44.86)" fill="#6e40fc"/>
        <path id="Trazado_806891" data-name="Trazado 806891" d="M25.1,19.971a1.8,1.8,0,1,1,1.8-1.8,1.806,1.806,0,0,1-1.8,1.8m-7.2,0h-5.4a1.9,1.9,0,0,1-1.279-.525,1.851,1.851,0,0,1-.519-1.279v-7.2a1.8,1.8,0,0,1,3.6,0v5.4h3.6a1.8,1.8,0,1,1,0,3.6" transform="translate(52.34 44.86)" fill="#6e40fc"/>
        <path id="Trazado_806892" data-name="Trazado 806892" d="M38.863,32.883H29.857a1.8,1.8,0,0,1,0-3.6h9.006a1.8,1.8,0,1,1,0,3.6m-16.208,0a1.8,1.8,0,1,1,1.8-1.8,1.8,1.8,0,0,1-1.8,1.8m-7.2,0h-5.4a1.9,1.9,0,0,1-1.279-.525,1.881,1.881,0,0,1-.519-1.273V11.252a1.8,1.8,0,0,1,3.6.018V29.281h3.6a1.8,1.8,0,0,1,0,3.6" transform="translate(40.375 46.353)" fill="#6e40fc"/>
        <path id="Trazado_806893" data-name="Trazado 806893" d="M38.287,27.173H11.276a1.8,1.8,0,0,1-1.8-1.8V10.965a1.8,1.8,0,0,1,3.6,0V23.572H38.287a1.8,1.8,0,0,1,0,3.6" transform="translate(46.355 44.86)" fill="#6e40fc"/>
        <path id="Trazado_806894" data-name="Trazado 806894" d="M10.054,21.984a1.8,1.8,0,0,1-1.8-1.8V5.776a1.8,1.8,0,0,1,3.607,0v14.4a1.8,1.8,0,0,1-1.8,1.8" transform="translate(40.375 19.436)" fill="#0056d3"/>
        <path id="Trazado_806895" data-name="Trazado 806895" d="M11.805,21.984A6.314,6.314,0,0,1,5.5,15.677v-5.4a6.3,6.3,0,0,1,12.607,0v5.4a6.309,6.309,0,0,1-6.3,6.306m0-14.411a2.7,2.7,0,0,0-2.7,2.7v5.4a2.7,2.7,0,0,0,5.4,0v-5.4a2.7,2.7,0,0,0-2.7-2.7" transform="translate(26.912 19.436)" fill="#0056d3"/>
        <path id="Trazado_806896" data-name="Trazado 806896" d="M8.461,21.985a1.8,1.8,0,0,1-1.745-1.361L3.109,6.213A1.8,1.8,0,1,1,6.6,5.34l1.857,7.42,1.857-7.42a1.8,1.8,0,1,1,3.5.872L10.205,20.623a1.8,1.8,0,0,1-1.745,1.361" transform="translate(14.95 19.435)" fill="#0056d3"/>
        <path id="Trazado_806897" data-name="Trazado 806897" d="M16.674,14.776h-5.4a1.8,1.8,0,0,1-1.8-1.8V5.77a1.8,1.8,0,0,1,1.8-1.8h5.4a5.4,5.4,0,1,1,0,10.8m-3.6-3.6h3.6a1.8,1.8,0,1,0,0-3.6h-3.6Z" transform="translate(46.355 19.436)" fill="#0056d3"/>
        <path id="Trazado_806898" data-name="Trazado 806898" d="M11.271,16a1.8,1.8,0,0,1-1.8-1.8v-7.2a1.8,1.8,0,0,1,3.6,0v7.2a1.8,1.8,0,0,1-1.8,1.8" transform="translate(46.36 25.422)" fill="#0056d3"/>
      </g>
    </g>
  </g>
</svg>
