<svg xmlns="http://www.w3.org/2000/svg" width="1030" height="540" viewBox="0 0 1030 540">
  <g id="Grupo_1069331" data-name="Grupo 1069331" transform="translate(-285 -2091)">
    <rect id="Rectángulo_376734" data-name="Rectángulo 376734" width="1030" height="540" rx="10" transform="translate(285 2091)" fill="#fee0e7"/>
    <g id="Grupo_1069131" data-name="Grupo 1069131" transform="translate(349.543 964.269)">
      <line id="Línea_1631" data-name="Línea 1631" x2="597.165" transform="translate(137.457 1310.436)" fill="#1a1818" stroke="#12263f" stroke-miterlimit="10" stroke-width="4"/>
      <line id="Línea_1632" data-name="Línea 1632" y1="20.39" transform="translate(261.47 1290.046)" fill="#1a1818" stroke="#12263f" stroke-miterlimit="10" stroke-width="4"/>
      <line id="Línea_1633" data-name="Línea 1633" y1="20.39" transform="translate(202.712 1310.436)" fill="#1a1818" stroke="#12263f" stroke-miterlimit="10" stroke-width="4"/>
      <line id="Línea_1634" data-name="Línea 1634" y1="20.39" transform="translate(674.903 1310.436)" fill="#1a1818" stroke="#12263f" stroke-miterlimit="10" stroke-width="4"/>
      <line id="Línea_1635" data-name="Línea 1635" y1="20.39" transform="translate(546.225 1290.046)" fill="#1a1818" stroke="#12263f" stroke-miterlimit="10" stroke-width="4"/>
      <line id="Línea_1636" data-name="Línea 1636" y1="20.39" transform="translate(459.905 1310.436)" fill="#1a1818" stroke="#12263f" stroke-miterlimit="10" stroke-width="4"/>
      <line id="Línea_1637" data-name="Línea 1637" x2="597.165" transform="translate(137.457 1529.714)" fill="#1a1818" stroke="#12263f" stroke-miterlimit="10" stroke-width="4"/>
      <line id="Línea_1638" data-name="Línea 1638" y1="20.39" transform="translate(261.47 1509.324)" fill="#1a1818" stroke="#12263f" stroke-miterlimit="10" stroke-width="4"/>
      <line id="Línea_1639" data-name="Línea 1639" y1="20.39" transform="translate(202.712 1529.714)" fill="#1a1818" stroke="#12263f" stroke-miterlimit="10" stroke-width="4"/>
      <line id="Línea_1640" data-name="Línea 1640" y1="20.39" transform="translate(423.717 1529.714)" fill="#1a1818" stroke="#12263f" stroke-miterlimit="10" stroke-width="4"/>
      <line id="Línea_1641" data-name="Línea 1641" y1="20.39" transform="translate(674.903 1509.324)" fill="#1a1818" stroke="#12263f" stroke-miterlimit="10" stroke-width="4"/>
      <g id="Grupo_56646" data-name="Grupo 56646" transform="translate(152.651 1206.987)">
        <path id="Trazado_123058" data-name="Trazado 123058" d="M193.511,1260.51a2.781,2.781,0,0,1,4.128.067c.762.845,1.407,1.737,2.725,1.782.616.019.883.651.851,1.216a1.176,1.176,0,0,1-1.019,1.207,3.585,3.585,0,0,1-3.452-1.219c-1.315-1.5-1.318-1.5-2.579.121a2.763,2.763,0,0,1-4.185.384,10.754,10.754,0,0,1-1.321-1.445c-.3-.385-.549-.4-.854-.057a17.735,17.735,0,0,1-1.464,1.651,2.581,2.581,0,0,1-1.267.572c-1.7.248-2.744-.794-3.642-2.016-.4-.543-.727-.588-1.134-.054-.165.216-.343.423-.508.641a2.82,2.82,0,0,1-2.855,1.455,3.958,3.958,0,0,1-2.433-1.508c-.981-1.137-1-1.175-1.985-.006-.753.9-1.439,1.724-2.826,1.531a3.85,3.85,0,0,1-2.166-1.175c-.473-.441-1.048-1.292-1.407-1.213-.543.121-.94.9-1.394,1.4a2.4,2.4,0,0,1-1.772.991,3.768,3.768,0,0,1-3.1-1.511c-1.038-1.131-1.048-1.1-2.147.028-2.175,2.229-4.589,3.919-7.879,4.144-3.868.267-7.612-2.9-7.589-6.761a13.272,13.272,0,0,1,3.023-8.507,3.276,3.276,0,0,1,4.376-.981,2.569,2.569,0,0,0,2.359.028,8.785,8.785,0,0,0,4.35-4.442,27.229,27.229,0,0,0,2.979-13.464c-.089-2.242-.152-4.484-1.229-6.513-.857-1.623-1.832-3.2-4.128-2.655-.07.019-.156-.041-.235-.051a3.513,3.513,0,0,1-2.982-2.76,13.778,13.778,0,0,1-.073-7.659,6.72,6.72,0,0,1,8.085-5.068,9.282,9.282,0,0,1,6.078,4.579,31.033,31.033,0,0,1,4.106,14.925,57.571,57.571,0,0,1-1.3,14.525,48.9,48.9,0,0,1-4.982,13.972c-.661,1.181-1.413,2.309-2.118,3.449.33.375.673.724.975,1.108s.553.794.851,1.229c.7-.784,1.143-1.305,1.619-1.788a2.859,2.859,0,0,1,4.484.118c.448.492.892.988,1.385,1.534.524-.6.927-1.109,1.381-1.569a2.981,2.981,0,0,1,4.887.352c.3.407.667.765,1.064,1.214.422-.492.778-.9,1.118-1.315a3.032,3.032,0,0,1,5.055.022c.352.436.768.813,1.191,1.255.53-.6.965-1.124,1.429-1.62a2.95,2.95,0,0,1,4.608.236,15.077,15.077,0,0,0,1.27,1.387C192.507,1261.586,192.984,1261.024,193.511,1260.51Zm-30.155-44.6c-1.032-2.137-2.407-3.973-4.859-4.623a4.137,4.137,0,0,0-5.4,3.594,39.206,39.206,0,0,0-.032,4.963,3.114,3.114,0,0,0,.327,1.083.842.842,0,0,0,1.064.575,4.792,4.792,0,0,1,4.347,1.778,12.254,12.254,0,0,1,3.074,8.047,31.033,31.033,0,0,1-.791,10.377,24.992,24.992,0,0,1-3.992,8.847c-1.527,1.94-3.439,3.461-6.062,3.579a5.885,5.885,0,0,1-2.337-.48,1.084,1.084,0,0,0-1.435.26,12.082,12.082,0,0,0-2.271,5.325,4.341,4.341,0,0,0,3.328,5.462,6.237,6.237,0,0,0,5.373-1.314,25.822,25.822,0,0,0,6.9-8.39,46.553,46.553,0,0,0,4.6-13.34,52.213,52.213,0,0,0,1.172-10.892A32.235,32.235,0,0,0,163.356,1215.912Z" transform="translate(-142.242 -1203.545)" fill="#12263f"/>
        <g id="RNGu9o" transform="translate(48.779)">
          <g id="Grupo_56645" data-name="Grupo 56645">
            <path id="Trazado_123059" data-name="Trazado 123059" d="M210.018,1272.743H161.934c-1.327,0-1.934-.584-1.934-1.905q0-24.55.01-49.1c0-2.461-.054-4.931.143-7.377a7.944,7.944,0,0,1,4.074-6.208,8.349,8.349,0,0,1,4.493-1.223q41.317,0,82.634.016a8.189,8.189,0,0,1,7.926,5.072,8.673,8.673,0,0,1,.781,3.493q.067,27.689.029,55.381c0,1.271-.616,1.851-1.908,1.851H210.018Zm46.89-3.242v-1.111q0-22.9,0-45.792c0-2.251.086-4.5.044-6.748a5.505,5.505,0,0,0-1.391-3.906,5.873,5.873,0,0,0-4.373-1.8q-41.079.033-82.16.016a9.263,9.263,0,0,0-.943.019,5.309,5.309,0,0,0-4.855,4.852c-.149,2.629-.041,5.271-.041,7.91q0,22.578,0,45.162v1.4Z" transform="translate(-152.388 -1206.931)" fill="#12263f"/>
            <path id="Trazado_123060" data-name="Trazado 123060" d="M226.506,1232.162c.384-2.341,1.55-3.337,3.773-3.337q12.789,0,25.579,0,7.464,0,14.931,0c1.693,0,2.105.47,2.074,2.153-.035,1.963-.06,3.928.029,5.887a5.8,5.8,0,0,1-5.776,5.748c-.394.01-.787,0-1.181,0H163.939c-3.2,0-5.592-1.741-6.183-4.611a14.554,14.554,0,0,1-.152-2.814c-.006-1.518.035-3.039.06-4.557.025-1.327.5-1.813,1.816-1.807,3.566.01,7.132.057,10.7.054,9.52-.009,19.04-.047,28.561-.038a6.008,6.008,0,0,1,2.344.46,2.687,2.687,0,0,1,1.572,2.3c.044.454.251.575.648.572q2.834-.014,5.662-.016c2.642,0,5.287.007,7.933.007C220.088,1232.165,223.28,1232.162,226.506,1232.162ZM199.438,1232H161.779c-1.013,0-1.032,0-1.042,1.042-.006,1.073.127,2.156.029,3.22a2.919,2.919,0,0,0,3.137,3.153q51.277-.062,102.547-.028c.238,0,.473,0,.708-.007a2.408,2.408,0,0,0,2.464-2.019c.152-1.75.038-3.522.038-5.427-1.769,0-3.49-.006-5.211,0-3.426.019-6.856.06-10.282.063q-10.389.014-20.777,0c-1,0-1.994.01-2.991,0-.384-.007-.6.057-.689.52a3.141,3.141,0,0,1-3.341,2.795q-11.727.019-23.454,0a3.2,3.2,0,0,1-3.4-2.928C199.5,1232.285,199.476,1232.187,199.438,1232Z" transform="translate(-157.603 -1159.309)" fill="#12263f"/>
            <path id="Trazado_123061" data-name="Trazado 123061" d="M205.245,1258.067H164.163c-1.489,0-2.086-.568-2.086-2.01q0-19.787.013-39.577c0-1.782.025-3.566.032-5.348a1.692,1.692,0,0,1,1.562-1.826,5.238,5.238,0,0,1,.7-.025q13.775,0,27.545,0c3.35,0,6.7.057,10.051.057,3.693,0,7.383-.054,11.076-.057q16.676-.009,33.349,0a1.755,1.755,0,0,1,1.931,1.943q0,22.415,0,44.839c0,1.467-.578,2-2.172,2Q225.71,1258.072,205.245,1258.067Zm39.862-45.59H165.332v42.313h79.776Z" transform="translate(-147.869 -1201.823)" fill="#12263f"/>
          </g>
        </g>
      </g>
      <g id="Grupo_56648" data-name="Grupo 56648" transform="translate(154.505 1426.016)">
        <path id="Trazado_123062" data-name="Trazado 123062" d="M194.1,1329.484a2.782,2.782,0,0,1,4.128.067c.762.845,1.407,1.737,2.725,1.781.613.019.88.651.848,1.216a1.175,1.175,0,0,1-1.016,1.207,3.585,3.585,0,0,1-3.452-1.219c-1.315-1.5-1.321-1.5-2.582.121a2.76,2.76,0,0,1-4.182.384,10.936,10.936,0,0,1-1.321-1.445c-.3-.384-.549-.4-.854-.057a17.265,17.265,0,0,1-1.467,1.651,2.521,2.521,0,0,1-1.264.568c-1.7.251-2.744-.794-3.642-2.013-.4-.543-.727-.588-1.134-.054-.165.216-.343.423-.508.642a2.823,2.823,0,0,1-2.855,1.454,3.949,3.949,0,0,1-2.432-1.508c-.981-1.137-1-1.175-1.985-.006-.756.9-1.442,1.724-2.826,1.531a3.859,3.859,0,0,1-2.169-1.175c-.47-.442-1.045-1.292-1.4-1.213-.543.121-.94.9-1.394,1.4a2.4,2.4,0,0,1-1.772.991,3.764,3.764,0,0,1-3.1-1.511c-1.038-1.131-1.048-1.1-2.147.029-2.175,2.229-4.592,3.918-7.879,4.143-3.868.264-7.612-2.9-7.593-6.76a13.29,13.29,0,0,1,3.026-8.51,3.278,3.278,0,0,1,4.376-.978,2.555,2.555,0,0,0,2.356.025,8.788,8.788,0,0,0,4.354-4.439,27.191,27.191,0,0,0,2.975-13.464c-.089-2.242-.152-4.484-1.226-6.513-.861-1.623-1.835-3.2-4.128-2.655-.07.016-.156-.041-.238-.051a3.524,3.524,0,0,1-2.982-2.76,13.807,13.807,0,0,1-.07-7.659,6.718,6.718,0,0,1,8.082-5.068,9.279,9.279,0,0,1,6.081,4.579,31.031,31.031,0,0,1,4.106,14.922,57.724,57.724,0,0,1-1.3,14.528,48.991,48.991,0,0,1-4.982,13.972c-.661,1.181-1.416,2.309-2.118,3.449.33.375.673.724.972,1.108s.553.794.854,1.229c.7-.784,1.143-1.308,1.62-1.791a2.86,2.86,0,0,1,4.484.121c.448.492.892.988,1.385,1.534.524-.6.924-1.111,1.381-1.569a2.976,2.976,0,0,1,4.884.353c.3.406.67.765,1.067,1.213.422-.5.778-.9,1.118-1.315a3.032,3.032,0,0,1,5.055.022c.349.432.768.813,1.191,1.254.527-.6.965-1.124,1.429-1.62a2.95,2.95,0,0,1,4.608.235,15,15,0,0,0,1.27,1.387C193.091,1330.557,193.571,1330,194.1,1329.484Zm-30.155-44.6c-1.032-2.138-2.41-3.973-4.859-4.624a4.135,4.135,0,0,0-5.4,3.594,39.819,39.819,0,0,0-.035,4.964,3.115,3.115,0,0,0,.33,1.083.837.837,0,0,0,1.061.575,4.786,4.786,0,0,1,4.347,1.778,12.241,12.241,0,0,1,3.077,8.047,30.949,30.949,0,0,1-.794,10.377,24.918,24.918,0,0,1-3.988,8.844c-1.527,1.943-3.442,3.464-6.062,3.582a5.9,5.9,0,0,1-2.34-.48,1.086,1.086,0,0,0-1.435.26,12.068,12.068,0,0,0-2.271,5.325,4.345,4.345,0,0,0,3.331,5.462,6.252,6.252,0,0,0,5.373-1.315,25.865,25.865,0,0,0,6.9-8.389,46.49,46.49,0,0,0,4.6-13.341,52.023,52.023,0,0,0,1.175-10.892A32.232,32.232,0,0,0,163.943,1284.887Z" transform="translate(-142.826 -1272.518)" fill="#12263f"/>
        <g id="RNGu9o-2" data-name="RNGu9o" transform="translate(48.781)">
          <g id="Grupo_56647" data-name="Grupo 56647">
            <path id="Trazado_123063" data-name="Trazado 123063" d="M210.6,1341.718H162.519c-1.327,0-1.934-.584-1.934-1.905q0-24.551.009-49.1c0-2.461-.057-4.931.143-7.38a7.936,7.936,0,0,1,4.074-6.2,8.315,8.315,0,0,1,4.493-1.223q41.317,0,82.634.013a8.2,8.2,0,0,1,7.926,5.075,8.722,8.722,0,0,1,.778,3.493q.072,27.689.029,55.381c0,1.271-.613,1.852-1.905,1.852H210.6Zm46.89-3.243v-1.111q0-22.9,0-45.794c0-2.248.089-4.5.048-6.745a5.5,5.5,0,0,0-1.394-3.906,5.881,5.881,0,0,0-4.37-1.807q-41.079.033-82.16.019a8.46,8.46,0,0,0-.943.019,5.312,5.312,0,0,0-4.859,4.852c-.146,2.629-.041,5.271-.041,7.911v46.562Z" transform="translate(-152.972 -1275.905)" fill="#12263f"/>
            <path id="Trazado_123064" data-name="Trazado 123064" d="M227.088,1301.136c.387-2.341,1.553-3.338,3.776-3.338q12.789,0,25.576,0h14.931c1.7,0,2.105.473,2.077,2.156-.038,1.963-.06,3.928.025,5.887a5.8,5.8,0,0,1-5.773,5.748c-.394.01-.788,0-1.181,0H164.524c-3.2,0-5.6-1.74-6.183-4.611a14.3,14.3,0,0,1-.152-2.813c-.006-1.518.035-3.039.06-4.557.022-1.327.5-1.813,1.813-1.807,3.566.01,7.132.057,10.7.051,9.523-.006,19.044-.048,28.564-.035a6,6,0,0,1,2.34.46,2.688,2.688,0,0,1,1.572,2.3c.048.454.254.574.651.571q2.829-.013,5.659-.016c2.645,0,5.29.007,7.936.007Zm-27.065-.159H162.365c-1.013,0-1.035,0-1.042,1.042-.006,1.073.124,2.156.029,3.22a2.915,2.915,0,0,0,3.137,3.153q51.272-.061,102.547-.032c.235,0,.473.007.708,0a2.409,2.409,0,0,0,2.464-2.02c.152-1.75.038-3.521.038-5.427-1.769,0-3.49-.006-5.211,0-3.43.019-6.856.06-10.286.063q-10.389.014-20.774,0c-1,0-1.994.01-2.991,0-.384-.007-.6.057-.689.521a3.145,3.145,0,0,1-3.344,2.794q-11.722.019-23.451,0a3.2,3.2,0,0,1-3.4-2.931C200.083,1301.259,200.061,1301.158,200.023,1300.977Z" transform="translate(-158.188 -1228.282)" fill="#12263f"/>
            <path id="Trazado_123065" data-name="Trazado 123065" d="M205.83,1327.041H164.748c-1.489,0-2.086-.568-2.086-2.01q0-19.787.013-39.577c0-1.782.025-3.566.032-5.348a1.689,1.689,0,0,1,1.562-1.826,5.178,5.178,0,0,1,.7-.025q13.771,0,27.545,0c3.35,0,6.7.057,10.051.057,3.69,0,7.383-.057,11.076-.057q16.672-.015,33.349,0a1.755,1.755,0,0,1,1.931,1.943v44.839c0,1.467-.578,2-2.172,2Zm39.859-45.591H165.917v42.314h79.772Z" transform="translate(-148.453 -1270.796)" fill="#12263f"/>
          </g>
        </g>
      </g>
      <g id="Grupo_56649" data-name="Grupo 56649" transform="translate(487.026 1206.905)">
        <path id="Path_122972" data-name="Path 122972" d="M346.43,1252.717v35.789a1.651,1.651,0,0,1-1.356,1.893,1.746,1.746,0,0,1-.543,0q-6.912,0-13.826,0h-31q-9.036,0-18.081-.01a.7.7,0,0,0-.743.479,13.188,13.188,0,0,1-22.365,2.391,19.366,19.366,0,0,1-1.512-2.48.634.634,0,0,0-.664-.387q-3.463.019-6.939,0a1.645,1.645,0,0,1-1.848-1.413,1.754,1.754,0,0,1,0-.448V1216.97a1.683,1.683,0,0,1,1.451-1.883,1.533,1.533,0,0,1,.438,0c2.283,0,4.56-.01,6.846.006a.607.607,0,0,0,.635-.416,12.975,12.975,0,0,1,10.749-7.71,13.168,13.168,0,0,1,12.858,6.773,2.585,2.585,0,0,1,.286.55c.171.755.67.813,1.34.81,5.436-.029,10.873-.013,16.313-.013h46c1.359,0,1.95.587,1.95,1.95q0,10.67-.013,21.339,0,7.169,0,14.344Zm-3.293,34.417v-68.757H282.116v68.76Zm-84.117-34.48H259v4.017q0,7.774.016,15.548c0,4.147.032,8.294-.01,12.438a10.012,10.012,0,0,0,1.531,5.821,9.6,9.6,0,0,0,9.4,4.6,9.908,9.908,0,0,0,8.99-9.946v-64.575a12.711,12.711,0,0,0-.117-1.905,9.866,9.866,0,0,0-10.447-8.453,9.618,9.618,0,0,0-8.479,5.855,10.948,10.948,0,0,0-.873,4.878q.029,15.862.01,31.721Zm-3.21,34.464v-68.772H251.5c-.68,0-.68,0-.68.664v68.109Z" transform="translate(-247.54 -1206.905)" fill="#12263f"/>
        <path id="Path_122973" data-name="Path 122973" d="M282.712,1231.748H266.545a1.654,1.654,0,0,1-1.842-1.438,1.56,1.56,0,0,1,0-.385q-.014-8.035,0-16.071a1.615,1.615,0,0,1,1.448-1.766,1.691,1.691,0,0,1,.314,0q11.218,0,22.438,0,4.973.01,9.946,0a1.693,1.693,0,0,1,1.908,1.444,1.649,1.649,0,0,1,0,.467v15.833a1.687,1.687,0,0,1-1.435,1.908,1.718,1.718,0,0,1-.479,0q-7.145,0-14.3-.022h-1.813Zm-14.744-3.265h10.978q8.988,0,17.989.01c.441,0,.559-.111.559-.559q-.024-6.049,0-12.1c0-.362-.083-.5-.479-.489-3.89.013-7.78.006-11.67.006H267.971Z" transform="translate(-210.225 -1195.662)" fill="#12263f"/>
        <path id="Path_122974" data-name="Path 122974" d="M272.908,1224.345a13.123,13.123,0,0,1,.118-1.766,3.8,3.8,0,0,1,3.645-3.255,17.032,17.032,0,0,1,2.674,0,3.813,3.813,0,0,1,3.674,3.557,14.189,14.189,0,0,1-.01,2.959,3.777,3.777,0,0,1-3.56,3.513,15.369,15.369,0,0,1-3.1-.038,3.854,3.854,0,0,1-3.4-3.82c-.01-.385,0-.766,0-1.15Zm5.04,1.794v-.013c.365,0,.734.013,1.1,0a.705.705,0,0,0,.753-.657.5.5,0,0,0,0-.1c.022-.667.029-1.34.013-2.007a.721.721,0,0,0-.648-.788.988.988,0,0,0-.165,0q-1-.009-2.01,0c-.537.01-.778.254-.788.8-.013.641,0,1.277,0,1.915a.772.772,0,0,0,.677.848.759.759,0,0,0,.168,0c.3,0,.6,0,.905,0Z" transform="translate(-192.35 -1180)" fill="#12263f"/>
        <path id="Path_122975" data-name="Path 122975" d="M264.611,1224.333a15.313,15.313,0,0,1,.152-1.943,3.788,3.788,0,0,1,3.471-3.058,19.6,19.6,0,0,1,2.867-.009,3.892,3.892,0,0,1,3.646,3.938c.006.686,0,1.372,0,2.054a3.8,3.8,0,0,1-3.465,3.991,13.675,13.675,0,0,1-3.795-.13,3.716,3.716,0,0,1-2.823-3.5c-.016-.448,0-.893,0-1.34Zm5.17-1.756h0c-.384,0-.765-.012-1.146,0a.66.66,0,0,0-.721.594.8.8,0,0,0,0,.124c-.013.705-.01,1.4,0,2.105a.659.659,0,0,0,.613.7.539.539,0,0,0,.073,0c.746.026,1.5.022,2.242,0a.618.618,0,0,0,.638-.6.279.279,0,0,0,0-.051c.013-.753.019-1.5-.006-2.248a.6.6,0,0,0-.559-.635h-.079c-.353,0-.705,0-1.054,0Z" transform="translate(-210.4 -1179.994)" fill="#12263f"/>
        <path id="Path_122976" data-name="Path 122976" d="M278.846,1224.319a13.891,13.891,0,0,1-.013,1.667,3.829,3.829,0,0,1-3.563,3.356,16.528,16.528,0,0,1-3.147-.042,3.8,3.8,0,0,1-3.322-3.633c-.035-.924-.035-1.851,0-2.772a3.871,3.871,0,0,1,3.75-3.585,19.186,19.186,0,0,1,2.868.041,3.853,3.853,0,0,1,3.445,3.722c.01.412,0,.822,0,1.244Zm-5.014-1.74v-.007h-.911a.478.478,0,0,0-.1,0c-.53.016-.769.235-.778.75q-.019,1.029,0,2.054a.669.669,0,0,0,.594.733.65.65,0,0,0,.111,0c.73.026,1.467.023,2.2,0a.622.622,0,0,0,.654-.594v-.038q.029-1.12,0-2.248a.617.617,0,0,0-.584-.648c-.032,0-.06,0-.092,0-.368-.013-.73,0-1.1,0Z" transform="translate(-201.339 -1179.992)" fill="#12263f"/>
        <path id="Path_122977" data-name="Path 122977" d="M277.945,1237.678a11.835,11.835,0,0,1-2.216-.248,3.588,3.588,0,0,1-2.725-3.176,15.023,15.023,0,0,1,.01-3.379,3.722,3.722,0,0,1,3.41-3.281,16.29,16.29,0,0,1,3.147,0,3.8,3.8,0,0,1,3.439,3.589,15.376,15.376,0,0,1-.038,3.058,3.816,3.816,0,0,1-3.823,3.375h-1.2Zm0-3.315c.365,0,.73.006,1.1,0a.706.706,0,0,0,.74-.667.355.355,0,0,0,0-.083c.013-.686.019-1.372,0-2.058a.706.706,0,0,0-.664-.743c-.032,0-.064,0-.1,0-.7-.019-1.4-.016-2.1,0a.685.685,0,0,0-.734.629v.076c-.022.7-.022,1.4,0,2.1a.689.689,0,0,0,.635.736.479.479,0,0,0,.121,0c.33.016.667.007,1,.007Z" transform="translate(-192.338 -1162.057)" fill="#12263f"/>
        <path id="Path_122978" data-name="Path 122978" d="M269.7,1233.529a16.517,16.517,0,0,1-2.134-.193,3.841,3.841,0,0,1-2.934-3.63c-.022-.8-.013-1.594,0-2.388a3.912,3.912,0,0,1,3.925-3.9h.016a21.3,21.3,0,0,1,2.953.089,3.764,3.764,0,0,1,3.156,3.423,22.336,22.336,0,0,1,0,3.058,3.855,3.855,0,0,1-3.591,3.464c-.46.023-.924,0-1.385,0Zm0-3.315h1c.521-.026.746-.242.756-.769.01-.654.01-1.3,0-1.956,0-.572-.235-.819-.8-.826q-1-.019-2,0a.7.7,0,0,0-.762.622.6.6,0,0,0,0,.108c-.013.7-.013,1.4,0,2.1a.66.66,0,0,0,.6.721.756.756,0,0,0,.118,0C268.97,1230.23,269.335,1230.214,269.7,1230.214Z" transform="translate(-210.376 -1171.023)" fill="#12263f"/>
        <path id="Path_122979" data-name="Path 122979" d="M273.633,1237.6a4.817,4.817,0,0,1-2.972-.569,3.8,3.8,0,0,1-1.858-3.112c-.038-.838-.032-1.686-.009-2.528a3.815,3.815,0,0,1,3.376-3.785,15.262,15.262,0,0,1,3.43.025,3.792,3.792,0,0,1,3.268,3.677q.033,1.3,0,2.589a3.883,3.883,0,0,1-3.728,3.7C274.69,1237.607,274.249,1237.6,273.633,1237.6Zm1.985-5.043c0-.333.01-.667,0-1a.7.7,0,0,0-.635-.752c-.032,0-.067,0-.1,0-.7-.013-1.4-.016-2.1,0a.666.666,0,0,0-.733.594.567.567,0,0,0,0,.1c-.013.718-.01,1.432,0,2.15a.638.638,0,0,0,.575.7c.035,0,.07,0,.1,0,.734.016,1.464.013,2.2,0a.648.648,0,0,0,.689-.6v-.089C275.633,1233.292,275.617,1232.923,275.617,1232.558Z" transform="translate(-201.34 -1162.05)" fill="#12263f"/>
        <path id="Path_122980" data-name="Path 122980" d="M277.973,1233.457a5.653,5.653,0,0,1-2.852-.394,3.7,3.7,0,0,1-2.128-2.978,16.3,16.3,0,0,1,.025-3.429,3.834,3.834,0,0,1,3.753-3.249c.734-.012,1.467,0,2.2,0a3.89,3.89,0,0,1,4.039,3.646,15.877,15.877,0,0,1-.048,3.058,3.809,3.809,0,0,1-3.652,3.35C278.868,1233.476,278.417,1233.457,277.973,1233.457Zm-.032-3.248h1.048c.521-.013.778-.242.791-.753.022-.683.019-1.369,0-2.051a.7.7,0,0,0-.664-.743.5.5,0,0,0-.1,0c-.705-.013-1.4-.013-2.1,0a.707.707,0,0,0-.74.67.846.846,0,0,0,0,.089c-.013.686-.013,1.368,0,2.054a.675.675,0,0,0,.616.727c.032,0,.06,0,.092,0,.356.016.7,0,1.054,0Z" transform="translate(-192.334 -1171.017)" fill="#12263f"/>
        <path id="Path_122981" data-name="Path 122981" d="M269.626,1237.743a13.284,13.284,0,0,1-2.639-.492,3.572,3.572,0,0,1-2.334-3.372,16.5,16.5,0,0,1,.1-3.192,3.681,3.681,0,0,1,3.325-3.086,14.7,14.7,0,0,1,3.385.038,3.8,3.8,0,0,1,3.264,3.731q.048,1.219,0,2.439a3.887,3.887,0,0,1-3.934,3.8h-1.146Zm1.836-5.128h0v-1.1a.651.651,0,0,0-.6-.7.8.8,0,0,0-.086,0c-.727-.025-1.461-.022-2.191,0a.657.657,0,0,0-.692.619.326.326,0,0,0,0,.079c-.019.718-.022,1.432,0,2.144a.65.65,0,0,0,.594.7.477.477,0,0,0,.1,0c.727.016,1.461.013,2.191,0a.643.643,0,0,0,.686-.7c.013-.343,0-.7,0-1.044Z" transform="translate(-210.385 -1162.055)" fill="#12263f"/>
        <path id="Path_122982" data-name="Path 122982" d="M273.786,1233.468a5.068,5.068,0,0,1-2.966-.5,3.814,3.814,0,0,1-2.026-3.252q-.033-1.248,0-2.486a3.9,3.9,0,0,1,3.881-3.811,22.32,22.32,0,0,1,2.912.08,3.821,3.821,0,0,1,3.271,3.731c.019.8.019,1.594,0,2.388a3.889,3.889,0,0,1-3.788,3.855C274.647,1233.487,274.218,1233.474,273.786,1233.468Zm1.832-4.985c0-.349.01-.7,0-1.051a.7.7,0,0,0-.619-.765.677.677,0,0,0-.159,0c-.667-.006-1.34-.013-2.007,0a.709.709,0,0,0-.791.61.756.756,0,0,0,0,.19,11.141,11.141,0,0,1-.019,1.721c-.117.731.3,1.077,1.022,1.077.619,0,1.245-.022,1.861-.051a.661.661,0,0,0,.708-.61.72.72,0,0,0,0-.118C275.628,1229.152,275.619,1228.819,275.619,1228.482Z" transform="translate(-201.335 -1171.025)" fill="#12263f"/>
      </g>
      <g id="Grupo_56650" data-name="Grupo 56650" transform="translate(369.162 1539.911)">
        <path id="Path_122972-2" data-name="Path 122972" d="M309.315,1357.586v35.786a1.65,1.65,0,0,1-1.356,1.892,1.716,1.716,0,0,1-.543,0q-6.916,0-13.826,0h-31q-9.036,0-18.081-.009a.7.7,0,0,0-.743.479,13.188,13.188,0,0,1-22.365,2.391,19.325,19.325,0,0,1-1.512-2.48.633.633,0,0,0-.664-.387q-3.463.019-6.939,0a1.651,1.651,0,0,1-1.848-1.861v-71.56a1.682,1.682,0,0,1,1.451-1.883,1.828,1.828,0,0,1,.438,0c2.283,0,4.56-.01,6.843.006a.607.607,0,0,0,.638-.416,12.974,12.974,0,0,1,10.749-7.71,13.17,13.17,0,0,1,12.855,6.774,2.427,2.427,0,0,1,.286.549c.171.756.673.813,1.343.81,5.437-.025,10.873-.012,16.313-.012h46c1.356,0,1.95.587,1.95,1.95q0,10.67-.013,21.339,0,7.174,0,14.344ZM306.022,1392v-68.757H245V1392Zm-84.117-34.48h-.022v4.017q0,7.774.016,15.547c0,4.147.032,8.295-.01,12.442a9.983,9.983,0,0,0,1.531,5.818,9.6,9.6,0,0,0,9.4,4.6,9.908,9.908,0,0,0,8.99-9.946v-64.574a12.748,12.748,0,0,0-.121-1.905,9.861,9.861,0,0,0-10.444-8.453,9.618,9.618,0,0,0-8.479,5.855,10.947,10.947,0,0,0-.873,4.878q.029,15.862.01,31.724Zm-3.21,34.464v-68.772h-4.312c-.683,0-.683,0-.683.664v68.112Z" transform="translate(-210.423 -1311.771)" fill="#12263f"/>
        <path id="Path_122973-2" data-name="Path 122973" d="M245.6,1336.613H229.429a1.653,1.653,0,0,1-1.842-1.439,1.729,1.729,0,0,1,0-.384q-.01-8.035,0-16.071a1.616,1.616,0,0,1,1.451-1.763,1.327,1.327,0,0,1,.314,0q11.218-.009,22.438,0,4.973.005,9.946,0a1.689,1.689,0,0,1,1.908,1.442,1.642,1.642,0,0,1,0,.467V1334.7a1.69,1.69,0,0,1-1.435,1.909,1.607,1.607,0,0,1-.48,0q-7.145,0-14.3-.022h-1.813Zm-14.744-3.264H241.83q8.988,0,17.989.009c.441,0,.559-.108.559-.559q-.029-6.049,0-12.1c0-.365-.083-.5-.479-.492-3.89.013-7.78.006-11.67.006H230.852Z" transform="translate(-173.108 -1300.528)" fill="#12263f"/>
        <path id="Path_122974-2" data-name="Path 122974" d="M235.791,1329.211a14.249,14.249,0,0,1,.117-1.765,3.8,3.8,0,0,1,3.645-3.252,16.416,16.416,0,0,1,2.677,0,3.815,3.815,0,0,1,3.674,3.554,14.4,14.4,0,0,1-.01,2.959,3.781,3.781,0,0,1-3.563,3.515,15.509,15.509,0,0,1-3.1-.041,3.849,3.849,0,0,1-3.4-3.82c-.01-.384,0-.765,0-1.15Zm5.043,1.794v-.013c.362,0,.734.013,1.1,0a.7.7,0,0,0,.753-.657c0-.032,0-.063,0-.1.022-.667.029-1.337.013-2a.726.726,0,0,0-.651-.791.909.909,0,0,0-.162,0c-.673-.007-1.34-.007-2.01,0-.537.009-.778.257-.788.8-.013.641,0,1.28,0,1.915a.769.769,0,0,0,.676.848.761.761,0,0,0,.168,0c.3,0,.6,0,.905,0Z" transform="translate(-155.235 -1284.866)" fill="#12263f"/>
        <path id="Path_122975-2" data-name="Path 122975" d="M227.495,1329.2a15.384,15.384,0,0,1,.152-1.947,3.788,3.788,0,0,1,3.471-3.058,19.61,19.61,0,0,1,2.864-.01,3.888,3.888,0,0,1,3.646,3.938c.009.686,0,1.372,0,2.055a3.8,3.8,0,0,1-3.465,3.992,13.661,13.661,0,0,1-3.792-.13,3.716,3.716,0,0,1-2.823-3.5c-.016-.448,0-.893,0-1.34Zm5.17-1.759h0c-.384,0-.765-.013-1.146,0a.66.66,0,0,0-.721.594.8.8,0,0,0,0,.124c-.013.705-.01,1.4,0,2.105a.659.659,0,0,0,.613.7.539.539,0,0,0,.073,0c.746.026,1.5.023,2.242,0a.618.618,0,0,0,.638-.6v-.051c.013-.749.019-1.5-.01-2.248a.59.59,0,0,0-.556-.632.332.332,0,0,0-.079,0c-.353-.007-.7,0-1.054,0Z" transform="translate(-173.283 -1284.861)" fill="#12263f"/>
        <path id="Path_122976-2" data-name="Path 122976" d="M241.73,1329.185a13.313,13.313,0,0,1-.016,1.67,3.822,3.822,0,0,1-3.56,3.354,16.307,16.307,0,0,1-3.15-.042,3.8,3.8,0,0,1-3.318-3.629c-.035-.927-.035-1.855,0-2.776a3.87,3.87,0,0,1,3.75-3.585,19.2,19.2,0,0,1,2.867.041,3.853,3.853,0,0,1,3.445,3.722c.01.413,0,.826,0,1.245Zm-5.014-1.74v-.006H235.8a.444.444,0,0,0-.1,0c-.53.016-.769.235-.778.749-.013.685-.013,1.372,0,2.054a.667.667,0,0,0,.594.733.583.583,0,0,0,.111,0c.73.029,1.467.023,2.2,0a.62.62,0,0,0,.654-.594v-.038q.029-1.119,0-2.248a.619.619,0,0,0-.584-.648.892.892,0,0,0-.092,0c-.368-.013-.734,0-1.1,0Z" transform="translate(-164.222 -1284.859)" fill="#12263f"/>
        <path id="Path_122977-2" data-name="Path 122977" d="M240.829,1342.544a11.723,11.723,0,0,1-2.216-.248,3.587,3.587,0,0,1-2.725-3.172,15.058,15.058,0,0,1,.01-3.382,3.721,3.721,0,0,1,3.411-3.28,16.27,16.27,0,0,1,3.147,0,3.8,3.8,0,0,1,3.439,3.589,15.377,15.377,0,0,1-.038,3.058,3.818,3.818,0,0,1-3.827,3.376h-1.2Zm0-3.315c.365,0,.73.006,1.1,0a.7.7,0,0,0,.743-.667.356.356,0,0,0,0-.083c.013-.686.019-1.372,0-2.058a.706.706,0,0,0-.667-.743c-.029,0-.06,0-.092,0-.7-.019-1.4-.012-2.1,0a.683.683,0,0,0-.734.629v.076c-.022.705-.022,1.4,0,2.1a.687.687,0,0,0,.635.737.5.5,0,0,0,.121,0c.33.016.667.007,1,.007Z" transform="translate(-155.22 -1266.924)" fill="#12263f"/>
        <path id="Path_122978-2" data-name="Path 122978" d="M232.587,1338.395a16.073,16.073,0,0,1-2.134-.193,3.842,3.842,0,0,1-2.934-3.63c-.022-.794-.013-1.594,0-2.388a3.913,3.913,0,0,1,3.925-3.9h.013a20.926,20.926,0,0,1,2.956.092,3.761,3.761,0,0,1,3.157,3.42,22.331,22.331,0,0,1,0,3.058,3.856,3.856,0,0,1-3.592,3.465c-.46.022-.924,0-1.388,0Zm0-3.315h1c.521-.026.746-.242.756-.769.01-.654.01-1.3,0-1.956,0-.571-.235-.819-.8-.823q-1-.023-2,0a.7.7,0,0,0-.762.62.6.6,0,0,0,0,.108c-.016.705-.016,1.4,0,2.1a.66.66,0,0,0,.594.721.8.8,0,0,0,.121,0C231.854,1335.1,232.219,1335.08,232.587,1335.08Z" transform="translate(-173.259 -1275.89)" fill="#12263f"/>
        <path id="Path_122979-2" data-name="Path 122979" d="M236.518,1342.467a4.821,4.821,0,0,1-2.972-.568,3.8,3.8,0,0,1-1.858-3.112c-.041-.838-.032-1.686-.01-2.528a3.815,3.815,0,0,1,3.376-3.785,15.32,15.32,0,0,1,3.43.025,3.793,3.793,0,0,1,3.268,3.681c.019.861.019,1.724,0,2.585a3.88,3.88,0,0,1-3.728,3.7C237.575,1342.477,237.134,1342.467,236.518,1342.467Zm1.985-5.043c0-.333.01-.667,0-1a.7.7,0,0,0-.635-.753.51.51,0,0,0-.1,0c-.7-.016-1.4-.019-2.1,0a.664.664,0,0,0-.734.59.4.4,0,0,0,0,.108c-.013.715-.01,1.429,0,2.147a.638.638,0,0,0,.575.7c.035,0,.07,0,.1,0,.733.016,1.461.013,2.2,0a.646.646,0,0,0,.689-.6v-.089C238.515,1338.161,238.5,1337.789,238.5,1337.424Z" transform="translate(-164.224 -1266.916)" fill="#12263f"/>
        <path id="Path_122980-2" data-name="Path 122980" d="M240.858,1338.323a5.656,5.656,0,0,1-2.852-.394,3.7,3.7,0,0,1-2.128-2.979,16.076,16.076,0,0,1,.025-3.429,3.834,3.834,0,0,1,3.753-3.249c.733-.013,1.467,0,2.2,0a3.892,3.892,0,0,1,4.039,3.645,15.873,15.873,0,0,1-.048,3.058,3.809,3.809,0,0,1-3.652,3.35C241.75,1338.342,241.3,1338.323,240.858,1338.323Zm-.032-3.248h1.048c.521-.013.778-.242.791-.749.022-.686.019-1.372,0-2.055a.7.7,0,0,0-.667-.744.464.464,0,0,0-.092,0c-.7-.012-1.4-.012-2.105,0a.706.706,0,0,0-.737.67.843.843,0,0,0,0,.089q-.019,1.029,0,2.055a.673.673,0,0,0,.616.727.832.832,0,0,0,.089,0c.359.016.7,0,1.057,0Z" transform="translate(-155.217 -1275.885)" fill="#12263f"/>
        <path id="Path_122981-2" data-name="Path 122981" d="M232.51,1342.609a13.287,13.287,0,0,1-2.639-.492,3.569,3.569,0,0,1-2.334-3.372,16.491,16.491,0,0,1,.1-3.191,3.681,3.681,0,0,1,3.322-3.087,14.754,14.754,0,0,1,3.388.038,3.8,3.8,0,0,1,3.264,3.735q.048,1.215,0,2.436a3.887,3.887,0,0,1-3.934,3.8H232.53Zm1.835-5.129h0v-1.092a.652.652,0,0,0-.6-.7.719.719,0,0,0-.086,0c-.727-.025-1.461-.022-2.191,0a.657.657,0,0,0-.692.619.334.334,0,0,0,0,.079c-.019.717-.022,1.432,0,2.143a.648.648,0,0,0,.594.7.461.461,0,0,0,.1,0c.727.019,1.461.013,2.191,0a.639.639,0,0,0,.686-.587.58.58,0,0,0,0-.1c.013-.346,0-.7,0-1.048Z" transform="translate(-173.268 -1266.922)" fill="#12263f"/>
        <path id="Path_122982-2" data-name="Path 122982" d="M236.67,1338.333a5.1,5.1,0,0,1-2.966-.5,3.822,3.822,0,0,1-2.026-3.255c-.022-.829-.022-1.661,0-2.486a3.905,3.905,0,0,1,3.881-3.811,22.958,22.958,0,0,1,2.912.079,3.822,3.822,0,0,1,3.271,3.732q.029,1.2,0,2.391a3.889,3.889,0,0,1-3.788,3.852C237.531,1338.352,237.1,1338.339,236.67,1338.333Zm1.832-4.986c0-.349.01-.7,0-1.051a.7.7,0,0,0-.619-.766.728.728,0,0,0-.159,0c-.667-.009-1.34-.012-2.007,0a.7.7,0,0,0-.791.607.96.96,0,0,0,0,.191,10.78,10.78,0,0,1-.016,1.724c-.118.727.3,1.073,1.023,1.073.619,0,1.245-.023,1.861-.051a.664.664,0,0,0,.708-.61.459.459,0,0,0,0-.115C238.509,1334.017,238.5,1333.684,238.5,1333.347Z" transform="translate(-164.218 -1275.891)" fill="#12263f"/>
      </g>
      <text id="H.323_Terminal" data-name="H.323 Terminal" transform="translate(593.461 1246.769)" fill="#12263f" font-size="14" font-family="Roboto-Black, Roboto" font-weight="800"><tspan x="0" y="0">H.323 Terminal</tspan></text>
      <text id="H.323_Terminal-2" data-name="H.323 Terminal" transform="translate(475.931 1592.956)" fill="#12263f" font-size="14" font-family="Roboto-Black, Roboto" font-weight="800"><tspan x="0" y="0">H.323 Terminal</tspan></text>
      <text id="H.323_Terminal-3" data-name="H.323 Terminal" transform="translate(318.578 1469.636)" fill="#12263f" font-size="14" font-family="Roboto-Black, Roboto" font-weight="800"><tspan x="0" y="0">H.323 Terminal</tspan></text>
      <text id="LAN_1" data-name="LAN #1" transform="translate(715.055 1292.565)" fill="#12263f" font-size="14" font-family="Roboto-Black, Roboto" font-weight="800"><tspan x="0" y="0">LAN #1</tspan></text>
      <text id="LAN_2" data-name="LAN #2" transform="translate(716.359 1563.579)" fill="#12263f" font-size="14" font-family="Roboto-Black, Roboto" font-weight="800"><tspan x="0" y="0">LAN #2</tspan></text>
      <text id="H.323_Terminal-4" data-name="H.323 Terminal" transform="translate(315.388 1246.769)" fill="#12263f" font-size="14" font-family="Roboto-Black, Roboto" font-weight="800"><tspan x="0" y="0">H.323 Terminal</tspan></text>
      <rect id="Rectángulo_29311" data-name="Rectángulo 29311" width="105.225" height="64.179" transform="translate(620.944 1330.827)" fill="#12263f"/>
      <text id="IP_Router" data-name="IP
Router" transform="translate(670.972 1357.529)" fill="#fff" font-size="20" font-family="Roboto-Black, Roboto" font-weight="800"><tspan x="-9.526" y="0">IP</tspan><tspan font-family="Roboto-BlackItalic, Roboto" font-style="italic"><tspan x="-29.829" y="21">Router</tspan></tspan></text>
      <rect id="Rectángulo_29312" data-name="Rectángulo 29312" width="105.225" height="64.179" transform="translate(620.944 1445.146)" fill="#12263f"/>
      <text id="IP_Router-2" data-name="IP
Router" transform="translate(670.972 1471.848)" fill="#fff" font-size="20" font-family="Roboto-Black, Roboto" font-weight="800"><tspan x="-9.526" y="0">IP</tspan><tspan font-family="Roboto-BlackItalic, Roboto" font-style="italic"><tspan x="-29.829" y="21">Router</tspan></tspan></text>
      <rect id="Rectángulo_29313" data-name="Rectángulo 29313" width="105.225" height="64.179" transform="translate(148.818 1330.827)" fill="#12263f"/>
      <text id="H.323_Gateway" data-name="H.323
Gateway" transform="translate(197.737 1356.001)" fill="#fff" font-size="20" font-family="Roboto-Black, Roboto" font-weight="800"><tspan x="-27.422" y="0">H.323</tspan><tspan font-family="Roboto-BlackItalic, Roboto" font-style="italic"><tspan x="-37.925" y="21">Gateway</tspan></tspan></text>
      <rect id="Rectángulo_29314" data-name="Rectángulo 29314" width="105.225" height="64.179" transform="translate(148.818 1550.105)" fill="#12263f"/>
      <text id="H.323_MCU" data-name="H.323
MCU" transform="translate(198.675 1576.807)" fill="#fff" font-size="20" font-family="Roboto-Black, Roboto" font-weight="800"><tspan x="-27.422" y="0">H.323</tspan><tspan x="-21.973" y="21">MCU</tspan></text>
      <path id="Trazado_123066" data-name="Trazado 123066" d="M322.847,1256.034h24.66v109.3h-24.66" transform="translate(403.321 106.882)" fill="none" stroke="#12263f" stroke-miterlimit="10" stroke-width="4"/>
      <rect id="Rectángulo_29315" data-name="Rectángulo 29315" width="140.958" height="64.179" transform="translate(388.787 1330.827)" fill="#12263f"/>
      <text id="H.323_Gatekeeper" data-name="H.323
Gatekeeper" transform="translate(454.905 1356.001)" fill="#fff" font-size="20" font-family="Roboto-Black, Roboto" font-weight="800"><tspan x="-27.422" y="0">H.323</tspan><tspan font-family="Roboto-BlackItalic, Roboto" font-style="italic"><tspan x="-51.147" y="21">Gatekeeper</tspan></tspan></text>
      <ellipse id="Elipse_4080" data-name="Elipse 4080" cx="115.601" cy="44.353" rx="115.601" ry="44.353" transform="translate(342.732 1319.203)" fill="none" stroke="#1e5af9" stroke-miterlimit="10" stroke-width="6"/>
    </g>
  </g>
</svg>
